<?xml version="1.0" encoding="utf-8"?>
<!-- Generator: Adobe Illustrator 25.2.0, SVG Export Plug-In . SVG Version: 6.00 Build 0)  -->
<svg version="1.1" id="_x31_0" xmlns="http://www.w3.org/2000/svg" xmlns:xlink="http://www.w3.org/1999/xlink" x="0px" y="0px"
	 viewBox="0 0 597.4 512" style="enable-background:new 0 0 597.4 512;" xml:space="preserve">
<style type="text/css">
	.st0{fill:#FFFFFF;}
</style>
<g>
	<path class="st0" d="M299.7,0c-34,0-69.2,28.8-69.2,77v129.3L220,212c-26.1,14.2-42.3,41.5-42.3,71.3v44.6
		c-1.1,30.8,16.4,59.3,44.1,72.3c21,68.2,86.4,111.9,168,111.9c75.3,0,155.9-42.7,155.9-162.5V247.1c0-48.5-34.3-74.7-66.6-74.7
		c-8.5,0-16.6,1.6-24.2,4.7c-18.3-10.2-40.7-10.7-59.4-1.6c-8.9-4.8-18.8-7.5-28.6-7.8V77C366.9,26.4,333.1,0,299.7,0z M385.2,243
		H404c0-17.6,10-26.6,19.9-26.6c9.7,0,19.3,8.7,19.3,26.6h18.3c0-15.1,8.8-23.1,17.8-23.1c9.5,0,19.2,8.8,19.2,27.2
		c0,26.2,0,66.2,0,102.4c0,87.3-54.8,115-108.4,115c-66,0-119.6-35.6-127-98.9l-19.5-7.9c-11.6-4.7-18.9-16.2-18.2-28.7v-45.8
		c0-12.3,6.7-23.7,17.6-29.6l10.9-6v50.7l15.4,10.6l8.8,6.2V315l0.2,0.1c0,0,0-205.9,0-238.2c0-19,11-29.5,21.7-29.5
		c10,0,19.7,9.2,19.7,29.5c0,31.2,0,130.9,0,164.9v1c0,0,0,0.1,0,0.2H345c0-18.5,10.1-27.8,20.1-27.8
		C375.2,215.3,385.2,224.5,385.2,243z"/>
	<polygon class="st0" points="551.8,41.7 529.4,28.4 529.4,28.5 529.2,28.4 529,51.9 406.2,51.9 406.2,83.6 406.2,83.8 406.2,83.9 
		527.4,83.9 528.7,83.9 528.5,107.5 574.6,81.5 597.3,68.7 597.2,68.7 597.4,68.6 	"/>
	<polygon class="st0" points="45.6,94.2 68,107.5 68,107.4 68.1,107.5 68.4,83.9 191.2,83.9 191.2,52.3 191.2,52.1 191.2,51.9 
		70,51.9 68.7,51.9 68.9,28.4 22.8,54.4 0.1,67.1 0.2,67.2 0,67.3 	"/>
</g>
</svg>
