<svg xmlns="http://www.w3.org/2000/svg" width="904" height="128" viewBox="0 0 904 128">
  <g id="play-mark" transform="translate(-542 -360)">
    <rect id="長方形_2" data-name="長方形 2" width="904" height="128" transform="translate(542 360)" fill="none"/>
    <ellipse id="楕円形_1" data-name="楕円形 1" cx="37" cy="38.5" rx="37" ry="38.5" transform="translate(957 360)" fill="#1f306e"/>
    <path id="多角形_1" data-name="多角形 1" d="M17.5,0,35,30H0Z" transform="translate(1013 381) rotate(90)" fill="#fff"/>
    <rect id="長方形_1" data-name="長方形 1" width="288" height="42" transform="translate(850 446)" fill="#fff" opacity="0.801"/>
    <path id="パス_1" data-name="パス 1" d="M12.31-13.685a.962.962,0,0,1,.247.045,3.5,3.5,0,0,1,1.091.508q.687.478.687.979a.411.411,0,0,1-.127.314.308.308,0,0,1-.224.1q-.254,0-.508-.411a3.45,3.45,0,0,0-1.255-1.225.184.184,0,0,1-.06-.157A.132.132,0,0,1,12.31-13.685Zm-1.278.949a.524.524,0,0,1,.149.015,3.7,3.7,0,0,1,1.136.613,1.434,1.434,0,0,1,.657,1q0,.441-.381.441-.247,0-.508-.508a3.646,3.646,0,0,0-1.136-1.24.189.189,0,0,1-.09-.149A.152.152,0,0,1,11.032-12.737Zm-1.793,2.57q-.232-.164-.232-.291,0-.149.217-.149a2.016,2.016,0,0,1,.381.134,9.369,9.369,0,0,1,2.279,1.546,5.673,5.673,0,0,1,1.009,1.121,2.085,2.085,0,0,1,.463,1.068.611.611,0,0,1-.146.415.46.46,0,0,1-.362.168.519.519,0,0,1-.366-.112,1.187,1.187,0,0,1-.224-.329,11.073,11.073,0,0,0-1.4-2.1A9.084,9.084,0,0,0,9.239-10.167Zm-3.579.919q0-.3-.568-.672a.209.209,0,0,1-.12-.172q0-.149.247-.149a1.409,1.409,0,0,1,.807.232,2.539,2.539,0,0,1,.628.6,1.138,1.138,0,0,1,.276.657.388.388,0,0,1-.351.441.459.459,0,0,0-.261.134A19.135,19.135,0,0,1,4.1-6.259,20.4,20.4,0,0,1,1.372-4.608a.627.627,0,0,1-.254.06q-.187,0-.187-.172a.272.272,0,0,1,.149-.224A19.318,19.318,0,0,0,3.688-6.887,18.653,18.653,0,0,0,5.22-8.478,1.614,1.614,0,0,0,5.661-9.248Zm23.212,1.3q0,.351-.523.351l-2.107-.06q-2.749,0-6.32.291a1.777,1.777,0,0,0-.822.2.858.858,0,0,1-.493.12q-.426,0-.949-.77a1.677,1.677,0,0,1-.366-.867q0-.247.12-.247t.276.2a1.316,1.316,0,0,0,1.009.583q.77,0,2.114-.09,3.4-.217,5.491-.247a1.6,1.6,0,0,0,.792-.157.944.944,0,0,1,.463-.12,1.709,1.709,0,0,1,.583.149Q28.873-8.284,28.873-7.948Zm10.818-6.223a2.034,2.034,0,0,1,1.031.351q.687.433.687.762,0,.3-.426.4a3.46,3.46,0,0,0-.493.127,29.664,29.664,0,0,1-6.41,1.726h-.037q-.164,0-.164-.2,0-.12.321-.209a25.584,25.584,0,0,0,5.536-2q.247-.127.247-.217,0-.164-.456-.4-.2-.09-.2-.187Q39.325-14.171,39.691-14.171ZM39.31-9.419q.568-.037,2.727-.194A1.332,1.332,0,0,0,42.6-9.8a1,1,0,0,1,.463-.134,2.023,2.023,0,0,1,.889.247q.426.209.426.545t-.381.321q-.127,0-.77-.03t-1.4-.03q-1.165,0-2.533.075a9.011,9.011,0,0,1-1.233,4.341,7.5,7.5,0,0,1-2.891,2.548.97.97,0,0,1-.359.12q-.164,0-.164-.232,0-.075.232-.224a7.478,7.478,0,0,0,2.7-3,9.125,9.125,0,0,0,.807-3.5q-1.412.12-3.227.4a2.793,2.793,0,0,0-.837.232.734.734,0,0,1-.4.12,1.4,1.4,0,0,1-.949-.568,1.24,1.24,0,0,1-.411-.672q0-.291.134-.291.06,0,.217.134a1.543,1.543,0,0,0,.994.478q.2,0,1.151-.09,2.279-.254,3.347-.351V-10.2a.492.492,0,0,0-.232-.493,2.467,2.467,0,0,0-.6-.2q-.149-.045-.149-.12,0-.1.172-.172a1.494,1.494,0,0,1,.545-.1,2.657,2.657,0,0,1,.971.232q.411.164.411.426a.564.564,0,0,1-.127.351.469.469,0,0,0-.09.276ZM53.445-8.3q1.905-.538,3.153-.859a.707.707,0,0,0,.381-.239.45.45,0,0,1,.321-.187,1.24,1.24,0,0,1,.71.4q.441.4.441.628,0,.261-.321.261a.6.6,0,0,0-.456.172,24.229,24.229,0,0,1-2.436,2.2.334.334,0,0,1-.187.075q-.149,0-.149-.142a.292.292,0,0,1,.1-.194,16.9,16.9,0,0,0,2.084-2.48q0-.067-.075-.067-1.165.284-3.429,1,.007.03.261,1.128.642,2.54.919,3.511a4.055,4.055,0,0,1,.1.6.4.4,0,0,1-.1.269.3.3,0,0,1-.232.112.468.468,0,0,1-.523-.411q-.7-3.354-.837-3.922-.045-.172-.247-1.091-1.442.463-2.084.71a1.053,1.053,0,0,0-.486.291.336.336,0,0,1-.276.12,1.212,1.212,0,0,1-.77-.411,1.193,1.193,0,0,1-.471-.784q0-.321.134-.321.09,0,.187.142a.9.9,0,0,0,.628.411,3.49,3.49,0,0,0,.829-.12q1.173-.336,2.152-.635-.224-1.061-.411-1.681a1.187,1.187,0,0,0-.261-.6,1.09,1.09,0,0,0-.657-.134q-.164,0-.164-.082,0-.127.247-.291A.94.94,0,0,1,52-11.071a2.343,2.343,0,0,1,.949.336q.381.2.381.4a.406.406,0,0,1-.09.247.372.372,0,0,0-.1.232,2.175,2.175,0,0,0,.045.321Q53.273-9.046,53.445-8.3Zm15.413-2.107a3.345,3.345,0,0,0-.09-.964q-.112-.276-.755-.538-.134-.052-.134-.134,0-.1.149-.194a.576.576,0,0,1,.306-.082,2.392,2.392,0,0,1,1.1.411q.583.344.583.657a.517.517,0,0,1-.164.359.815.815,0,0,0-.142.545q-.09,2.973-.09,4.781,0,.12.075.12a.623.623,0,0,0,.2-.06,22.881,22.881,0,0,0,5.446-3.437.408.408,0,0,1,.194-.1q.2,0,.2.187a.228.228,0,0,1-.075.164,20.885,20.885,0,0,1-5.342,4.116A.987.987,0,0,0,70-4.257a.341.341,0,0,1-.306.2q-.224,0-.628-.441a1.218,1.218,0,0,1-.366-.665,1.05,1.05,0,0,1,.075-.239,1.229,1.229,0,0,0,.067-.418Q68.857-7.313,68.857-10.406Zm-2.712.687a.584.584,0,0,0-.187-.463,2.217,2.217,0,0,0-.515-.321q-.2-.09-.2-.179a.206.206,0,0,1,.112-.164.432.432,0,0,1,.239-.067,2.314,2.314,0,0,1,1.225.478q.6.4.6.777a.459.459,0,0,1-.187.336,1.049,1.049,0,0,0-.269.553,10.141,10.141,0,0,1-1.487,3.011,9.637,9.637,0,0,1-2.465,2.376.511.511,0,0,1-.239.09q-.187,0-.187-.12a.276.276,0,0,1,.1-.217,10.664,10.664,0,0,0,2.1-2.48A10.248,10.248,0,0,0,66-8.844,4.279,4.279,0,0,0,66.146-9.718Zm17.93,1.449q2.114-.284,3.5-.426a2.271,2.271,0,0,0,.792-.164,1.033,1.033,0,0,1,.463-.187,2.174,2.174,0,0,1,1.053.291.494.494,0,0,1,.306.441q0,.381-.538.381l-1.449-.015a31.626,31.626,0,0,0-4.131.306l-.015,1.928a1.681,1.681,0,0,0,.2,1.053,2.782,2.782,0,0,0,1.532.247,9.061,9.061,0,0,0,1.532-.12,2.306,2.306,0,0,0,.291-.082.848.848,0,0,1,.254-.052,1.349,1.349,0,0,1,.859.217.43.43,0,0,1,.2.366q0,.306-.426.411a9.932,9.932,0,0,1-1.98.149,5.147,5.147,0,0,1-2.645-.456,1.266,1.266,0,0,1-.478-.568,2.81,2.81,0,0,1-.134-.994V-7.514q-1.3.194-2.585.471a3.123,3.123,0,0,0-.9.306.792.792,0,0,1-.493.172,1.55,1.55,0,0,1-.949-.568,1.153,1.153,0,0,1-.411-.777q0-.2.187-.2.06,0,.164.1a1.173,1.173,0,0,0,.859.433,5.732,5.732,0,0,0,.852-.09q2.174-.344,3.28-.493.015-.523.015-1.808a1.117,1.117,0,0,0-.172-.672.5.5,0,0,0-.239-.187,8.828,8.828,0,0,1-1.255.172,1.886,1.886,0,0,1-1.225-.381q-.538-.433-.538-.687,0-.2.172-.2a.328.328,0,0,1,.209.12,1.689,1.689,0,0,0,1.225.433,11.623,11.623,0,0,0,1.7-.217q1.248-.217,2.294-.486a2.138,2.138,0,0,0,.6-.247,1.151,1.151,0,0,1,.628-.232,2.224,2.224,0,0,1,.613.09q.411.112.411.418,0,.388-.523.456-.635.09-1.9.306l-1.756.306q.837.329.837.643a2.688,2.688,0,0,1-.12.306,1.553,1.553,0,0,0-.112.515q0,.134-.03.635Q84.083-8.508,84.076-8.269Zm20.709-7.165a.962.962,0,0,1,.247.045,3.5,3.5,0,0,1,1.091.508,1.29,1.29,0,0,1,.687.986.411.411,0,0,1-.127.314.308.308,0,0,1-.224.1q-.254,0-.508-.411a3.427,3.427,0,0,0-1.255-1.233.163.163,0,0,1-.06-.149Q104.636-15.434,104.785-15.434Zm-1.278.956a.524.524,0,0,1,.149.015,3.7,3.7,0,0,1,1.136.613,1.413,1.413,0,0,1,.657.994q0,.441-.381.441-.247,0-.508-.5a3.646,3.646,0,0,0-1.136-1.24.189.189,0,0,1-.09-.149A.152.152,0,0,1,103.508-14.477ZM97.314-12.61q.291,0,1.27-.06,1.158-.112,2.092-.261a3.959,3.959,0,0,0,.859-.2,1.52,1.52,0,0,1,.553-.134,1.269,1.269,0,0,1,.672.149q.336.224.336.463,0,.3-.463.351-1.546.142-4.326.351-.642.06-.979.06a1.553,1.553,0,0,1-.994-.351q-.553-.448-.553-.732,0-.217.172-.217a.5.5,0,0,1,.194.12A1.894,1.894,0,0,0,97.314-12.61Zm1.972,3.481a30.548,30.548,0,0,0-3.033.366,2.978,2.978,0,0,0-.792.217.708.708,0,0,1-.388.1,1.351,1.351,0,0,1-.882-.456q-.508-.456-.508-.762,0-.261.12-.261a.257.257,0,0,1,.142.06,1.744,1.744,0,0,0,1.038.5A6.941,6.941,0,0,0,95.73-9.4q1.27-.142,3.75-.351l3.444-.291a1.643,1.643,0,0,0,.657-.157.793.793,0,0,1,.418-.149,2.124,2.124,0,0,1,1.024.321q.366.217.366.493,0,.321-.351.321-.187,0-.56-.037-.344-.03-.545-.037-.359-.015-.792-.015t-.8.015q-.956.015-2.309.1.687.411.687.687a.429.429,0,0,1-.09.247.969.969,0,0,0-.187.321A9.35,9.35,0,0,1,98.868-4.6a10.055,10.055,0,0,1-2.951,2.682.584.584,0,0,1-.284.09q-.172,0-.172-.187a.3.3,0,0,1,.149-.224,10.7,10.7,0,0,0,2.57-2.8,9.922,9.922,0,0,0,1.3-3.026,2.108,2.108,0,0,0,.06-.463A.772.772,0,0,0,99.287-9.128Zm15.472-1.278a3.345,3.345,0,0,0-.09-.964q-.112-.276-.755-.538-.134-.052-.134-.134,0-.1.149-.194a.576.576,0,0,1,.306-.082,2.392,2.392,0,0,1,1.1.411q.583.344.583.657a.517.517,0,0,1-.164.359.815.815,0,0,0-.142.545q-.09,2.973-.09,4.781,0,.12.075.12a.623.623,0,0,0,.2-.06,22.881,22.881,0,0,0,5.446-3.437.408.408,0,0,1,.194-.1q.2,0,.2.187a.228.228,0,0,1-.075.164,20.885,20.885,0,0,1-5.342,4.116.987.987,0,0,0-.321.321.341.341,0,0,1-.306.2q-.224,0-.628-.441a1.218,1.218,0,0,1-.366-.665,1.05,1.05,0,0,1,.075-.239,1.229,1.229,0,0,0,.067-.418Q114.759-7.313,114.759-10.406Zm-2.712.687a.584.584,0,0,0-.187-.463,2.217,2.217,0,0,0-.515-.321q-.2-.09-.2-.179a.206.206,0,0,1,.112-.164.432.432,0,0,1,.239-.067,2.314,2.314,0,0,1,1.225.478q.6.4.6.777a.459.459,0,0,1-.187.336,1.049,1.049,0,0,0-.269.553,10.141,10.141,0,0,1-1.487,3.011,9.637,9.637,0,0,1-2.465,2.376.511.511,0,0,1-.239.09q-.187,0-.187-.12a.276.276,0,0,1,.1-.217,10.664,10.664,0,0,0,2.1-2.48,10.248,10.248,0,0,0,1.21-2.734A4.279,4.279,0,0,0,112.047-9.718Zm18.012-.687a3.345,3.345,0,0,0-.09-.964q-.112-.276-.755-.538-.134-.052-.134-.134,0-.1.149-.194a.576.576,0,0,1,.306-.082,2.392,2.392,0,0,1,1.1.411q.583.344.583.657a.517.517,0,0,1-.164.359.815.815,0,0,0-.142.545q-.09,2.973-.09,4.781,0,.12.075.12a.623.623,0,0,0,.2-.06,22.881,22.881,0,0,0,5.446-3.437.408.408,0,0,1,.194-.1q.2,0,.2.187a.228.228,0,0,1-.075.164,20.885,20.885,0,0,1-5.342,4.116.987.987,0,0,0-.321.321.341.341,0,0,1-.306.2q-.224,0-.628-.441a1.218,1.218,0,0,1-.366-.665,1.05,1.05,0,0,1,.075-.239,1.229,1.229,0,0,0,.067-.418Q130.059-7.313,130.059-10.406Zm-2.712.687a.584.584,0,0,0-.187-.463,2.217,2.217,0,0,0-.515-.321q-.2-.09-.2-.179a.206.206,0,0,1,.112-.164.432.432,0,0,1,.239-.067,2.314,2.314,0,0,1,1.225.478q.6.4.6.777a.459.459,0,0,1-.187.336,1.049,1.049,0,0,0-.269.553,10.141,10.141,0,0,1-1.487,3.011,9.637,9.637,0,0,1-2.465,2.376.511.511,0,0,1-.239.09q-.187,0-.187-.12a.276.276,0,0,1,.1-.217,10.664,10.664,0,0,0,2.1-2.48,10.248,10.248,0,0,0,1.21-2.734A4.279,4.279,0,0,0,127.347-9.718Zm23.929,1.771q0,.351-.523.351l-2.107-.06q-2.749,0-6.32.291a1.777,1.777,0,0,0-.822.2.858.858,0,0,1-.493.12q-.426,0-.949-.77a1.677,1.677,0,0,1-.366-.867q0-.247.12-.247t.276.2a1.316,1.316,0,0,0,1.009.583q.77,0,2.114-.09,3.4-.217,5.491-.247a1.6,1.6,0,0,0,.792-.157.944.944,0,0,1,.463-.12,1.709,1.709,0,0,1,.583.149Q151.277-8.284,151.277-7.948Zm12.566,2.436A10.2,10.2,0,0,0,162.2-7.6a.367.367,0,0,1-.134-.224q0-.172.187-.172a.463.463,0,0,1,.254.09,8.885,8.885,0,0,1,2.615,2.5,2.732,2.732,0,0,1,.538,1.457.506.506,0,0,1-.179.411.515.515,0,0,1-.344.127.524.524,0,0,1-.53-.411A7.3,7.3,0,0,0,164.1-5q-3.414.657-7.419,1.27a1.339,1.339,0,0,0-.6.194.455.455,0,0,1-.336.157q-.321,0-.687-.613a1.784,1.784,0,0,1-.336-.934.477.477,0,0,1,.1-.284q.075-.112.134-.112.082,0,.164.164a.9.9,0,0,0,.8.508,5.425,5.425,0,0,0,.7-.045,68.165,68.165,0,0,0,2.973-6.672,2.119,2.119,0,0,0,.187-.643q0-.418-.717-.77-.164-.082-.164-.164,0-.217.471-.217a2.235,2.235,0,0,1,1.151.366q.732.441.732.859a.436.436,0,0,1-.291.411,1.638,1.638,0,0,0-.516.717q-1.7,3.549-3.153,6.074Q160.2-4.974,163.843-5.512Zm14.4-5.551q.045-1.173.045-2.555a12.083,12.083,0,0,0-.06-1.27,9.8,9.8,0,0,1,1.233.194q.254.082.254.217,0,.172-.478.366-.03,2.1-.09,3.048h1.666q.441-.508.553-.508t.643.478q.247.224.247.351,0,.149-.374.381a39.852,39.852,0,0,1-.545,6.858,3.183,3.183,0,0,1-.829,1.756,1.62,1.62,0,0,1-1.009.306.375.375,0,0,1-.172-.022.242.242,0,0,1-.045-.127.735.735,0,0,0-.314-.553,3.324,3.324,0,0,0-1.076-.411q-.06-.022-.06-.112,0-.12.075-.1a15.659,15.659,0,0,0,1.823.164q.3,0,.478-.4a5.479,5.479,0,0,0,.3-1.083,40.146,40.146,0,0,0,.456-6.589h-1.83a15.191,15.191,0,0,1-1.479,6.35A9.026,9.026,0,0,1,174.3-1.157a.066.066,0,0,1-.03.007q-.134,0-.134-.142a.072.072,0,0,1,.022-.052,9.672,9.672,0,0,0,3.063-4,17.69,17.69,0,0,0,.986-5.334h-.493a6.164,6.164,0,0,0-1.188.1l-.142-.59a8.36,8.36,0,0,0,1.3.1Zm-5.3,4.6v1.345h1.5q.53-.628.643-.628a2.941,2.941,0,0,1,.725.508q.276.217.276.366t-.2.134h-2.944V-3.42q1.606-.217,2.831-.486.09-.015.09.12a.083.083,0,0,1-.045.082,34.03,34.03,0,0,1-6.4,1.554q-.134.493-.321.493-.127,0-.232-.276t-.336-1.151q.291.022.553.022.134,0,.672-.015,1.121-.082,2.316-.239V-4.735h-2.025a5.878,5.878,0,0,0-1.024.09l-.142-.56a7.084,7.084,0,0,0,1.136.09h2.055V-6.461H170.29v.12q0,.418-.508.418-.388,0-.388-.321l.045-2.45q0-1.517-.067-2.391a11.266,11.266,0,0,1,1.024.508h1.673v-1.21h-2.316a5.888,5.888,0,0,0-1.053.09l-.157-.575a6.671,6.671,0,0,0,1.2.1h2.331v-1.3a24.3,24.3,0,0,1-3.078.217q-.082,0-.082-.12,0-.1.067-.112a17.9,17.9,0,0,0,4.55-.994,5.509,5.509,0,0,0,1.285-.628q.986.74.986.934,0,.134-.2.134a1.7,1.7,0,0,1-.523-.12,21.954,21.954,0,0,1-2.129.545v1.442h1.89a3.792,3.792,0,0,1,.7-.717q.149,0,.77.553.3.269.3.4,0,.149-.2.149h-3.459v1.21h1.763q.426-.463.538-.463a1.654,1.654,0,0,1,.568.366q.261.224.261.351t-.4.374v.994l.052,2.48q0,.4-.523.4a.433.433,0,0,1-.3-.075.348.348,0,0,1-.067-.247v-.06Zm0-.381h1.89V-8.374h-1.89Zm0-1.913h1.89V-10.2h-1.89ZM170.29-6.842h1.778V-8.374H170.29Zm0-1.913h1.778V-10.2H170.29Zm17.8,4.206v.6q0,.4-.568.4-.366,0-.366-.306l.06-4.587q0-2.234-.075-3.22a6.433,6.433,0,0,1,1.068.538h2.01v-2.525h-4.931a7.306,7.306,0,0,0-1.255.09l-.149-.575a7.928,7.928,0,0,0,1.4.1h10.228q.77-.9.889-.9a4.187,4.187,0,0,1,.934.657q.426.344.426.493t-.2.134h-6.47v2.525h2.174q.441-.493.53-.493.134,0,.613.411.247.217.247.336,0,.172-.4.418v1.935l.075,4.5q0,.4-.583.4-.366,0-.366-.336v-.583Zm0-3.608h2.129v-2.592h-2.129Zm0,.381v2.846h2.129V-7.776Zm5.3,2.846V-7.776H191.09v2.846Zm0-3.227v-2.592H191.09v2.592Zm-7.912,5.738h10.616V-8.568q0-2.421-.075-3.048,1.532.164,1.532.411,0,.194-.523.4v3.056l.06,6.156q0,.411-.6.411-.4,0-.4-.351v-.508H185.471v.456q0,.433-.6.433-.411,0-.411-.336l.075-6.1q0-3.287-.075-4a7.794,7.794,0,0,1,1.292.2q.224.075.224.209,0,.194-.508.4Zm18.685-8.592a14.457,14.457,0,0,1-1.472.127,2.151,2.151,0,0,1-1.016-.2,1.938,1.938,0,0,1-.635-.628.443.443,0,0,1-.075-.209q0-.2.134-.2a.367.367,0,0,1,.247.142,1.5,1.5,0,0,0,.613.374,2.608,2.608,0,0,0,.672.067,8.553,8.553,0,0,0,1.9-.247,10.522,10.522,0,0,0,.463-1.165,2.085,2.085,0,0,0,.1-.56q0-.418-.949-.418-.172,0-.172-.075,0-.12.172-.232a1.073,1.073,0,0,1,.56-.134,2.2,2.2,0,0,1,.911.247q.672.314.672.687a.367.367,0,0,1-.187.336,1.168,1.168,0,0,0-.4.486q-.09.172-.351.657a7.524,7.524,0,0,0,1.4-.575,1.76,1.76,0,0,1,.784-.276.568.568,0,0,1,.381.127.341.341,0,0,1,.12.254.336.336,0,0,1-.12.276,1.238,1.238,0,0,1-.366.194,18.231,18.231,0,0,1-2.637.814q-.9,1.584-1.509,2.45l.03.03a3.072,3.072,0,0,1,1.868-.77q1.292,0,1.36,1.367.03.366.03.628,2.2-1.315,3.168-1.965a.318.318,0,0,0,.164-.261.245.245,0,0,0-.134-.194,1.248,1.248,0,0,0-.538-.187q-.134-.022-.134-.09,0-.112.209-.187a1.229,1.229,0,0,1,.4-.06,2.177,2.177,0,0,1,1.128.366q.628.388.628.725a.3.3,0,0,1-.306.321,1.839,1.839,0,0,0-.456.12q-1.2.5-2.787,1.345-.239.134-.7.4t-.643.366l.015,2.2q0,.583-.418.583a.417.417,0,0,1-.306-.127.388.388,0,0,1-.12-.284q0-.254.022-.882t.03-1.038a8.125,8.125,0,0,0-1.479.994,1.8,1.8,0,0,0-.65,1.3q0,1.136,1.771,1.136a20.258,20.258,0,0,0,2.316-.12,7.9,7.9,0,0,0,.837-.157,3.068,3.068,0,0,1,.583-.09A1.1,1.1,0,0,1,210-3a.491.491,0,0,1,.232.4q0,.411-.889.493-1.121.09-2.891.09-3.183,0-3.183-1.868a2.522,2.522,0,0,1,.889-1.853A11.2,11.2,0,0,1,205.934-7v-.643a1.859,1.859,0,0,0-.217-1.106.63.63,0,0,0-.53-.232,3.019,3.019,0,0,0-1.95,1.009,12.075,12.075,0,0,0-1.375,1.644.459.459,0,0,1-.388.232.382.382,0,0,1-.3-.149.486.486,0,0,1-.112-.321,1.281,1.281,0,0,1,.441-.755,14.656,14.656,0,0,0,1.546-1.853A17.119,17.119,0,0,0,204.156-11.011ZM222.9-6.327v3.168q0,.515.247.628a4.336,4.336,0,0,0,1.315.12,11.433,11.433,0,0,0,1.763-.09,1.027,1.027,0,0,0,.605-.276,4.944,4.944,0,0,0,.643-1.733q.015-.052.09-.052.127,0,.127.09-.03,1.128-.03,1.315a.358.358,0,0,0,.232.381.368.368,0,0,1,.247.4q0,.426-.717.628a14,14,0,0,1-3.093.217,4.084,4.084,0,0,1-1.995-.314,1.1,1.1,0,0,1-.4-.986l.03-1.21V-6.327h-3.855v.381q0,.381-.613.381-.411,0-.411-.321l.075-4.677q0-3.242-.075-4.161a8.651,8.651,0,0,1,1.158.583h6.007q.486-.508.575-.508a1.957,1.957,0,0,1,.643.433q.247.224.247.336,0,.164-.4.441v2.406l.075,4.968q0,.426-.583.426-.441,0-.441-.336v-.351Zm1.472-.381V-8.9h-6.261v2.189Zm0-2.57v-2.047h-6.261v2.047Zm0-2.428V-13.76h-6.261v2.055ZM214.638-1.194q-.12.022-.12-.134a.063.063,0,0,1,.045-.067,8.448,8.448,0,0,0,2.9-1.4,4.944,4.944,0,0,0,1.487-1.8,3.989,3.989,0,0,0,.374-1.472,11.168,11.168,0,0,1,1.2.314q.224.082.224.194,0,.172-.515.321Q219.24-1.9,214.638-1.194Zm23.377-1.823A2.933,2.933,0,0,0,239.6-4.182a2.534,2.534,0,0,0,.5-1.464,2.357,2.357,0,0,0-.867-1.995,2.459,2.459,0,0,0-1.539-.486,5.4,5.4,0,0,0-3.623,1.576A10.333,10.333,0,0,0,233-5.348a.427.427,0,0,1-.366.172.494.494,0,0,1-.359-.157.449.449,0,0,1-.149-.336.948.948,0,0,1,.306-.583,79.355,79.355,0,0,0,5.551-6.492.234.234,0,0,0,.052-.112q0-.052-.075-.052a.369.369,0,0,0-.112.022q-1.255.418-2.465.882a1.472,1.472,0,0,0-.4.2.659.659,0,0,1-.381.2,1.189,1.189,0,0,1-.859-.538,1.529,1.529,0,0,1-.411-.919q0-.247.134-.247.112,0,.261.2a.989.989,0,0,0,.74.478,4.574,4.574,0,0,0,.867-.12q.657-.149,2.055-.56a.94.94,0,0,0,.381-.247.438.438,0,0,1,.321-.134,1.392,1.392,0,0,1,.747.336q.523.351.523.657,0,.247-.291.321a1.883,1.883,0,0,0-.762.538q-.12.12-3.937,4.378l.03.015a5.742,5.742,0,0,1,3.213-1.18,3.386,3.386,0,0,1,2.764,1.1,2.905,2.905,0,0,1,.665,1.92A3.126,3.126,0,0,1,239.6-2.9a4.63,4.63,0,0,1-2.7.8,3.924,3.924,0,0,1-2.211-.538,1.337,1.337,0,0,1-.665-1.128,1.081,1.081,0,0,1,.456-.919,1.586,1.586,0,0,1,.979-.291,2.521,2.521,0,0,1,1.853.814A2.7,2.7,0,0,1,238.015-3.017Zm-.837.149a2.491,2.491,0,0,0-.829-1.225,1.593,1.593,0,0,0-1.009-.441.833.833,0,0,0-.65.239.622.622,0,0,0-.172.448.872.872,0,0,0,.545.732A3.174,3.174,0,0,0,236.6-2.8,1.852,1.852,0,0,0,237.178-2.867Z" transform="translate(873.211 475.368)" fill="#1f306e"/>
    <rect id="長方形_3" data-name="長方形 3" width="904" height="128" transform="translate(542 360)" fill="none"/>
  </g>
</svg>
