<svg xmlns="http://www.w3.org/2000/svg" width="320" height="107" viewBox="0 0 320 107">
  <g id="play-mark-sp" transform="translate(-834 -360)">
    <ellipse id="楕円形_1" data-name="楕円形 1" cx="31" cy="32" rx="31" ry="32" transform="translate(961 360)" fill="#1f306e"/>
    <path id="多角形_1" data-name="多角形 1" d="M14.5,0,29,25H0Z" transform="translate(1008 378) rotate(90)" fill="#fff"/>
    <rect id="長方形_1" data-name="長方形 1" width="240" height="36" transform="translate(876 431)" fill="#fff" opacity="0.801"/>
    <path id="パス_1" data-name="パス 1" d="M10.61-13.947a.818.818,0,0,1,.21.038,2.974,2.974,0,0,1,.928.432q.585.407.585.832a.35.35,0,0,1-.108.267.262.262,0,0,1-.191.083q-.216,0-.432-.35a2.934,2.934,0,0,0-1.068-1.042.157.157,0,0,1-.051-.133A.112.112,0,0,1,10.61-13.947Zm-1.087.807a.446.446,0,0,1,.127.013,3.147,3.147,0,0,1,.966.521,1.22,1.22,0,0,1,.559.852q0,.375-.324.375-.21,0-.432-.432a3.1,3.1,0,0,0-.966-1.055.16.16,0,0,1-.076-.127A.129.129,0,0,1,9.523-13.14ZM8-10.954q-.2-.14-.2-.248,0-.127.184-.127a1.715,1.715,0,0,1,.324.114A7.969,7.969,0,0,1,10.248-9.9a4.825,4.825,0,0,1,.858.953,1.774,1.774,0,0,1,.394.909.52.52,0,0,1-.124.353.391.391,0,0,1-.308.143.442.442,0,0,1-.311-.1,1.01,1.01,0,0,1-.191-.28A9.418,9.418,0,0,0,9.377-9.7,7.727,7.727,0,0,0,8-10.954Zm-3.044.782q0-.254-.483-.572a.178.178,0,0,1-.1-.146q0-.127.21-.127a1.2,1.2,0,0,1,.686.2,2.16,2.16,0,0,1,.534.508.968.968,0,0,1,.235.559.33.33,0,0,1-.3.375.39.39,0,0,0-.222.114A16.276,16.276,0,0,1,3.626-7.63a17.356,17.356,0,0,1-2.319,1.4.533.533,0,0,1-.216.051q-.159,0-.159-.146a.232.232,0,0,1,.127-.191A16.432,16.432,0,0,0,3.277-8.164a15.866,15.866,0,0,0,1.3-1.354A1.373,1.373,0,0,0,4.954-10.172ZM24.7-9.066q0,.3-.445.3l-1.792-.051q-2.339,0-5.376.248a1.512,1.512,0,0,0-.7.172.73.73,0,0,1-.419.1q-.362,0-.807-.655a1.426,1.426,0,0,1-.311-.737q0-.21.1-.21t.235.172a1.12,1.12,0,0,0,.858.5q.655,0,1.8-.076,2.891-.184,4.671-.21a1.361,1.361,0,0,0,.674-.133.8.8,0,0,1,.394-.1,1.453,1.453,0,0,1,.5.127Q24.7-9.352,24.7-9.066Zm9.2-5.293a1.73,1.73,0,0,1,.877.3q.585.369.585.648,0,.254-.362.337a2.943,2.943,0,0,0-.419.108A25.232,25.232,0,0,1,29.127-11.5H29.1q-.14,0-.14-.172,0-.1.273-.178a21.761,21.761,0,0,0,4.709-1.7q.21-.108.21-.184,0-.14-.388-.337-.172-.076-.172-.159Q33.589-14.36,33.9-14.36Zm-.324,4.042q.483-.032,2.319-.165a1.133,1.133,0,0,0,.477-.159.855.855,0,0,1,.394-.114,1.721,1.721,0,0,1,.756.21q.362.178.362.464t-.324.273q-.108,0-.655-.025t-1.188-.025q-.991,0-2.154.064A7.665,7.665,0,0,1,32.515-6.1a6.383,6.383,0,0,1-2.459,2.167.825.825,0,0,1-.305.1q-.14,0-.14-.2,0-.064.2-.191a6.361,6.361,0,0,0,2.3-2.548,7.762,7.762,0,0,0,.686-2.974q-1.2.1-2.745.343a2.375,2.375,0,0,0-.712.2.625.625,0,0,1-.343.1,1.187,1.187,0,0,1-.807-.483,1.054,1.054,0,0,1-.35-.572q0-.248.114-.248.051,0,.184.114a1.312,1.312,0,0,0,.845.407q.172,0,.979-.076,1.938-.216,2.847-.3v-.718a.418.418,0,0,0-.2-.419,2.1,2.1,0,0,0-.508-.172q-.127-.038-.127-.1,0-.083.146-.146a1.27,1.27,0,0,1,.464-.089,2.26,2.26,0,0,1,.826.2q.35.14.35.362a.48.48,0,0,1-.108.3.4.4,0,0,0-.076.235ZM45.6-9.365q1.62-.458,2.682-.731a.6.6,0,0,0,.324-.2.383.383,0,0,1,.273-.159,1.055,1.055,0,0,1,.6.337q.375.337.375.534,0,.222-.273.222a.511.511,0,0,0-.388.146,20.609,20.609,0,0,1-2.072,1.875.285.285,0,0,1-.159.064q-.127,0-.127-.121a.248.248,0,0,1,.089-.165A14.374,14.374,0,0,0,48.7-9.676q0-.057-.064-.057-.991.241-2.917.852.006.025.222.96.547,2.161.782,2.987a3.45,3.45,0,0,1,.089.508.338.338,0,0,1-.089.229.253.253,0,0,1-.2.1.4.4,0,0,1-.445-.35q-.6-2.853-.712-3.336-.038-.146-.21-.928-1.226.394-1.773.6a.9.9,0,0,0-.413.248.286.286,0,0,1-.235.1,1.031,1.031,0,0,1-.655-.35,1.015,1.015,0,0,1-.4-.667q0-.273.114-.273.076,0,.159.121a.763.763,0,0,0,.534.35,2.969,2.969,0,0,0,.705-.1q1-.286,1.83-.54-.191-.9-.35-1.43a1.01,1.01,0,0,0-.222-.508.927.927,0,0,0-.559-.114q-.14,0-.14-.07,0-.108.21-.248a.8.8,0,0,1,.4-.127,1.993,1.993,0,0,1,.807.286q.324.172.324.337a.346.346,0,0,1-.076.21.316.316,0,0,0-.083.2,1.85,1.85,0,0,0,.038.273Q45.453-10,45.6-9.365Zm13.11-1.792a2.846,2.846,0,0,0-.076-.82q-.1-.235-.642-.458-.114-.044-.114-.114,0-.089.127-.165a.49.49,0,0,1,.261-.07,2.035,2.035,0,0,1,.934.35q.5.292.5.559a.44.44,0,0,1-.14.305.693.693,0,0,0-.121.464q-.076,2.529-.076,4.067,0,.1.064.1a.53.53,0,0,0,.172-.051,19.463,19.463,0,0,0,4.633-2.923A.347.347,0,0,1,64.39-10q.172,0,.172.159a.194.194,0,0,1-.064.14,17.765,17.765,0,0,1-4.544,3.5.839.839,0,0,0-.273.273.29.29,0,0,1-.261.172q-.191,0-.534-.375a1.036,1.036,0,0,1-.311-.566.893.893,0,0,1,.064-.2,1.045,1.045,0,0,0,.057-.356Q58.709-8.526,58.709-11.157Zm-2.307.585a.5.5,0,0,0-.159-.394,1.886,1.886,0,0,0-.438-.273q-.172-.076-.172-.153a.175.175,0,0,1,.1-.14.368.368,0,0,1,.2-.057,1.968,1.968,0,0,1,1.042.407q.508.337.508.661a.391.391,0,0,1-.159.286.892.892,0,0,0-.229.47A8.625,8.625,0,0,1,55.83-7.2a8.2,8.2,0,0,1-2.1,2.021.435.435,0,0,1-.2.076q-.159,0-.159-.1a.235.235,0,0,1,.089-.184A9.071,9.071,0,0,0,55.245-7.5a8.716,8.716,0,0,0,1.029-2.326A3.639,3.639,0,0,0,56.4-10.572ZM71.653-9.339q1.8-.241,2.98-.362a1.932,1.932,0,0,0,.674-.14A.878.878,0,0,1,75.7-10a1.849,1.849,0,0,1,.9.248.42.42,0,0,1,.261.375q0,.324-.458.324l-1.233-.013a26.9,26.9,0,0,0-3.514.261l-.013,1.64a1.43,1.43,0,0,0,.172.9,2.366,2.366,0,0,0,1.3.21,7.707,7.707,0,0,0,1.3-.1,1.961,1.961,0,0,0,.248-.07.722.722,0,0,1,.216-.044,1.148,1.148,0,0,1,.731.184.366.366,0,0,1,.172.311q0,.261-.362.35a8.448,8.448,0,0,1-1.684.127,4.378,4.378,0,0,1-2.25-.388,1.077,1.077,0,0,1-.407-.483,2.39,2.39,0,0,1-.114-.845V-8.7q-1.106.165-2.2.4A2.656,2.656,0,0,0,68-8.037a.674.674,0,0,1-.419.146,1.318,1.318,0,0,1-.807-.483.981.981,0,0,1-.35-.661q0-.172.159-.172.051,0,.14.089a1,1,0,0,0,.731.369,4.875,4.875,0,0,0,.724-.076q1.849-.292,2.79-.419.013-.445.013-1.538a.95.95,0,0,0-.146-.572.421.421,0,0,0-.2-.159,7.509,7.509,0,0,1-1.068.146,1.6,1.6,0,0,1-1.042-.324q-.458-.369-.458-.585,0-.172.146-.172a.279.279,0,0,1,.178.1,1.436,1.436,0,0,0,1.042.369,9.886,9.886,0,0,0,1.449-.184q1.061-.184,1.951-.413a1.819,1.819,0,0,0,.508-.21.979.979,0,0,1,.534-.2,1.892,1.892,0,0,1,.521.076q.35.1.35.356,0,.33-.445.388-.54.076-1.614.261l-1.493.261q.712.28.712.547a2.286,2.286,0,0,1-.1.261,1.321,1.321,0,0,0-.1.438q0,.114-.025.54Q71.66-9.543,71.653-9.339Zm17.615-6.094a.818.818,0,0,1,.21.038,2.974,2.974,0,0,1,.928.432,1.1,1.1,0,0,1,.585.839.35.35,0,0,1-.108.267.262.262,0,0,1-.191.083q-.216,0-.432-.35a2.915,2.915,0,0,0-1.068-1.049.139.139,0,0,1-.051-.127Q89.141-15.434,89.268-15.434Zm-1.087.813a.446.446,0,0,1,.127.013,3.147,3.147,0,0,1,.966.521,1.2,1.2,0,0,1,.559.845q0,.375-.324.375-.21,0-.432-.426a3.1,3.1,0,0,0-.966-1.055.16.16,0,0,1-.076-.127A.129.129,0,0,1,88.182-14.62Zm-5.268,1.589q.248,0,1.08-.051.985-.1,1.779-.222a3.368,3.368,0,0,0,.731-.172,1.293,1.293,0,0,1,.47-.114,1.08,1.08,0,0,1,.572.127q.286.191.286.394,0,.254-.394.3-1.315.121-3.679.3-.547.051-.832.051a1.321,1.321,0,0,1-.845-.3q-.47-.381-.47-.623,0-.184.146-.184a.425.425,0,0,1,.165.1A1.611,1.611,0,0,0,82.914-13.032Zm1.678,2.961a25.984,25.984,0,0,0-2.58.311,2.533,2.533,0,0,0-.674.184.6.6,0,0,1-.33.089,1.15,1.15,0,0,1-.75-.388q-.432-.388-.432-.648,0-.222.1-.222a.218.218,0,0,1,.121.051,1.483,1.483,0,0,0,.883.426,5.9,5.9,0,0,0,.635-.038q1.08-.121,3.19-.3l2.93-.248a1.4,1.4,0,0,0,.559-.133.675.675,0,0,1,.356-.127,1.807,1.807,0,0,1,.871.273q.311.184.311.419,0,.273-.3.273-.159,0-.477-.032-.292-.025-.464-.032-.305-.013-.674-.013t-.68.013q-.813.013-1.964.089.585.35.585.585a.365.365,0,0,1-.076.21.824.824,0,0,0-.159.273,7.953,7.953,0,0,1-1.341,2.834,8.552,8.552,0,0,1-2.51,2.281.5.5,0,0,1-.241.076q-.146,0-.146-.159a.256.256,0,0,1,.127-.191,9.1,9.1,0,0,0,2.186-2.383,8.439,8.439,0,0,0,1.106-2.574,1.793,1.793,0,0,0,.051-.394A.657.657,0,0,0,84.591-10.07Zm13.161-1.087a2.845,2.845,0,0,0-.076-.82q-.1-.235-.642-.458-.114-.044-.114-.114,0-.089.127-.165a.49.49,0,0,1,.261-.07,2.035,2.035,0,0,1,.934.35q.5.292.5.559a.44.44,0,0,1-.14.305.693.693,0,0,0-.121.464Q98.4-8.577,98.4-7.039q0,.1.064.1a.53.53,0,0,0,.172-.051,19.463,19.463,0,0,0,4.633-2.923.347.347,0,0,1,.165-.089q.172,0,.172.159a.194.194,0,0,1-.064.14A17.765,17.765,0,0,1,99-6.2a.839.839,0,0,0-.273.273.29.29,0,0,1-.261.172q-.191,0-.534-.375a1.036,1.036,0,0,1-.311-.566.893.893,0,0,1,.064-.2,1.045,1.045,0,0,0,.057-.356Q97.752-8.526,97.752-11.157Zm-2.307.585a.5.5,0,0,0-.159-.394,1.886,1.886,0,0,0-.438-.273q-.172-.076-.172-.153a.175.175,0,0,1,.1-.14.368.368,0,0,1,.2-.057,1.968,1.968,0,0,1,1.042.407q.508.337.508.661a.391.391,0,0,1-.159.286.892.892,0,0,0-.229.47A8.626,8.626,0,0,1,94.873-7.2a8.2,8.2,0,0,1-2.1,2.021.435.435,0,0,1-.2.076q-.159,0-.159-.1a.235.235,0,0,1,.089-.184A9.071,9.071,0,0,0,94.289-7.5a8.716,8.716,0,0,0,1.029-2.326A3.64,3.64,0,0,0,95.445-10.572Zm15.321-.585a2.845,2.845,0,0,0-.076-.82q-.1-.235-.642-.458-.114-.044-.114-.114,0-.089.127-.165a.49.49,0,0,1,.261-.07,2.035,2.035,0,0,1,.934.35q.5.292.5.559a.44.44,0,0,1-.14.305.693.693,0,0,0-.121.464q-.076,2.529-.076,4.067,0,.1.064.1a.53.53,0,0,0,.172-.051,19.463,19.463,0,0,0,4.633-2.923.347.347,0,0,1,.165-.089q.172,0,.172.159a.194.194,0,0,1-.064.14,17.765,17.765,0,0,1-4.544,3.5.839.839,0,0,0-.273.273.29.29,0,0,1-.261.172q-.191,0-.534-.375a1.036,1.036,0,0,1-.311-.566.893.893,0,0,1,.064-.2,1.045,1.045,0,0,0,.057-.356Q110.766-8.526,110.766-11.157Zm-2.307.585a.5.5,0,0,0-.159-.394,1.886,1.886,0,0,0-.438-.273q-.172-.076-.172-.153a.175.175,0,0,1,.1-.14.368.368,0,0,1,.2-.057,1.968,1.968,0,0,1,1.042.407q.508.337.508.661a.391.391,0,0,1-.159.286.892.892,0,0,0-.229.47A8.625,8.625,0,0,1,107.888-7.2a8.2,8.2,0,0,1-2.1,2.021.435.435,0,0,1-.2.076q-.159,0-.159-.1a.235.235,0,0,1,.089-.184A9.071,9.071,0,0,0,107.3-7.5a8.716,8.716,0,0,0,1.029-2.326A3.64,3.64,0,0,0,108.46-10.572Zm20.354,1.506q0,.3-.445.3l-1.792-.051q-2.339,0-5.376.248a1.512,1.512,0,0,0-.7.172.73.73,0,0,1-.419.1q-.362,0-.807-.655a1.426,1.426,0,0,1-.311-.737q0-.21.1-.21t.235.172a1.12,1.12,0,0,0,.858.5q.655,0,1.8-.076,2.891-.184,4.671-.21a1.361,1.361,0,0,0,.674-.133.8.8,0,0,1,.394-.1,1.453,1.453,0,0,1,.5.127Q128.814-9.352,128.814-9.066ZM139.5-6.995a8.679,8.679,0,0,0-1.4-1.773.312.312,0,0,1-.114-.191q0-.146.159-.146a.394.394,0,0,1,.216.076,7.558,7.558,0,0,1,2.224,2.122,2.324,2.324,0,0,1,.458,1.239.431.431,0,0,1-.153.35.438.438,0,0,1-.292.108.446.446,0,0,1-.451-.35,6.206,6.206,0,0,0-.432-1q-2.9.559-6.31,1.08a1.139,1.139,0,0,0-.508.165.387.387,0,0,1-.286.133q-.273,0-.585-.521a1.517,1.517,0,0,1-.286-.794.406.406,0,0,1,.083-.241q.064-.1.114-.1.07,0,.14.14a.766.766,0,0,0,.68.432,4.615,4.615,0,0,0,.6-.038,57.985,57.985,0,0,0,2.529-5.675,1.8,1.8,0,0,0,.159-.547q0-.356-.61-.655-.14-.07-.14-.14,0-.184.4-.184a1.9,1.9,0,0,1,.979.311q.623.375.623.731a.371.371,0,0,1-.248.35,1.393,1.393,0,0,0-.438.61q-1.449,3.018-2.682,5.166Q136.408-6.537,139.5-6.995Zm12.246-4.722q.038-1,.038-2.173a10.278,10.278,0,0,0-.051-1.08,8.334,8.334,0,0,1,1.049.165q.216.07.216.184,0,.146-.407.311-.025,1.786-.076,2.593h1.417q.375-.432.47-.432t.547.407q.21.191.21.3,0,.127-.318.324a33.9,33.9,0,0,1-.464,5.834,2.708,2.708,0,0,1-.705,1.493,1.378,1.378,0,0,1-.858.261.319.319,0,0,1-.146-.019.206.206,0,0,1-.038-.108.625.625,0,0,0-.267-.47,2.827,2.827,0,0,0-.915-.35q-.051-.019-.051-.1,0-.1.064-.089a13.32,13.32,0,0,0,1.551.14q.254,0,.407-.343a4.66,4.66,0,0,0,.254-.921,34.149,34.149,0,0,0,.388-5.6H152.5a12.922,12.922,0,0,1-1.258,5.4,7.677,7.677,0,0,1-2.847,2.7.056.056,0,0,1-.025.006q-.114,0-.114-.121a.061.061,0,0,1,.019-.044,8.227,8.227,0,0,0,2.605-3.406,15.047,15.047,0,0,0,.839-4.537H151.3a5.243,5.243,0,0,0-1.01.089l-.121-.5a7.111,7.111,0,0,0,1.106.089ZM147.243-7.8v1.144h1.277q.451-.534.546-.534a2.5,2.5,0,0,1,.616.432q.235.184.235.311t-.172.114h-2.5v1.118q1.366-.184,2.408-.413.076-.013.076.1a.071.071,0,0,1-.038.07,28.945,28.945,0,0,1-5.446,1.322q-.114.419-.273.419-.108,0-.2-.235t-.286-.979q.248.019.47.019.114,0,.572-.013.953-.07,1.97-.2V-6.334h-1.722a5,5,0,0,0-.871.076l-.121-.477a6.025,6.025,0,0,0,.966.076H146.5V-7.8h-1.512v.1q0,.356-.432.356-.33,0-.33-.273l.038-2.084q0-1.29-.057-2.034a9.584,9.584,0,0,1,.871.432H146.5v-1.029h-1.97a5.008,5.008,0,0,0-.9.076l-.133-.489a5.675,5.675,0,0,0,1.017.089H146.5v-1.106a20.67,20.67,0,0,1-2.618.184q-.07,0-.07-.1,0-.083.057-.1a15.223,15.223,0,0,0,3.87-.845,4.686,4.686,0,0,0,1.093-.534q.839.629.839.794,0,.114-.172.114a1.442,1.442,0,0,1-.445-.1,18.674,18.674,0,0,1-1.811.464v1.226h1.608a3.226,3.226,0,0,1,.6-.61q.127,0,.655.47.254.229.254.337,0,.127-.172.127h-2.942V-11.3h1.5q.362-.394.458-.394a1.407,1.407,0,0,1,.483.311q.222.191.222.3t-.343.318v.845l.044,2.11q0,.337-.445.337a.368.368,0,0,1-.254-.064.3.3,0,0,1-.057-.21V-7.8Zm0-.324h1.608v-1.3h-1.608Zm0-1.627h1.608v-1.226h-1.608Zm-2.256,1.627H146.5v-1.3h-1.512Zm0-1.627H146.5v-1.226h-1.512Zm15.137,3.578v.508q0,.337-.483.337-.311,0-.311-.261l.051-3.9q0-1.9-.064-2.739a5.471,5.471,0,0,1,.909.458h1.709v-2.148h-4.194a6.214,6.214,0,0,0-1.068.076l-.127-.489a6.744,6.744,0,0,0,1.195.089h8.7q.655-.769.756-.769a3.562,3.562,0,0,1,.794.559q.362.292.362.419t-.172.114h-5.5v2.148h1.849q.375-.419.451-.419.114,0,.521.35.21.184.21.286,0,.146-.337.356v1.646l.064,3.826q0,.337-.5.337-.311,0-.311-.286v-.5Zm0-3.069h1.811v-2.205h-1.811Zm0,.324V-6.5h1.811V-8.92ZM164.629-6.5V-8.92h-1.951V-6.5Zm0-2.745v-2.205h-1.951v2.205Zm-6.73,4.88h9.03v-5.23q0-2.059-.064-2.593,1.3.14,1.3.35,0,.165-.445.343v2.6l.051,5.236q0,.35-.508.35-.337,0-.337-.3V-4.04H157.9v.388q0,.369-.508.369-.35,0-.35-.286l.064-5.192q0-2.8-.064-3.4a6.629,6.629,0,0,1,1.1.172q.191.064.191.178,0,.165-.432.343Zm15.893-7.308a12.3,12.3,0,0,1-1.252.108,1.83,1.83,0,0,1-.864-.172,1.649,1.649,0,0,1-.54-.534.377.377,0,0,1-.064-.178q0-.172.114-.172a.312.312,0,0,1,.21.121,1.275,1.275,0,0,0,.521.318,2.219,2.219,0,0,0,.572.057,7.275,7.275,0,0,0,1.614-.21,8.948,8.948,0,0,0,.394-.991,1.773,1.773,0,0,0,.089-.477q0-.356-.807-.356-.146,0-.146-.064,0-.1.146-.2a.913.913,0,0,1,.477-.114,1.871,1.871,0,0,1,.775.21q.572.267.572.585a.312.312,0,0,1-.159.286.993.993,0,0,0-.337.413q-.076.146-.3.559A6.4,6.4,0,0,0,176-12.968a1.5,1.5,0,0,1,.667-.235A.483.483,0,0,1,177-13.1a.29.29,0,0,1,.1.216.286.286,0,0,1-.1.235,1.053,1.053,0,0,1-.311.165,15.507,15.507,0,0,1-2.243.693q-.769,1.347-1.284,2.084l.025.025a2.613,2.613,0,0,1,1.589-.655q1.1,0,1.157,1.163.025.311.025.534,1.868-1.118,2.694-1.671a.27.27,0,0,0,.14-.222.209.209,0,0,0-.114-.165,1.062,1.062,0,0,0-.458-.159q-.114-.019-.114-.076,0-.1.178-.159a1.045,1.045,0,0,1,.343-.051,1.852,1.852,0,0,1,.96.311q.534.33.534.616a.251.251,0,0,1-.261.273,1.564,1.564,0,0,0-.388.1q-1.023.426-2.37,1.144-.2.114-.6.343t-.547.311l.013,1.875q0,.5-.356.5a.355.355,0,0,1-.261-.108.33.33,0,0,1-.1-.241q0-.216.019-.75t.025-.883a6.91,6.91,0,0,0-1.258.845,1.533,1.533,0,0,0-.553,1.106q0,.966,1.506.966a17.232,17.232,0,0,0,1.97-.1,6.718,6.718,0,0,0,.712-.133,2.609,2.609,0,0,1,.5-.076.939.939,0,0,1,.6.184.417.417,0,0,1,.2.337q0,.35-.756.419-.953.076-2.459.076-2.707,0-2.707-1.589a2.145,2.145,0,0,1,.756-1.576A9.523,9.523,0,0,1,175.3-8.259v-.547a1.582,1.582,0,0,0-.184-.94.535.535,0,0,0-.451-.2,2.568,2.568,0,0,0-1.659.858,10.27,10.27,0,0,0-1.169,1.4.391.391,0,0,1-.33.2.325.325,0,0,1-.254-.127.413.413,0,0,1-.1-.273,1.089,1.089,0,0,1,.375-.642,12.466,12.466,0,0,0,1.315-1.576A14.561,14.561,0,0,0,173.792-11.672Zm15.944,3.984v2.694q0,.438.21.534a3.688,3.688,0,0,0,1.118.1,9.725,9.725,0,0,0,1.5-.076.873.873,0,0,0,.515-.235,4.206,4.206,0,0,0,.547-1.474q.013-.044.076-.044.108,0,.108.076-.025.96-.025,1.118a.3.3,0,0,0,.2.324.313.313,0,0,1,.21.337q0,.362-.61.534a11.912,11.912,0,0,1-2.631.184,3.474,3.474,0,0,1-1.7-.267.933.933,0,0,1-.337-.839l.025-1.029V-7.687h-3.279v.324q0,.324-.521.324-.349,0-.35-.273l.064-3.978q0-2.758-.064-3.54a7.358,7.358,0,0,1,.985.5h5.109q.413-.432.489-.432a1.665,1.665,0,0,1,.547.369q.21.191.21.286,0,.14-.337.375v2.046l.064,4.226q0,.362-.5.362-.375,0-.375-.286v-.3Zm1.252-.324V-9.873h-5.325v1.862Zm0-2.186v-1.741h-5.325V-10.2Zm0-2.065V-14.01h-5.325v1.748Zm-8.28,8.941q-.1.019-.1-.114a.054.054,0,0,1,.038-.057,7.186,7.186,0,0,0,2.466-1.188,4.205,4.205,0,0,0,1.265-1.531,3.393,3.393,0,0,0,.318-1.252,9.5,9.5,0,0,1,1.023.267q.191.07.191.165,0,.146-.438.273Q186.623-3.925,182.708-3.322Zm19.884-1.551a2.5,2.5,0,0,0,1.347-.991,2.155,2.155,0,0,0,.426-1.246,2,2,0,0,0-.737-1.7,2.092,2.092,0,0,0-1.309-.413,4.6,4.6,0,0,0-3.082,1.341,8.788,8.788,0,0,0-.909,1.023.364.364,0,0,1-.311.146.42.42,0,0,1-.305-.133.381.381,0,0,1-.127-.286.806.806,0,0,1,.261-.5,67.5,67.5,0,0,0,4.722-5.522.2.2,0,0,0,.044-.1q0-.044-.064-.044a.314.314,0,0,0-.1.019q-1.068.356-2.1.75a1.252,1.252,0,0,0-.337.172.56.56,0,0,1-.324.172,1.011,1.011,0,0,1-.731-.458,1.3,1.3,0,0,1-.35-.782q0-.21.114-.21.1,0,.222.172a.841.841,0,0,0,.629.407,3.891,3.891,0,0,0,.737-.1q.559-.127,1.748-.477a.8.8,0,0,0,.324-.21.373.373,0,0,1,.273-.114,1.184,1.184,0,0,1,.635.286q.445.3.445.559,0,.21-.248.273a1.6,1.6,0,0,0-.648.458q-.1.1-3.349,3.724l.025.013a4.884,4.884,0,0,1,2.733-1,2.88,2.88,0,0,1,2.351.934,2.471,2.471,0,0,1,.566,1.633,2.659,2.659,0,0,1-1.233,2.3,3.938,3.938,0,0,1-2.294.68,3.338,3.338,0,0,1-1.881-.458,1.138,1.138,0,0,1-.566-.96.919.919,0,0,1,.388-.782,1.349,1.349,0,0,1,.832-.248,2.144,2.144,0,0,1,1.576.693A2.293,2.293,0,0,1,202.592-4.872Zm-.712.127a2.119,2.119,0,0,0-.705-1.042,1.355,1.355,0,0,0-.858-.375.709.709,0,0,0-.553.2.529.529,0,0,0-.146.381.741.741,0,0,0,.464.623,2.7,2.7,0,0,0,1.3.267A1.575,1.575,0,0,0,201.88-4.745Z" transform="translate(891.604 458.358)" fill="#1f306e"/>
    <rect id="長方形_3" data-name="長方形 3" width="320" height="107" transform="translate(834 360)" fill="none"/>
  </g>
</svg>
