<svg xmlns="http://www.w3.org/2000/svg" width="41.94633" height="24" viewBox="0 0 41.94633 24">
  <defs>
    <style>
      .cls-1 {
        fill: #040000;
      }

      .cls-2 {
        fill: #807f78;
      }
    </style>
  </defs>
  <g id="レイヤー_2" data-name="レイヤー 2">
    <g id="レイヤー_1-2" data-name="レイヤー 1">
      <g>
        <g>
          <path class="cls-1" d="M37.40731,21.72953A2.26951,2.26951,0,1,0,39.6757,19.4608a2.27159,2.27159,0,0,0-2.26839,2.26873m.26271.00087a2.00629,2.00629,0,1,1,2.00568,2.00527A2.00907,2.00907,0,0,1,37.67,21.7304Z"/>
          <path class="cls-1" d="M40.78049,23.19849h-.43558l-.88066-1.36295H39.0776v1.36295h-.34909V20.19978h.849a1.01751,1.01751,0,0,1,.67477.20692.70989.70989,0,0,1,.248.57726.73853.73853,0,0,1-.18018.48873.92943.92943,0,0,1-.49826.28944l.95865,1.43636M39.0776,21.53275h.43982a.66094.66094,0,0,0,.44965-.15008.48268.48268,0,0,0,.17182-.37786q0-.50179-.61224-.50136h-.449Z"/>
        </g>
        <g>
          <path class="cls-2" d="M9.17591,5.76291A19.54425,19.54425,0,0,1,18.154,3.6885a19.54705,19.54705,0,0,1,8.97733,2.07441A20.50723,20.50723,0,0,1,36.31751,3.689V0H0V3.68851A20.44217,20.44217,0,0,1,9.17591,5.76291Z"/>
          <path class="cls-2" d="M29.40079,7.07417c2.24461,1.50051,4.41436,3.77436,4.41436,6.64456a6.74509,6.74509,0,0,1-6.68381,6.69133,6.65457,6.65457,0,0,1-6.57619-6.69133c0-2.8702,2.063-5.144,4.30659-6.64456A17.35708,17.35708,0,0,0,18.154,5.76381a17.35946,17.35946,0,0,0-6.70836,1.31036c2.24465,1.50051,4.30641,3.77436,4.30641,6.64456a6.65426,6.65426,0,0,1-6.57615,6.69133,6.78764,6.78764,0,0,1-6.73347-6.69133c0-2.8702,2.22012-5.144,4.46387-6.64456A18.34756,18.34756,0,0,0,0,5.76384V23.70235H36.31751V5.76461A18.4134,18.4134,0,0,0,29.40079,7.07417Z"/>
          <path class="cls-2" d="M22.80875,13.66779a4.46849,4.46849,0,1,0,8.92845,0c0-2.43891-2.41307-4.38749-4.46413-5.55186C25.2227,9.2803,22.80875,11.22888,22.80875,13.66779Z"/>
          <path class="cls-2" d="M4.66007,13.72037a4.4693,4.4693,0,1,0,8.93008,0c0-2.43816-2.41483-4.38573-4.46461-5.551C7.07475,9.33464,4.66007,11.28221,4.66007,13.72037Z"/>
        </g>
      </g>
    </g>
  </g>
</svg>
