<svg xmlns="http://www.w3.org/2000/svg" width="9" height="11" viewBox="0 0 9 11">
  <defs>
    <style>
      .cls-1, .cls-2 {
        fill: #fff;
      }

      .cls-2 {
        opacity: 0.5;
      }
    </style>
  </defs>
  <g id="レイヤー_2" data-name="レイヤー 2">
    <g id="レイヤー_1-2" data-name="レイヤー 1">
      <g>
        <rect class="cls-1" x="4" y="1" width="1" height="10"/>
        <g>
          <g>
            <rect class="cls-1" x="3" y="1" width="1" height="1"/>
            <rect class="cls-1" x="2" y="2" width="1" height="1"/>
            <rect class="cls-1" x="1" y="3" width="1" height="1"/>
            <rect class="cls-1" y="4" width="1" height="1"/>
            <rect class="cls-2" x="3" y="2" width="1" height="1"/>
            <rect class="cls-2" x="2" y="3" width="1" height="1"/>
            <rect class="cls-2" x="1" y="4" width="1" height="1"/>
            <rect class="cls-2" y="5" width="1" height="1"/>
            <rect class="cls-1" x="5" y="1" width="1" height="1"/>
            <rect class="cls-1" x="6" y="2" width="1" height="1"/>
            <rect class="cls-1" x="7" y="3" width="1" height="1"/>
            <rect class="cls-1" x="8" y="4" width="1" height="1"/>
            <rect class="cls-2" x="5" y="2" width="1" height="1"/>
            <rect class="cls-2" x="6" y="3" width="1" height="1"/>
            <rect class="cls-2" x="7" y="4" width="1" height="1"/>
            <rect class="cls-2" x="8" y="5" width="1" height="1"/>
          </g>
          <rect class="cls-1" x="4" width="1" height="1"/>
        </g>
      </g>
    </g>
  </g>
</svg>
