<?xml version="1.0" encoding="utf-8"?>
<!-- Generator: Adobe Illustrator 26.3.1, SVG Export Plug-In . SVG Version: 6.00 Build 0)  -->
<svg version="1.1" id="レイヤー_1" xmlns="http://www.w3.org/2000/svg" xmlns:xlink="http://www.w3.org/1999/xlink" x="0px"
	 y="0px" viewBox="0 0 207.1 40" style="enable-background:new 0 0 207.1 40;" xml:space="preserve">
<style type="text/css">
	.st0{fill:#0B308E;}
</style>
<g>
	<path class="st0" d="M65.9,32.1c-8.7,0-14.9-4.3-14.9-12.3c0-7.9,6.3-12.4,14.9-12.4c1.6,0,3.2,0.2,4.4,0.3c1.6,0.3,2,0.4,2.2-0.1
		l0.2-0.4h0.9V14h-0.9L72,12c-0.5-1.9-3.3-3.1-6.3-3.1c-6.6,0-8.9,5.4-8.9,10.3c0,5.8,3.2,11.2,10,11.2c2.8,0,5.3-1,6.3-2.9l0.9-1.8
		l0.9,0.2L73.7,31C72,31.6,69,32.1,65.9,32.1"/>
	<path class="st0" d="M82.9,31.6V31l1.5-0.3c1.6-0.4,1.9-0.6,1.9-3.6V12.6c0-2.9-0.3-3.2-1.9-3.6l-1.5-0.3V8.1h12.1v0.6L93.6,9
		c-1.6,0.4-1.9,0.7-1.9,3.6v14.5c0,2.9,0.3,3.2,1.9,3.6l1.5,0.3v0.6H82.9"/>
	<path class="st0" d="M103.6,31.6V31l1.5-0.3c1.6-0.4,1.9-0.6,1.9-3.6V12.6c0-2.9-0.3-3.2-1.9-3.6l-1.5-0.3V8.1H123v4.8h-0.8
		l-0.5-1.6c-0.4-1.3-1.3-1.6-5.8-1.6h-3.6v8.7h3.6c3.7,0,4.2-0.1,4.6-1.3l0.4-1.3h0.7v7h-0.7l-0.5-1.5c-0.4-1.2-0.9-1.3-4.6-1.3
		h-3.6v6.4c0,3.3,0.5,3.6,2.2,3.6h2.4c4.1,0,5.3-0.5,6.1-2l0.9-1.6l0.8,0.2l-1.2,5H103.6"/>
	<path class="st0" d="M132.5,31.6V31l1.5-0.3c1.6-0.4,1.9-0.6,1.9-3.6V12.6c0-2.9-0.3-3.2-1.9-3.6l-1.5-0.3V8.1h12.9v0.6L143.3,9
		c-1.7,0.3-2,0.6-2,3.5v13.9c0,3.3,0.5,3.6,2.2,3.6h2c4.1,0,5.4-0.5,6.1-2l1-2.3l1,0.2l-1.3,5.7H132.5"/>
	<path class="st0" d="M160.5,31.6V31l1.5-0.3c1.6-0.4,1.9-0.6,1.9-3.6V12.6c0-2.9-0.3-3.2-1.9-3.6l-1.5-0.3V8.1h12.1v0.6L171.1,9
		c-1.6,0.4-1.9,0.7-1.9,3.6v14.5c0,2.9,0.3,3.2,1.9,3.6l1.5,0.3v0.6H160.5"/>
	<path class="st0" d="M195.3,31.6V31l1.7-0.3c1.5-0.3,1.8-0.8,0.7-3.6l-1.4-3.6h-9.7l-1.1,2.6c-1.5,3.4-1.3,4.2,0.4,4.6l1.6,0.3v0.6
		h-8.8V31l0.9-0.3c1.2-0.4,1.6-0.9,3-4l7.6-16.3c0.5-1.2,0.5-1.4,0-2.4l0.1-0.2h4.9l8.3,19.3c1.2,2.8,1.6,3.2,2.8,3.6l0.9,0.3v0.6
		H195.3 M192.9,15.1c-0.6-1.4-1.1-2.8-1.2-3.4h-0.1c-0.2,0.7-0.8,2.2-1.4,3.6l-2.9,6.6h8.3L192.9,15.1z"/>
	<path class="st0" d="M20,0C9,0,0,9,0,20s9,20,20,20c11,0,20-9,20-20S31,0,20,0 M31.1,32.5c-2.7,0.3-5.4,0.1-8-0.7
		c1.2-0.9,2.3-2,3.2-3.3c2.8,0.3,5.7,0.1,8.5-0.7C33.8,29.6,32.6,31.1,31.1,32.5z M21.9,36.6L21.9,36.6c-0.3,0-0.6,0.1-0.8,0.1
		l-0.2,0c-0.2,0-0.4,0-0.6,0l-0.3,0c-2.4,0-4.7-0.5-6.8-1.5l-0.1,0L12.8,35c0.2,0,1.5,0,3.3-0.2c1.3-0.3,2.7-0.7,3.9-1.3
		c1.3,0.5,2.6,1,3.9,1.3c1.9,0.3,3.3,0.2,3.3,0.2c-0.1,0.1-0.3,0.1-0.4,0.2l0,0C25.3,35.9,23.6,36.4,21.9,36.6z M5.2,27.8
		c2.7,0.8,5.6,1,8.4,0.7c0.8,1.2,1.9,2.3,3.2,3.3c-2.5,0.8-5.3,1-7.9,0.7C7.4,31.2,6.2,29.6,5.2,27.8z M3.3,20
		c0-1.6,0.2-3.1,0.6-4.5c2.6-1.1,5.6-1.6,8.5-1.4c-0.6,2-0.5,4,0.3,5.9c-0.7,1.9-0.8,4-0.3,5.9c-2.9,0.2-5.8-0.3-8.5-1.4
		C3.5,23.1,3.3,21.6,3.3,20z M8.9,7.5c2.7-0.3,5.4-0.1,7.9,0.7c-1.4,1-2.4,2.1-3.2,3.3c-2.8-0.3-5.7-0.1-8.4,0.7
		C6.2,10.4,7.4,8.8,8.9,7.5z M13.1,4.8l0.1-0.1l0,0c0.4-0.2,0.8-0.3,1.2-0.5l0.1,0C14.8,4.1,15,4.1,15.2,4l0.3-0.1
		c0.2,0,0.3-0.1,0.5-0.1c0.1,0,0.3-0.1,0.4-0.1c0.1,0,0.3-0.1,0.4-0.1c0.2,0,0.3-0.1,0.5-0.1c0.1,0,0.2,0,0.4-0.1
		c0.2,0,0.4,0,0.5-0.1l0.3,0c0.2,0,0.4,0,0.6,0l0.2,0c0.2,0,0.4,0,0.6,0c0.2,0,0.3,0,0.5,0c0.1,0,0.3,0,0.4,0c0.2,0,0.4,0,0.6,0
		l0.3,0c0.2,0,0.4,0.1,0.7,0.1l0.2,0c0.2,0,0.5,0.1,0.7,0.1l0.1,0c0.2,0,0.5,0.1,0.7,0.2l0.1,0c0.2,0.1,0.4,0.1,0.6,0.2l0.3,0.1
		c0.1,0,0.3,0.1,0.4,0.1c0.4,0.1,0.8,0.3,1.2,0.5l0,0c0.1,0.1,0.3,0.1,0.4,0.2c0,0-1.4-0.1-3.3,0.2c-1.3,0.3-2.7,0.7-3.9,1.3
		c-1.3-0.5-2.6-1-3.9-1.3c-1.7-0.3-3.1-0.3-3.3-0.2L13.1,4.8z M34.7,12.2c-2.7-0.8-5.6-1-8.5-0.7c-0.8-1.3-2-2.4-3.2-3.3
		c2.6-0.8,5.3-1,8-0.7C32.6,8.8,33.8,10.4,34.7,12.2z M25.2,16.7L25.2,16.7c-0.6-0.6-1.4-1.3-2.2-1.8c0.6-0.2,1.1-0.3,1.7-0.4
		C25.1,15.1,25.2,15.9,25.2,16.7z M25.2,23.3c0,0.8-0.2,1.5-0.4,2.2c-0.6-0.1-1.2-0.3-1.7-0.4C23.9,24.6,24.6,23.9,25.2,23.3
		L25.2,23.3z M20.5,30.3c-0.2,0.1-0.3,0.2-0.5,0.3c-0.2-0.1-0.3-0.2-0.5-0.2c-1.2-0.7-2.1-1.5-2.9-2.3c1.1-0.3,2.3-0.7,3.3-1.1
		c1.1,0.5,2.2,0.9,3.3,1.1C22.5,28.9,21.5,29.7,20.5,30.3z M14.7,23.3c0.6,0.7,1.3,1.3,2.1,1.9c-0.6,0.2-1.1,0.3-1.7,0.4
		C14.9,24.8,14.7,24,14.7,23.3z M15.1,14.4c0.6,0.1,1.1,0.3,1.7,0.4c-0.8,0.6-1.5,1.2-2.1,1.9C14.7,15.9,14.9,15.2,15.1,14.4z
		 M19.5,9.7c0.1-0.1,0.3-0.2,0.5-0.2c0.2,0.1,0.3,0.2,0.5,0.3c1,0.6,2,1.4,2.8,2.3c-1.1,0.3-2.2,0.7-3.3,1.1
		c-1.1-0.5-2.2-0.9-3.3-1.1C17.4,11.1,18.3,10.3,19.5,9.7z M20.5,16.4c1.5,0.9,2.9,2.1,3.8,3.6c-0.9,1.5-2.3,2.8-3.8,3.6
		c-0.2,0.1-0.3,0.2-0.5,0.3c-0.2-0.1-0.3-0.2-0.5-0.2c-1.8-1-3.1-2.3-3.9-3.7c0.8-1.4,2.1-2.6,3.9-3.7c0.1-0.1,0.3-0.2,0.5-0.2
		C20.1,16.2,20.3,16.3,20.5,16.4z M27.6,25.9c0.3-0.8,0.4-1.7,0.4-2.6c0-1.2-0.2-2.3-0.7-3.3c0.4-1,0.7-2.2,0.7-3.3
		c0-0.9-0.1-1.8-0.4-2.6c2.9-0.2,5.9,0.3,8.5,1.4c0.4,1.4,0.6,2.9,0.6,4.5c0,1.6-0.2,3.1-0.6,4.5C33.4,25.6,30.5,26.1,27.6,25.9z"/>
</g>
</svg>
