<svg xmlns="http://www.w3.org/2000/svg" viewBox="0 0 41.85 42.78"><defs><style>.cls-1{fill:#888484;}</style></defs><title>アセット 3</title><g id="レイヤー_2" data-name="レイヤー 2"><g id="レイヤー_1-2" data-name="レイヤー 1"><path class="cls-1" d="M37.75.36A2.19,2.19,0,0,0,37,3.07a1.82,1.82,0,0,0,1.81,1,1.49,1.49,0,0,0,1-.62,1.35,1.35,0,0,0,.27-1,1.33,1.33,0,0,0-.72-.92,1.18,1.18,0,0,0-1.07,0,.2.2,0,0,0-.07.27.19.19,0,0,0,.26.07.77.77,0,0,1,.71,0,.87.87,0,0,1,.5.63,1,1,0,0,1-.19.72,1.12,1.12,0,0,1-.73.46,1.43,1.43,0,0,1-1.41-.8A1.8,1.8,0,0,1,38,.69a2.14,2.14,0,0,1,2.39.14,2.57,2.57,0,0,1,.93,2.31A3.33,3.33,0,0,1,40,5.35a6.62,6.62,0,0,1-.71.46,5.33,5.33,0,0,0-1.08.77,3,3,0,0,0-.09,3.95,5.27,5.27,0,0,0,1,.81l.17.12c0,1.27.05,2.53.08,3.78a3.65,3.65,0,0,0-.78,1.35,1.81,1.81,0,0,0,.23,1.4,1.18,1.18,0,0,0,.64.49c.17,6.63.32,12.93-.06,19.53a4.17,4.17,0,0,1-1.6,2c-6.52.36-12.76.22-19.32,0a1.16,1.16,0,0,0-.49-.63,1.73,1.73,0,0,0-1.4-.23,3.65,3.65,0,0,0-1.35.78l-3.78-.09-.12-.17a5.52,5.52,0,0,0-.81-1,3,3,0,0,0-3.95.09,5.27,5.27,0,0,0-.77,1.07,6.62,6.62,0,0,1-.46.71,3.3,3.3,0,0,1-2.21,1.31A2.6,2.6,0,0,1,.83,40.9a2.15,2.15,0,0,1-.14-2.4,1.83,1.83,0,0,1,2.21-.66,1.44,1.44,0,0,1,.8,1.41,1.14,1.14,0,0,1-.46.74,1,1,0,0,1-.72.19.89.89,0,0,1-.63-.51.75.75,0,0,1,0-.7.2.2,0,0,0-.07-.27.2.2,0,0,0-.27.08,1.16,1.16,0,0,0,0,1.06,1.3,1.3,0,0,0,.92.72,1.35,1.35,0,0,0,1-.26,1.54,1.54,0,0,0,.62-1,1.81,1.81,0,0,0-1-1.81,2.19,2.19,0,0,0-2.71.79,2.54,2.54,0,0,0,.16,2.85,3,3,0,0,0,2.66,1.08,3.71,3.71,0,0,0,2.48-1.46l.28-.42.07,0c1.8,0,3.6,0,5.39,0a2.4,2.4,0,0,0,1.45,1A2.66,2.66,0,0,0,15,40.65l.19-.15,2.51.06c6.83.19,13.29.36,20.07,0a4.13,4.13,0,0,1,1.7,2.07.3.3,0,0,0,.54,0,4.07,4.07,0,0,1,1.73-2.08.3.3,0,0,0,0-.52A4,4,0,0,1,40,38c.18-3,.24-6,.24-8.95,0-3.75-.1-7.49-.2-11.35C40,16.84,40,16,40,15.15L40.1,15a2.62,2.62,0,0,0,.78-2.11,2.38,2.38,0,0,0-1-1.45c0-1.78-.06-3.58-.06-5.38,0,0,0,0,0-.08s.28-.18.41-.28a3.67,3.67,0,0,0,1.46-2.48c0-.11,0-.22,0-.33A3,3,0,0,0,40.59.52,2.53,2.53,0,0,0,37.75.36ZM16.69,39.51a1.43,1.43,0,0,1,1.09.18.91.91,0,0,1,.28.3h-.38l-1.83,0A2.76,2.76,0,0,1,16.69,39.51Zm-6.42-.58a5.14,5.14,0,0,1,.71.89c-1.55,0-3.12,0-4.69,0A4.39,4.39,0,0,1,6.86,39,2.55,2.55,0,0,1,10.27,38.93Zm2.65,2.12a1.82,1.82,0,0,1-1-.63l2.63.06A2.13,2.13,0,0,1,12.92,41.05ZM41,40.27a4.72,4.72,0,0,0-1.32,1.55,4.58,4.58,0,0,0-1.31-1.55,4.58,4.58,0,0,0,1.31-1.55A4.72,4.72,0,0,0,41,40.27Zm-2.63-30a2.54,2.54,0,0,1,.08-3.41,4,4,0,0,1,.76-.57c0,1.57,0,3.14.05,4.69A4.48,4.48,0,0,1,38.39,10.27Zm1,7.42c0,.12,0,.24,0,.37a1.07,1.07,0,0,1-.31-.28A1.38,1.38,0,0,1,39,16.69a2.55,2.55,0,0,1,.42-.84C39.4,16.47,39.42,17.08,39.44,17.69Zm1.06-4.77a2.15,2.15,0,0,1-.56,1.63q0-1.32-.06-2.64A1.85,1.85,0,0,1,40.5,12.92Z"/></g></g></svg>