<svg xmlns="http://www.w3.org/2000/svg" viewBox="0 0 41.85 42.78"><defs><style>.cls-1{fill:#888484;}</style></defs><title>アセット 5</title><g id="レイヤー_2" data-name="レイヤー 2"><g id="レイヤー_1-2" data-name="レイヤー 1"><path class="cls-1" d="M4.11,42.42a2.18,2.18,0,0,0,.79-2.7,1.78,1.78,0,0,0-1.81-1,1.53,1.53,0,0,0-1,.61,1.35,1.35,0,0,0-.26,1,1.28,1.28,0,0,0,.72.92,1.13,1.13,0,0,0,1.06,0A.19.19,0,0,0,3.7,41a.2.2,0,0,0-.27-.08.75.75,0,0,1-.7,0,.89.89,0,0,1-.51-.63,1,1,0,0,1,.19-.72,1.14,1.14,0,0,1,.74-.46,1.44,1.44,0,0,1,1.41.81,1.81,1.81,0,0,1-.66,2.2A2.12,2.12,0,0,1,1.5,42a2.59,2.59,0,0,1-.93-2.31,3.32,3.32,0,0,1,1.31-2.21c.22-.17.47-.31.71-.46a5.27,5.27,0,0,0,1.07-.77,3,3,0,0,0,.09-4,5.52,5.52,0,0,0-1-.81l-.17-.12-.09-3.77a3.82,3.82,0,0,0,.78-1.35A1.75,1.75,0,0,0,3,24.79a1.2,1.2,0,0,0-.63-.49c-.18-6.62-.33-12.93.05-19.52A4.09,4.09,0,0,1,4.06,2.83c6.52-.37,12.76-.23,19.32-.05a1.19,1.19,0,0,0,.48.64,1.78,1.78,0,0,0,1.41.22,3.57,3.57,0,0,0,1.35-.77L30.4,3c0,.06.08.11.11.17a5.61,5.61,0,0,0,.81,1,2.94,2.94,0,0,0,4-.09A5.27,5.27,0,0,0,36,3c.15-.24.3-.49.46-.71A3.32,3.32,0,0,1,38.72,1a2.61,2.61,0,0,1,2.3.93,2.14,2.14,0,0,1,.15,2.4A1.82,1.82,0,0,1,39,4.94a1.43,1.43,0,0,1-.81-1.41,1.12,1.12,0,0,1,.46-.73.93.93,0,0,1,.72-.2.91.91,0,0,1,.63.51.77.77,0,0,1,0,.71.19.19,0,0,0,.08.26A.19.19,0,0,0,40.31,4a1.13,1.13,0,0,0,0-1.07,1.26,1.26,0,0,0-.92-.72,1.35,1.35,0,0,0-1,.26,1.52,1.52,0,0,0-.61,1,1.8,1.8,0,0,0,1,1.81,2.19,2.19,0,0,0,2.7-.8,2.53,2.53,0,0,0-.16-2.84A3,3,0,0,0,38.67.57,3.63,3.63,0,0,0,36.19,2c-.1.13-.19.27-.28.41h-.06c-1.81,0-3.61,0-5.39-.06a2.5,2.5,0,0,0-1.45-1,2.69,2.69,0,0,0-2.12.78l-.18.16-2.52-.07C17.36,2,10.9,1.87,4.13,2.24A4,4,0,0,1,2.42.18.28.28,0,0,0,2.15,0a.28.28,0,0,0-.26.18A4.16,4.16,0,0,1,.16,2.26.28.28,0,0,0,0,2.51a.29.29,0,0,0,.16.26,4.06,4.06,0,0,1,1.71,2c-.17,3-.24,6-.24,9,0,3.75.1,7.49.21,11.35l.06,2.53-.15.18A2.69,2.69,0,0,0,1,29.94a2.41,2.41,0,0,0,1,1.44C2,33.17,2,35,2,36.77a.19.19,0,0,0,0,.07l-.42.28A3.71,3.71,0,0,0,.18,39.6c0,.11,0,.22,0,.33a3,3,0,0,0,1.09,2.33A2.54,2.54,0,0,0,4.11,42.42ZM25.17,3.27a1.35,1.35,0,0,1-1.09-.18.74.74,0,0,1-.28-.3h.38L26,2.85A2.5,2.5,0,0,1,25.17,3.27Zm6.41.58A4.87,4.87,0,0,1,30.87,3c1.56,0,3.12,0,4.7,0a4.44,4.44,0,0,1-.57.76A2.57,2.57,0,0,1,31.58,3.85ZM28.94,1.73a1.82,1.82,0,0,1,1,.63L27.31,2.3A2.2,2.2,0,0,1,28.94,1.73ZM.84,2.51A4.58,4.58,0,0,0,2.15,1,4.72,4.72,0,0,0,3.47,2.51,4.72,4.72,0,0,0,2.15,4.06,4.58,4.58,0,0,0,.84,2.51Zm2.63,30a2.57,2.57,0,0,1-.08,3.42,4.34,4.34,0,0,1-.77.56c0-1.57,0-3.13,0-4.69A5.66,5.66,0,0,1,3.47,32.51ZM2.42,25.1c0-.13,0-.25,0-.37a.8.8,0,0,1,.3.27,1.46,1.46,0,0,1,.18,1.1,2.71,2.71,0,0,1-.42.83C2.45,26.32,2.43,25.7,2.42,25.1ZM1.35,29.87a2.15,2.15,0,0,1,.57-1.63L2,30.87A1.8,1.8,0,0,1,1.35,29.87Z"/></g></g></svg>