<svg xmlns="http://www.w3.org/2000/svg" viewBox="0 0 42.78 41.85"><defs><style>.cls-1{fill:#888484;}</style></defs><title>アセット 2</title><g id="レイヤー_2" data-name="レイヤー 2"><g id="レイヤー_1-2" data-name="レイヤー 1"><path class="cls-1" d="M42.42,37.75a2.18,2.18,0,0,0-2.7-.8,1.79,1.79,0,0,0-1,1.81,1.48,1.48,0,0,0,.61,1,1.36,1.36,0,0,0,1,.27,1.31,1.31,0,0,0,.92-.72,1.15,1.15,0,0,0,0-1.07.18.18,0,0,0-.26-.07.19.19,0,0,0-.08.26.77.77,0,0,1,0,.71.87.87,0,0,1-.63.5,1,1,0,0,1-.72-.19,1.12,1.12,0,0,1-.46-.73,1.43,1.43,0,0,1,.81-1.41,1.79,1.79,0,0,1,2.2.66A2.1,2.1,0,0,1,42,40.35a2.56,2.56,0,0,1-2.31.93A3.35,3.35,0,0,1,37.43,40c-.17-.22-.31-.47-.46-.71a5.33,5.33,0,0,0-.77-1.08,3,3,0,0,0-4-.09,5.27,5.27,0,0,0-.81,1l-.12.17-3.77.08a3.82,3.82,0,0,0-1.35-.78,1.83,1.83,0,0,0-1.41.23,1.22,1.22,0,0,0-.49.64c-6.62.17-12.93.32-19.52-.06a4.08,4.08,0,0,1-1.95-1.6C2.46,31.28,2.6,25,2.78,18.48A1.21,1.21,0,0,0,3.42,18a1.76,1.76,0,0,0,.22-1.4,3.5,3.5,0,0,0-.77-1.35c0-1.25.06-2.51.08-3.78l.17-.12a5.21,5.21,0,0,0,1-.81A2.94,2.94,0,0,0,4,6.58,5.27,5.27,0,0,0,3,5.81a6.62,6.62,0,0,1-.71-.46A3.3,3.3,0,0,1,1,3.14,2.62,2.62,0,0,1,1.88.83,2.15,2.15,0,0,1,4.28.69,1.81,1.81,0,0,1,4.94,2.9a1.43,1.43,0,0,1-1.41.8,1.12,1.12,0,0,1-.73-.46.93.93,0,0,1-.2-.72.91.91,0,0,1,.51-.63.77.77,0,0,1,.71,0,.19.19,0,0,0,.26-.07A.21.21,0,0,0,4,1.54a1.19,1.19,0,0,0-1.07,0,1.3,1.3,0,0,0-.72.92,1.35,1.35,0,0,0,.26,1,1.54,1.54,0,0,0,1,.62,1.82,1.82,0,0,0,1.81-1A2.2,2.2,0,0,0,4.49.36,2.53,2.53,0,0,0,1.65.52,3,3,0,0,0,.57,3.18,3.63,3.63,0,0,0,2,5.66c.13.1.27.19.41.28s0,0,0,.07c0,1.8,0,3.6-.06,5.39a2.44,2.44,0,0,0-1,1.45A2.66,2.66,0,0,0,2.13,15l.16.19c0,.84,0,1.68-.07,2.51C2,24.49,1.87,31,2.24,37.73a4.06,4.06,0,0,1-2.06,1.7.29.29,0,0,0,0,.54A4.11,4.11,0,0,1,2.26,41.7a.29.29,0,0,0,.25.15.3.3,0,0,0,.26-.15,4.08,4.08,0,0,1,2-1.72c3,.18,6,.24,9,.24,3.75,0,7.49-.1,11.35-.2L27.64,40l.18.15a2.65,2.65,0,0,0,2.12.78,2.38,2.38,0,0,0,1.44-1c1.79,0,3.58-.06,5.39-.06h.07c.09.14.18.28.28.41a3.67,3.67,0,0,0,2.48,1.46l.33,0a3,3,0,0,0,2.33-1.1A2.53,2.53,0,0,0,42.42,37.75ZM3.27,16.69a1.35,1.35,0,0,1-.18,1.09.91.91,0,0,1-.3.28v-.38c0-.61,0-1.22.05-1.83A2.55,2.55,0,0,1,3.27,16.69Zm.58-6.42A4.48,4.48,0,0,1,3,11C3,9.43,3,7.86,3,6.29a4,4,0,0,1,.76.57A2.55,2.55,0,0,1,3.85,10.27ZM1.73,12.92a1.88,1.88,0,0,1,.63-1L2.3,14.54A2.17,2.17,0,0,1,1.73,12.92ZM2.51,41A4.72,4.72,0,0,0,1,39.7a4.58,4.58,0,0,0,1.55-1.31A4.58,4.58,0,0,0,4.06,39.7,4.72,4.72,0,0,0,2.51,41Zm30-2.63a2.56,2.56,0,0,1,3.42.08,3.93,3.93,0,0,1,.56.76c-1.57,0-3.13,0-4.69.05A4.87,4.87,0,0,1,32.51,38.39Zm-7.41,1h-.37a.93.93,0,0,1,.27-.31A1.41,1.41,0,0,1,26.1,39a2.5,2.5,0,0,1,.83.42Zm4.77,1.06a2.14,2.14,0,0,1-1.63-.56c.87,0,1.75,0,2.63-.06A1.83,1.83,0,0,1,29.87,40.5Z"/></g></g></svg>