<svg xmlns="http://www.w3.org/2000/svg" xmlns:xlink="http://www.w3.org/1999/xlink" viewBox="0 0 45.44 59.35"><defs><style>.cls-1{fill:url(#名称未設定グラデーション_23);}.cls-2{fill:url(#名称未設定グラデーション_23-2);}.cls-3{fill:url(#名称未設定グラデーション_23-3);}.cls-4{fill:url(#名称未設定グラデーション_23-4);}</style><linearGradient id="名称未設定グラデーション_23" x1="-7.17" y1="13.09" x2="53.17" y2="13.09" gradientUnits="userSpaceOnUse"><stop offset="0" stop-color="#0075b6"/><stop offset="1" stop-color="#181878"/></linearGradient><linearGradient id="名称未設定グラデーション_23-2" x1="-7.17" y1="33.77" x2="53.17" y2="33.77" xlink:href="#名称未設定グラデーション_23"/><linearGradient id="名称未設定グラデーション_23-3" x1="-7.17" y1="49.98" x2="53.17" y2="49.98" xlink:href="#名称未設定グラデーション_23"/><linearGradient id="名称未設定グラデーション_23-4" x1="-7.17" y1="26.11" x2="53.17" y2="26.11" xlink:href="#名称未設定グラデーション_23"/></defs><title>アセット 13</title><g id="レイヤー_2" data-name="レイヤー 2"><g id="レイヤー_1-2" data-name="レイヤー 1"><path class="cls-1" d="M43,8.72c-.69,1-1.36,2.09-2.06,3.11-.87,1.28-1.75,2.54-2.7,3.75S36.37,18,35.42,19.22c-.79,1-1.63,2-2.45,3s-1.6,1.9-2.42,2.85a.81.81,0,0,0-.12.39h-.09a.27.27,0,0,0-.19-.27l-.68-.46c-.41-.55-1.09-.77-1.56-1.26-.05-.05-.15-.06-.18,0-.13.24-.39.4-.46.77l.27-.2.13.09c-.18.23-.06.38.12.52l.57.44-.06.07a1.13,1.13,0,0,0-1.36,1c-.31,0-.48-.26-.7-.42-.8-.61-1.58-1.23-2.38-1.83-.1-.08-.22-.32-.4-.08l0,0s.12,0,.07-.09c-.59-.8-.6-.94,0-1.74a.76.76,0,0,0,.2-.53l2,1.58c.4.32.44-.13.61-.28s.19-.37-.05-.54c-.53-.4-1-.82-1.58-1.21a1.09,1.09,0,0,0-.72-.27c.39-.08.58-.38.78-.69.84-1.26,1.71-2.49,2.58-3.72q1.44-2.07,3-4.09c1.67-2.23,3.42-4.41,5.29-6.49.43-.48.88-1,1.3-1.44.14-.16.23-.19.39-.06l1,.82c-1,.92-2.27,1.55-3.29,2.46a29.87,29.87,0,0,0-3.88,4.37c-1.22,1.58-2.32,3.25-3.44,4.9a9.52,9.52,0,0,0-1.24,2.25,1.65,1.65,0,0,0-.11.73.75.75,0,0,0,1.25.58,2.26,2.26,0,0,0,.87-2.2,1.47,1.47,0,0,1,.29-1c1-1.45,1.92-2.94,3-4.36a27.14,27.14,0,0,1,3.48-4,12.74,12.74,0,0,1,3.07-2.29,2.56,2.56,0,0,0,.47-.41c.18-.17.26-.41.62-.37s.47-.38.46-.57c0-.4.27-.62.4-.92,0-.09.15-.18,0-.27a.25.25,0,0,0-.24,0c-1.06.85-1.56-.27-2.26-.58a23.31,23.31,0,0,1,4-3l0,0a1.46,1.46,0,0,0,.3-.07,2.12,2.12,0,0,1,2.53.17,2,2,0,0,1,.14,1.72,9.36,9.36,0,0,1-.75,1.68c-.45.83-.92,1.65-1.4,2.46-.14.25-.06.37.13.51s.34,0,.44-.15.15-.24.22-.36c.88-1.5,1.83-3,1.69-4.82,0-.14,0-.2.18-.19A4.32,4.32,0,0,1,45.38,3s0,0,0,.06c0,.19-.18.36-.13.57v.11A22,22,0,0,1,43.7,7.34a.38.38,0,0,0,0,.44l0,.22-.12-.11c0-.18-.17-.23-.3-.31a.63.63,0,0,0-.3-.28l-.3-.23-.33-.21a2.12,2.12,0,0,1-.39-.34c-.27-.37-.53-.34-.79,0-.27-.2.21-.32,0-.5-.52.44-.59.64-.26.81a.3.3,0,0,0,.13.27l1.38,1,.28.18C42.75,8.47,43.08,8.45,43,8.72Zm-1-.41a.74.74,0,0,0-.38-.38c-.22-.14-.31.08-.42.2-.88,1.11-1.76,2.23-2.65,3.34l-4.57,5.66c-1.67,2.07-3.36,4.14-5.1,6.17-.11.13-.33.3-.05.47s.36.49.69.12c1.35-1.51,2.73-3,4.06-4.49.91-1,1.78-2.09,2.63-3.16S38,14,38.8,12.82s1.86-2.6,2.79-3.9C41.73,8.72,41.84,8.5,42,8.31Z"/><path class="cls-2" d="M13.37,36c.71-1,1.44-2,2.15-3,.93-1.33,1.89-2.65,2.92-3.91s1.87-2.36,2.81-3.54l1.08-1.36a.86.86,0,0,1,1.15-.3l0,0c.88.68,1.74,1.39,2.64,2A7.4,7.4,0,0,0,27.69,27h0a1.07,1.07,0,0,1-.19,1.32c-1.18,1.61-2.3,3.27-3.49,4.88s-2.4,3.11-3.67,4.61-2.6,3.14-3.89,4.71c-.27.32-.54.64-.8,1a.83.83,0,0,1-.71.28c-.47-.3-.95-.58-1.41-.88a31.91,31.91,0,0,1-2.73-2.19.93.93,0,0,1-.1-1,5.88,5.88,0,0,0,.86-1.17,17.67,17.67,0,0,0,1.44-2A1,1,0,0,0,13.37,36Zm13-9.4c-.28.34-.58.69-.86,1.05-1.28,1.65-2.54,3.32-3.83,5s-2.43,3-3.63,4.51c-1.36,1.7-2.7,3.42-4.2,5-.19.19-.39.34-.05.61s.46.19.67-.08q.81-1,1.65-1.92c1.91-2.16,3.79-4.33,5.55-6.61s3.22-4.43,4.87-6.62C26.85,27.07,26.87,26.83,26.34,26.61Z"/><path class="cls-3" d="M5.81,54.2l-.15-.1c-.08-.05-.16-.2-.25-.11s0,.16.11.23c.33.39.06.7-.14,1a1.32,1.32,0,0,1-.65.42,9.27,9.27,0,0,0-3.08,2A3.48,3.48,0,0,0,.72,59c-.09.29-.25.44-.54.33S0,59,.07,58.78c.39-1.09.76-2.18,1.17-3.27A12.57,12.57,0,0,1,3,52.31l.07.07-.1.23-.07.13A14.48,14.48,0,0,0,1.4,55.5c.47.09.45-.39.55-.43.63-.25.64-.69.52-1.23,0-.06.07-.15.11-.23.15-.26.3-.51.44-.77l.07-.14.8-1.15c-.3,0-.35.22-.48.3l-.06-.06c.23-.43.23-.43.49-.47,0,.06-.1.27.06.17a.65.65,0,0,0,.33-.61c.09,0,.1,0,.1-.11.15-.06.08-.17.06-.27l.08,0v0H4.39l0,.28c-.09,0-.1,0-.11.1-.22.08-.22.35-.41.46,0-.62.53-1,.83-1.44s.64-.91,1-1.36c.13-.17.15-.26,0-.42a1.89,1.89,0,0,1-.38-.5.33.33,0,0,1,.14-.53,6.05,6.05,0,0,0,2.1-2.44c.81-1.2,1.58-2.44,2.38-3.65.19-.29.44-.66.81-.14A12,12,0,0,0,14.8,44c.31.14.2.31,0,.49l-1.62,1.86c-.92,1-1.86,2-2.71,3.13a2.22,2.22,0,0,0-.4.85c-.18.66-.33.73-1,.42-.25-.11-.48-.22-.69,0a1.09,1.09,0,0,0-.87-.38l.76.49c0,.2,0,.38-.29.39l-.26-.16c-.08-.07-.15-.26-.26-.14s.06.19.16.24l.26.17c.11.24-.1.28-.24.36s-.31-.16-.18.13a.25.25,0,0,1-.09.31c-.13.13-.21,0-.3-.09a1.09,1.09,0,0,0-.78-.33,7.23,7.23,0,0,0,.59.45c.15.12.32.22.21.46l-.1.09c-.32-.11-.54-.43-.91-.44a2,2,0,0,0,.72.56c-.08.18-.1.44-.41.31,0-.08-.11-.15-.2-.11s0,.11,0,.16a.3.3,0,0,1,.06.49c-.31,0-.49-.42-.86-.39.06.26.29.29.44.39C6.26,54,6.1,54.1,5.81,54.2Zm.27-1.14c.06,0,.11.16.2.06s0-.12-.1-.17-.13-.13-.2,0S6,53,6.08,53.06Zm7.36-9.22c0-.2-.18-.26-.32-.32a.39.39,0,0,0-.52.09c-.78,1-1.54,2.09-2.34,3.11a14.83,14.83,0,0,1-1.87,2.64.24.24,0,0,0,0,.41c.17.13.3.08.43-.11a18.7,18.7,0,0,1,1.25-1.93c1-1.27,2.09-2.5,3.21-3.69C13.35,44,13.39,43.9,13.44,43.84Zm-6,7,0,0-.07,0,0,0A.15.15,0,0,0,7.4,50.83Zm-1.48,2s0,0,0,0l-.07,0s0,0,0,0Z"/><path class="cls-4" d="M30.11,26.16a.89.89,0,0,0-1,.51c-.36.63-.9.54-1.45.34h0c-.08-.36-.48-.44-.64-.73a1.91,1.91,0,0,0,1.25-1.15l.06-.07.71.45h0a1.24,1.24,0,0,0,.51.43A.34.34,0,0,0,30,26Z"/></g></g></svg>