<svg xmlns="http://www.w3.org/2000/svg" xmlns:xlink="http://www.w3.org/1999/xlink" viewBox="0 0 322.82 66.92"><defs><style>.cls-1{fill:#231815;}.cls-2{fill:#0080c7;}.cls-3{fill:#0068b2;}.cls-4{fill:url(#linear-gradient);}</style><linearGradient id="linear-gradient" x1="33.75" y1="0.9" x2="35.49" y2="67.5" gradientUnits="userSpaceOnUse"><stop offset="0" stop-color="#c2e3f5"/><stop offset="0.5" stop-color="#7dc8ef"/><stop offset="0.52" stop-color="#75c2eb"/><stop offset="0.68" stop-color="#439bd3"/><stop offset="0.82" stop-color="#1e7fc1"/><stop offset="0.93" stop-color="#086eb6"/><stop offset="1" stop-color="#0068b2"/></linearGradient></defs><title>アセット 8</title><g id="レイヤー_2" data-name="レイヤー 2"><g id="レイヤー_1-2" data-name="レイヤー 1"><path class="cls-1" d="M94,51.79l-.21-.1H90.06l-1.25,2H85.43l-1.25-2H80.47l-.21.1,1.19,1.93H78.79V56.8h6.46v1.76H78.79v3.08h4.72a29,29,0,0,1-5,5.07h5A34.77,34.77,0,0,0,87,62.58a34.55,34.55,0,0,0,3.53,4.07h5a28.68,28.68,0,0,1-5-5h5V58.56H88.77V56.8h6.78V53.72H92.78Z"/><path class="cls-1" d="M85.13,47.31V36.15a1.69,1.69,0,0,0-1.86-1.45H72.55a1.69,1.69,0,0,0-1.85,1.45V66.66h3.7V48.76h8.87A1.69,1.69,0,0,0,85.13,47.31ZM81.42,37.6v2.72h-7V37.6Zm-7,8.26V43.23h7v2.63Z"/><path class="cls-1" d="M101.66,34.7H90.94a1.69,1.69,0,0,0-1.85,1.45V47.31a1.69,1.69,0,0,0,1.85,1.45H99.8v15H97v2.94h4.67a1.71,1.71,0,0,0,1.85-1.49v-29A1.69,1.69,0,0,0,101.66,34.7ZM99.8,37.6v2.72h-7V37.6Zm-7,8.26V43.23h7v2.63Z"/><path class="cls-1" d="M267.56,47.3V36.14a1.68,1.68,0,0,0-1.85-1.46H255a1.69,1.69,0,0,0-1.85,1.46V66.63h3.71V48.75h8.86A1.68,1.68,0,0,0,267.56,47.3Zm-3.7-9.71v2.72h-7V37.59Zm-7,8.26V43.21h7v2.64Z"/><path class="cls-1" d="M112,42.12h10.22v6.49h3.7V42.12H136.8v5.61h3.7V40.67a1.69,1.69,0,0,0-1.85-1.45H125.88V37.58h12.87v-2.9H110.17v2.9h12v1.64H110.11a1.69,1.69,0,0,0-1.85,1.45v7.06H112Z"/><rect class="cls-1" x="113.68" y="43.29" width="6.54" height="1.74"/><rect class="cls-1" x="113.68" y="46.06" width="6.54" height="1.74"/><rect class="cls-1" x="128.13" y="43.29" width="6.54" height="1.74"/><rect class="cls-1" x="128.13" y="46.06" width="6.54" height="1.74"/><polygon class="cls-1" points="143.66 37.59 156.78 37.59 143.57 53.43 143.57 58.53 143.68 58.59 157.44 42.18 157.44 66.64 161.14 66.64 161.14 37.59 175.61 37.59 175.61 34.68 143.66 34.68 143.66 37.59"/><path class="cls-1" d="M189.56,56.68H194a1.69,1.69,0,0,0,1.85-1.45V45.39A1.69,1.69,0,0,0,194,43.94h-4.45V42.73h6.49v-2.9h-6.49V38l6.49-.5V34.63l-16.22,1.23v2.92l6-.46v1.51h-6v2.9h6v1.21h-4.12a1.68,1.68,0,0,0-1.85,1.45v9.84a1.68,1.68,0,0,0,1.85,1.45h4.12v1.71h-6V61.3h6v2l-6,.46v2.92L196,65.43V62.51l-6.48.49V61.3h6.52V58.39h-6.52Zm0-2.79v-2.5h2.74v2.5Zm2.74-7.16V49h-2.74V46.73Zm-6.45,0V49h-2.42V46.73Zm-2.42,7.16v-2.5h2.42v2.5Z"/><path class="cls-1" d="M241.73,39.39h6.15v-2.9H233.63V34.7h-3.7v1.79H215.84v2.9h7.44l1.15,5.77h-6a1.7,1.7,0,0,0-1.86,1.45l-1,20h3.71l1-18.57h27.64v-2.9h-7.35Zm-14.7,0H238l-1.15,5.77h-8.65Z"/><polygon class="cls-1" points="237.27 49.43 233.56 49.43 233.56 51.34 226.13 51.34 226.43 49.82 222.68 49.82 221.61 55.16 225.36 55.16 225.55 54.24 233.56 54.24 233.56 57.77 224.43 57.77 224.43 60.68 233.56 60.68 233.56 63.74 222.47 63.74 222.47 66.64 247.87 66.64 247.87 63.74 237.27 63.74 237.27 60.68 246.42 60.68 246.42 57.77 237.27 57.77 237.27 54.24 247.87 54.24 247.87 51.34 237.27 51.34 237.27 49.43"/><path class="cls-1" d="M259.8,54.75h3.71v3.72H259.8v2.91h3.71v5.25h3.71V61.38H272v5.25h3.71V61.38h3.08V58.47h-3.08V54.75h3.08V51.84h-19ZM272,58.47h-4.76V54.75H272Z"/><path class="cls-1" d="M206.87,34.69h-3.73l-.74,4.84h-4.23v2.94h3.77l-3.76,24.17h3.74l3.76-24.17h2.71v17.7c0,3.65-.94,3.81-3.07,3.81v2.94c4.21,0,6-2,6-6.75V39.53h-5.19Z"/><polygon class="cls-1" points="161.53 42.09 175.48 58.75 175.59 58.69 175.59 53.59 165.95 42.09 161.53 42.09"/><path class="cls-1" d="M286,36.14a1.69,1.69,0,0,0-1.85-1.46H273.38a1.68,1.68,0,0,0-1.85,1.46V47.3a1.68,1.68,0,0,0,1.85,1.45h8.87v15h-2.81v2.9h4.66A1.69,1.69,0,0,0,286,65.19Zm-3.7,1.45v2.72h-7V37.59Zm-7,8.26V43.21h7v2.64Z"/><path class="cls-1" d="M137.91,63.79H126.1V62.06h11.14a1.69,1.69,0,0,0,1.85-1.45V50.77a1.69,1.69,0,0,0-1.85-1.45H111.55a1.69,1.69,0,0,0-1.85,1.45l0,12.69h3.74v-1.4h8.94V65.2a1.68,1.68,0,0,0,1.85,1.44h16.18a1.32,1.32,0,0,0,1.15-1.44V62.5h-3.67ZM126.1,59.16V57.24h9.29v1.92Zm9.29-4.82H126.1V52.23h9.29Zm-13-2.11v2.11h-9V52.23Zm-8.94,6.93V57.24h8.94v1.92Z"/><path class="cls-1" d="M322.82,62.35h-3.67v1.3h-5.68v-5.3h8.89V55.45h-8.89V49h4.36V47l4.53,3.5V46.4L319,43.83l3.33-1.73V38.36l-6.21,3.25-2.26-1.73,3.81-2,0-.07V34.16L311,37.65l-3.12-2.39a3.17,3.17,0,0,0-1.57-.57H292.7V37.6h9.19l-5.26,4-6.24-3.25V42.1l3.34,1.73-3.36,2.58v4.07l4.34-3.34V49h3.69v6.5H290.6v2.91H298c-1.26,3-5.47,4.63-7.53,5.29v3.09c1.17-.29,9.88-2.58,11.38-8.38h7.87v6.83a1.69,1.69,0,0,0,1.86,1.45h10.06a1.33,1.33,0,0,0,1.14-1.45ZM306.39,38.18,316.63,46H296.15Zm-4.28,17.27V49h7.65v6.5Z"/><rect class="cls-2" x="13.11" y="5.28" width="11.26" height="26.96"/><rect class="cls-3" x="13.11" y="5.28" width="11.26" height="61.38"/><rect class="cls-3" x="26.68" y="20.2" width="9.01" height="46.44"/><path class="cls-4" d="M68.07,66.65H46.83s-.08,0-.12-.05C14.44,54.9-.36,42.72,0,32.05.47,18.23,41.69,6.26,67.45.15L67.86,0c.12,0,.45-.1.45.08s-.22.24-.35.27l-.42.1C52.8,4.44,6.92,18.4,6.92,32.16c0,13.27,60.62,33.55,61.25,33.75a.36.36,0,0,1,.25.39A.39.39,0,0,1,68.07,66.65Z"/><rect class="cls-3" x="13.11" y="5.28" width="11.26" height="33.05"/><path class="cls-1" d="M87.05,18.8a3.14,3.14,0,0,0-2,1.26,11.8,11.8,0,0,1-4.6-6,22.45,22.45,0,0,1-1.32-8.19l-.2,0C78.71,12,77.52,17.68,71.1,20L71,19.86a14.19,14.19,0,0,0,4.92-5.51,21.69,21.69,0,0,0,1.58-8.51,3.66,3.66,0,0,0-.16-1.37L79.54,5c.31.08.36.11.36.26s-.29.39-.47.45A18.87,18.87,0,0,0,82.19,15a9.73,9.73,0,0,0,4.88,3.61Z"/><path class="cls-1" d="M95,14.15a20.39,20.39,0,0,0-.63,3.44c0,.2.09,1.06.09,1.24s0,.67-.47.67c-.74,0-1.91-1.66-1.91-5.31a45.76,45.76,0,0,1,.7-5.58A7.55,7.55,0,0,0,92.9,7.4a2.44,2.44,0,0,0-.61-1.75.8.8,0,0,1,.32-.07c.65,0,1.82,1,1.82,1.71a2.29,2.29,0,0,1-.23.85,15.69,15.69,0,0,0-1.26,5.65c0,1.25.3,2.63.59,2.63.11,0,.2-.21.24-.34A43.57,43.57,0,0,1,95.37,12l.14,0C95.4,12.53,95.15,13.58,95,14.15Zm8.66,3.78a17.61,17.61,0,0,1-4.41-.5A2.64,2.64,0,0,1,97.44,15a1.38,1.38,0,0,1,.18-.75c.41,1.36.74,2.41,4.14,2.41.36,0,2.11-.15,2.29-.15.63,0,1.38.27,1.38.78S104.8,17.93,103.67,17.93Zm-.15-9.52a8.52,8.52,0,0,0-3.47,1.33l-.11-.11c.27-.25,1.59-1.45,1.64-1.51a.16.16,0,0,0,0-.14c0-.2-.55-.2-.66-.2a10.66,10.66,0,0,0-3.28.81,5.51,5.51,0,0,1,4.47-1.76c1.11,0,2.39.32,2.39,1C104.55,8.19,104.17,8.3,103.52,8.41Z"/><path class="cls-1" d="M114.71,19.86c-.58,0-.72-.47-.9-1.06a7,7,0,0,0-2.36-3.46l0-.16a7.65,7.65,0,0,1,2.87,1.42,3.31,3.31,0,0,1,1.22,2.22A1,1,0,0,1,114.71,19.86Z"/><path class="cls-1" d="M126.58,5.11a.41.41,0,0,1,.16.29c0,.18-.12.22-.74.27a12.9,12.9,0,0,1-4.64,3.42l0-.07a13.47,13.47,0,0,0,4-5.09Zm-.29,3.75c.15.11.25.2.25.31s-.16.21-.63.28a11.51,11.51,0,0,1-.75,1.16c.47.21.54.27.54.41s-.18.27-.51.47c0,1.2,0,5,0,6.21,0,.27.07,1.68.07,2a.89.89,0,0,1-.07.43,1.2,1.2,0,0,1-.87.38c-.45,0-.45-.4-.45-.57,0-.46.11-2.81.13-3.34,0-1.26,0-3,0-4.59a11,11,0,0,1-2.58,2.24l-.07-.06A17.48,17.48,0,0,0,125,7.94Zm-.23,4.75c1.24.11,1.91.11,2.75.13a14.12,14.12,0,0,0-.11-2.54l1.52.29c.16,0,.27.09.27.21s-.06.2-.54.54v1.5h.93l.65-.7c.15-.16.18-.24.29-.24s.16.08.32.2l.85.7c.11.09.2.18.2.27s-.15.2-.29.2h-3v2.61c1.29-.21,2.59-.47,3.87-.79l0,.13a37.17,37.17,0,0,1-6.5,2.34c-.1.25-.19.41-.37.41a.36.36,0,0,1-.27-.22L126,17c.25,0,.61.07,1,.07s1.14-.06,1.91-.16V14.17a13,13,0,0,0-2.39.16ZM131,7.42l.47-.58c.11-.14.18-.21.29-.21s.18.07.32.18l.78.57a.35.35,0,0,1,.18.29c0,.15-.15.18-.29.18H130v2.67h1.3l.59-.71c.06-.07.15-.21.28-.21a.65.65,0,0,1,.34.2l.83.66a.39.39,0,0,1,.18.29c0,.16-.17.2-.29.2h-4.74a13.5,13.5,0,0,0-2.12.16l-.34-.72c1.27.11,2.53.13,2.86.13V7.85a12.9,12.9,0,0,0-2.36.16l-.36-.7c1,.07,1.19.07,2.72.11A11.13,11.13,0,0,0,128.52,4l1.77.56c.21.07.3.11.3.27s-.12.25-.59.56c0,.34,0,1.78,0,2.07ZM135.87,11V15c0,.29,0,2.94,0,3.48,0,.9-.16,1.58-2,2.14a2.76,2.76,0,0,0-1.51-1.76v-.11a10.63,10.63,0,0,0,1.19.09c.92,0,1.13-.07,1.13-.6V11.06a6.27,6.27,0,0,0-.83,0l-.23-.56c.43,0,.92.06,1.37.06h1.17l.61-.8c.13-.16.18-.25.31-.25s.27.16.48.38l.63.63c.11.11.18.16.18.32s-.14.15-.29.15Zm-.16-4.7.45-.69c.07-.1.18-.21.29-.21s.23.11.37.21l.8.65c.1.09.18.15.18.29s-.17.18-.29.18h-3.17c-.18,0-.63,0-1,.06l-.24-.56c.63,0,1.14.07,1.37.07Z"/><path class="cls-1" d="M146.57,14.15a20.39,20.39,0,0,0-.63,3.44c0,.2.09,1.06.09,1.24s0,.67-.47.67c-.74,0-1.91-1.66-1.91-5.31a45.76,45.76,0,0,1,.7-5.58,7.55,7.55,0,0,0,.11-1.21,2.44,2.44,0,0,0-.61-1.75.8.8,0,0,1,.32-.07c.65,0,1.82,1,1.82,1.71a2.29,2.29,0,0,1-.23.85,15.69,15.69,0,0,0-1.26,5.65c0,1.25.3,2.63.59,2.63.11,0,.2-.21.24-.34a43.57,43.57,0,0,1,1.6-4.09l.14,0C147,12.53,146.71,13.58,146.57,14.15Zm8.66,3.78a17.61,17.61,0,0,1-4.41-.5A2.64,2.64,0,0,1,149,15a1.38,1.38,0,0,1,.18-.75c.41,1.36.74,2.41,4.14,2.41.36,0,2.11-.15,2.29-.15.63,0,1.38.27,1.38.78S156.36,17.93,155.23,17.93Zm-.14-9.52a8.51,8.51,0,0,0-3.48,1.33l-.11-.11c.27-.25,1.59-1.45,1.64-1.51a.16.16,0,0,0,.05-.14c0-.2-.55-.2-.66-.2a10.66,10.66,0,0,0-3.28.81,5.51,5.51,0,0,1,4.47-1.76c1.11,0,2.39.32,2.39,1C156.11,8.19,155.73,8.3,155.09,8.41Z"/><path class="cls-1" d="M166.27,19.86c-.58,0-.72-.47-.9-1.06A7,7,0,0,0,163,15.34l.05-.16a7.65,7.65,0,0,1,2.87,1.42,3.31,3.31,0,0,1,1.22,2.22A1,1,0,0,1,166.27,19.86Z"/><path class="cls-1" d="M177.91,5.42l.47-.5a.4.4,0,0,1,.26-.15.55.55,0,0,1,.28.15l.78.57c.14.11.25.2.25.31s-.18.23-.7.52c0,.34,0,5.35,0,6.09,0,.41,0,2.25,0,2.63a.57.57,0,0,1-.21.54,1.58,1.58,0,0,1-.72.23c-.29,0-.38-.18-.38-.4s0-.86,0-1h-3v1.36a.86.86,0,0,1-.9.83c-.42,0-.56-.27-.56-.61s.13-1.58.13-1.84c.1-3.18.1-6.53.1-6.82a20.18,20.18,0,0,0-.18-2.81l1.53.9ZM175,5.85V9.58h3V5.85ZM175,10v4h3V10Zm7,3.89c-.7,3.49-2.79,5.29-6,6.38l0-.11a10.39,10.39,0,0,0,4.13-4.25c.7-1.42,1-2.85,1-7.06a31.21,31.21,0,0,0-.23-4.52l1.49.81h3.78l.54-.54c.06-.05.15-.14.22-.14a.7.7,0,0,1,.25.12l1,.72a.44.44,0,0,1,.16.25c0,.22-.29.38-.76.63,0,1.52,0,4.81,0,5.64,0,.56.07,5.58.07,5.89,0,1.22,0,1.87-1,2.41a3.12,3.12,0,0,1-1.24.33,3,3,0,0,0-1.82-1.82v-.09a14.5,14.5,0,0,0,1.69.1c.85,0,1.08,0,1.08-.79v-4Zm4.3-.43V9.78h-4a30.19,30.19,0,0,1-.2,3.69Zm0-4.12V5.58h-4V9.35Z"/><path class="cls-1" d="M200.3,19.3c-1.73,0-3.51-.7-3.51-2.1,0-1.25,1.24-1.57,2-1.57a3,3,0,0,1,2.83,2.43,3.27,3.27,0,0,0,2.45-3.17,2.72,2.72,0,0,0-2.94-2.68c-3.51,0-5.83,3.4-6.1,3.82-.45.72-.61,1-1,1-.22,0-.61-.13-.61-.76s.14-.74,1.22-1.78c1.44-1.43,5.87-7.17,5.87-7.85,0-.11-.05-.18-.2-.18a10.58,10.58,0,0,0-2.57,1s-.74.4-.8.4a1.77,1.77,0,0,1-1.45-1.7.82.82,0,0,1,.19-.59c.42.68.74.85,1.25.85a15,15,0,0,0,3.31-.73c.13,0,.72-.23.81-.23a1.59,1.59,0,0,1,1.31,1.24c0,.29,0,.31-.64.8A51.57,51.57,0,0,0,197.06,13a8.34,8.34,0,0,1,4.32-1.28c2.9,0,4,1.73,4,3.37C205.41,17.11,203.61,19.3,200.3,19.3Zm-2-2.95a.82.82,0,0,0-.87.76c0,.93,1.86,1.35,2.38,1.35a1.73,1.73,0,0,0,.63-.11A2.69,2.69,0,0,0,198.34,16.35Z"/><path class="cls-1" d="M215,16.19a1.81,1.81,0,0,0,0,.23c0,.15.14.83.14,1a.54.54,0,0,1-.56.62c-.63,0-3.18-.9-3.49-6a27.64,27.64,0,0,0-.29-3.31,6,6,0,0,0-.63-1.47c.92,0,2.27.84,2.27,2a2.6,2.6,0,0,1-.07.6,15.25,15.25,0,0,0-.23,2.5c0,2.21,1.08,3.53,1.56,3.53.2,0,.38-.24.43-.33.81-1.2,2.15-3.11,2.92-4.34l.15.06C217,11.76,215.08,16,215,16.19ZM224,15.07c-.22,0-.29-.07-1-.74a4.35,4.35,0,0,0-1.91-.72V13.5c.25,0,1.47-.14,1.6-.17a.46.46,0,0,0,.4-.47,6.41,6.41,0,0,0-3.17-4.32,1.36,1.36,0,0,1,.3,0c2,0,4.4,3.31,4.4,5.4C224.59,14.53,224.24,15.07,224,15.07Z"/><path class="cls-1" d="M243.11,11.58l.66-1.06c.06-.09.18-.24.29-.24a.64.64,0,0,1,.34.2l1.21,1.06c.11.09.18.16.18.27s-.14.2-.27.2h-6.84a11.16,11.16,0,0,0,7.52,5.26v.09a3.47,3.47,0,0,0-1.83,1.46A11.83,11.83,0,0,1,238.43,12h0c0,.81,0,2.45,0,3.21,0,1.17.13,4.17.13,4.41a.85.85,0,0,1-.92.9c-.47,0-.61-.27-.61-.63s.1-2.24.12-2.61c0-1,0-2.34,0-3.73a15,15,0,0,1-7.33,5.49V19a25,25,0,0,0,6.84-7H232.2a12.06,12.06,0,0,0-2.11.16l-.36-.72c1.31.11,2.45.13,2.75.13h4.67c0-1.08,0-2.5,0-3.6h-3.33a12.5,12.5,0,0,0-2.13.16l-.36-.72c.92.09,1.86.13,2.77.13h3a13.7,13.7,0,0,0-.32-3.61l1.8.51a.3.3,0,0,1,.27.29c0,.19-.36.41-.51.5V7.55h2.88l.65-1c.09-.14.18-.23.29-.23a.51.51,0,0,1,.3.18l1.12,1c.07.07.18.16.18.29s-.16.18-.27.18h-5.15v3.6Z"/><path class="cls-1" d="M259.71,12.78a10.73,10.73,0,0,0,7.49,4.43l0,.13a3.25,3.25,0,0,0-1.75,1.53,13.27,13.27,0,0,1-5.79-5.47c0,1.78,0,3.13.05,4,0,.36.09,1.92.09,2.23,0,.79-.81.85-.92.85-.57,0-.57-.33-.57-.54s0-.89,0-1.08c.13-2.6.14-3.32.14-4.92a15.65,15.65,0,0,1-7,5.29l-.07-.14a21.38,21.38,0,0,0,6.36-6.27h-4a11.24,11.24,0,0,0-2.13.18l-.36-.72c.92.08,1.86.11,2.77.11h4.42c0-1.94,0-2.25,0-5h-3.58a13.7,13.7,0,0,0-2.13.16l-.36-.7c.92.07,1.86.1,2.78.1h3.29a6.13,6.13,0,0,0-.36-2.73l1.91.52c.11,0,.23.07.23.23s-.2.25-.57.49c0,.16,0,1.24,0,1.49h3.46l.64-.81c.09-.12.2-.23.29-.23a.62.62,0,0,1,.36.2l1,.83a.45.45,0,0,1,.18.27c0,.18-.18.18-.29.18h-5.67c0,2.34,0,2.62,0,5h1.06A12.92,12.92,0,0,0,262.81,8l1.62,1c.18.11.2.18.2.23,0,.24-.18.29-.81.36-.16.16-.27.29-1.32,1.42a14.4,14.4,0,0,1-1.38,1.37h3.19l.82-.83c.17-.16.24-.21.31-.21s.16,0,.32.18l1.05.84c.09.08.2.2.2.27s-.2.18-.29.18Zm-6-4.51c.74.32,2.7,1.2,2.7,2.77a.76.76,0,0,1-.72.84c-.61,0-.72-.54-.79-.91a6.14,6.14,0,0,0-1.28-2.63Z"/><path class="cls-1" d="M284.28,11.74a25.49,25.49,0,0,0-5.06,1.69,11.68,11.68,0,0,1,.18,2.13c0,.38,0,1.56-.65,1.56s-.66-1-.66-1.33,0-1.49,0-1.76c-1.21.75-2.58,2.07-2.58,3,0,1.37,2.36,1.37,2.89,1.37a15.73,15.73,0,0,0,2.75-.31,4,4,0,0,1,.63-.07c.78,0,1.08.47,1.08.79a.66.66,0,0,1-.56.58,24.1,24.1,0,0,1-2.75.18c-1,0-4.77,0-4.77-2.23,0-1.7,2.21-3.33,3.24-4-.16-.95-.42-1.85-1.55-1.85a3.08,3.08,0,0,0-2.25,1.54c-.81,1.27-.88,1.28-1.19,1.28s-.52-.3-.52-.73a1.08,1.08,0,0,1,.4-1,16,16,0,0,0,3.07-4,9.68,9.68,0,0,1-1.6.18c-1.22,0-1.82-.67-1.78-1.6a2.37,2.37,0,0,0,1.85.66,14.81,14.81,0,0,0,2.09-.21,9.79,9.79,0,0,0,1-2.06c0-.25-.39-.63-1.22-.73a1.37,1.37,0,0,1,1.1-.44c.88,0,1.63.67,1.63,1.05a1.11,1.11,0,0,1-.28.63,10.46,10.46,0,0,0-.94,1.26,23.59,23.59,0,0,1,2.5-.83c.44,0,1,.25,1,.61a.49.49,0,0,1-.38.45,21.65,21.65,0,0,1-3.84.85,33.83,33.83,0,0,0-2,3,4,4,0,0,1,1.83-.48,2.06,2.06,0,0,1,2.2,1.74c1.22-.72,3-1.56,3.51-1.81.33-.17.45-.29.45-.53s-.14-.34-.56-.64a1,1,0,0,1,.38-.06c.65,0,2.05.52,2.05,1.53C284.89,11.6,284.66,11.67,284.28,11.74Z"/></g></g></svg>