<svg xmlns="http://www.w3.org/2000/svg" viewBox="0 0 226.95 50"><defs><style>.cls-1{fill:#fff;}</style></defs><title>アセット 9</title><g id="レイヤー_2" data-name="レイヤー 2"><g id="レイヤー_1-2" data-name="レイヤー 1"><path class="cls-1" d="M226.69,8.52c-8.61,14.34-23.33,26.49-45,27.36-31.3,1.25-50.48-13.51-73.6-15.12-14.19-1-25.26,2-33.55,6.11l.46,1c7.58-3.36,17-5.08,33.79-3.88,30.88,2.2,46.46,16.14,73.17,16.14,25.41,0,39.52-19.69,45-30.94Z"/><path class="cls-1" d="M164.75,48.51c3.53-.95,4.52-3.38,6-6.55L184,12h.34l13.6,32.26c1.24,2.56,2.05,4.08,4.4,4.08V49H189.58V48.3c1.31-.26,1.2-2.11.68-3.5l-8.41-20.36h-.44l-8.78,20.3c-1,2.09-.13,3.56.61,3.94V49h-8.49Z"/><path class="cls-1" d="M107.52,44.34A4.33,4.33,0,0,1,103.18,47H93.62V31.43h6.76a3.41,3.41,0,0,1,2.68,1.68c.06.14.28.09.25-.11-.1-.62-.08-2.34-.09-3.11a25.6,25.6,0,0,1,.09-2.7c0-.2-.19-.25-.25-.11a3.12,3.12,0,0,1-2.9,1.88H93.62V14.51h6c2.51,0,2.6.8,3,1.37.25.35.4.13.37-.13-.33-2.67-.58-3.63-2.41-3.63s-9.85.15-12.21.17h-.63a22.45,22.45,0,0,1-3.33-.07c-.33-.05-.42.32-.19.42a3.09,3.09,0,0,1,2,3.2V45.12c0,3-.87,3.17-2,3.76-.33.16-.3.49.25.43a29.29,29.29,0,0,1,3.34-.1H94.7c2.36,0,8.16.17,10,.17s2.32-1.55,3.19-4.92C108,44.22,107.7,44,107.52,44.34Z"/><path class="cls-1" d="M71.48,48.93a4,4,0,0,1-1.85-3.31V15.88a4.05,4.05,0,0,1,1.85-3.31c.35-.18.12-.51-.16-.45a35.53,35.53,0,0,1-5.43.36c-1.27,0-4.41-.09-5.45-.26-.33-.05-.42.32-.19.42a3.09,3.09,0,0,1,2,3.2V45.66a3.09,3.09,0,0,1-2,3.2c-.23.1-.14.47.19.42,1-.17,4.18-.26,5.45-.26a35.53,35.53,0,0,1,5.43.36C71.6,49.45,71.83,49.11,71.48,48.93Z"/><path class="cls-1" d="M157.11,48.93a4,4,0,0,1-1.85-3.31V15.88a4,4,0,0,1,1.85-3.31c.35-.18.11-.51-.16-.45a35.62,35.62,0,0,1-5.43.36c-1.28,0-4.41-.09-5.45-.26-.34-.05-.43.32-.19.42a3.09,3.09,0,0,1,2,3.2V45.66a3.09,3.09,0,0,1-2,3.2c-.24.1-.15.47.19.42,1-.17,4.17-.26,5.45-.26a35.62,35.62,0,0,1,5.43.36C157.22,49.45,157.46,49.11,157.11,48.93Z"/><path class="cls-1" d="M138.56,44.34A4.33,4.33,0,0,1,134.22,47h-9.56V15.88a4,4,0,0,1,1.85-3.31c.35-.18.11-.51-.16-.45a35.62,35.62,0,0,1-5.43.36c-1.28,0-4.41-.09-5.45-.26-.34-.05-.43.32-.19.42a3.09,3.09,0,0,1,2,3.2V45.12c0,3-.86,3.17-2,3.76-.32.16-.3.49.26.43a29.29,29.29,0,0,1,3.34-.1h6.89c2.36,0,8.15.17,10,.17s2.32-1.55,3.2-4.92C139,44.22,138.73,44,138.56,44.34Z"/><path class="cls-1" d="M56.81,36.32C52.19,42.19,41.58,50,29.37,50,11.81,50,0,38.75,0,24.87,0,9.67,13.06,0,29.37,0,39.2,0,45.5,4.49,47.81,4.37l-.32,10.05-.92-.11C44.86,9.48,37.73,2.69,28.36,3.39,20,4,13.14,13.53,13,24.83,12.91,37.43,20,46,30.38,46c11.11,0,19-4,25.9-10.78Z"/></g></g></svg>