<svg xmlns="http://www.w3.org/2000/svg" xmlns:xlink="http://www.w3.org/1999/xlink" viewBox="0 0 369.37 121.32"><defs><style>.cls-1{fill:url(#名称未設定グラデーション_23);}.cls-2{fill:#423e3e;}.cls-3{fill:url(#名称未設定グラデーション_23-2);}.cls-4{fill:url(#名称未設定グラデーション_23-3);}.cls-5{fill:url(#名称未設定グラデーション_23-4);}.cls-6{fill:url(#名称未設定グラデーション_23-5);}.cls-7{fill:url(#名称未設定グラデーション_23-6);}.cls-8{fill:url(#名称未設定グラデーション_23-7);}</style><linearGradient id="名称未設定グラデーション_23" x1="-5.16" y1="110.46" x2="400.95" y2="110.46" gradientUnits="userSpaceOnUse"><stop offset="0" stop-color="#0075b6"/><stop offset="1" stop-color="#181878"/></linearGradient><linearGradient id="名称未設定グラデーション_23-2" x1="13.84" y1="63.57" x2="493.59" y2="63.57" xlink:href="#名称未設定グラデーション_23"/><linearGradient id="名称未設定グラデーション_23-3" x1="13.84" y1="70.61" x2="493.59" y2="70.61" xlink:href="#名称未設定グラデーション_23"/><linearGradient id="名称未設定グラデーション_23-4" x1="13.84" y1="66.15" x2="493.59" y2="66.15" xlink:href="#名称未設定グラデーション_23"/><linearGradient id="名称未設定グラデーション_23-5" x1="13.84" y1="66.82" x2="493.59" y2="66.82" xlink:href="#名称未設定グラデーション_23"/><linearGradient id="名称未設定グラデーション_23-6" x1="9.84" y1="70.23" x2="489.59" y2="70.23" xlink:href="#名称未設定グラデーション_23"/><linearGradient id="名称未設定グラデーション_23-7" x1="5.84" y1="72.4" x2="485.59" y2="72.4" xlink:href="#名称未設定グラデーション_23"/></defs><title>アセット 12</title><g id="レイヤー_2" data-name="レイヤー 2"><g id="レイヤー_1-2" data-name="レイヤー 1"><path class="cls-1" d="M37.67,117.77c28.61,4.12,58,5.16,86.58.42,7.33-1.22,14.49-3.06,21.74-4.66,6.56-1.45,13.35-3.38,20-4.51,14.09-2.41,27.24-4.19,41.49-5.32,28.49-2.28,62-2.3,90.43,1.06a207.11,207.11,0,0,1,34,6.38c5.61,1.54,13.83,4.26,18.09,6.39,1.8.9,4.46,2.07,6.38,1.06a16.27,16.27,0,0,0,5.32-4.25c1.53-1.66,5.42-2.91,6.39-1.07s1.79,1.55.84-.27a4.81,4.81,0,0,0-6.27-2.21c-2.11.94-3.67,2.95-5.58,4.23-1.17.79-2.83,2.51-5,1.44-21.73-9.32-42.49-12.81-65.91-15a449.59,449.59,0,0,0-81.46.07c-13.25,1.16-26.46,2.82-39.57,5.06q-9.54,1.62-19,3.68c-6.64,1.45-13.22,3.18-19.92,4.39-27.38,5-55.67,4.28-83.17.71C28.19,113.38,0,106.89,0,106.89S24.18,115.82,37.67,117.77Z"/><path class="cls-2" d="M113.77,18.14c.25.45.42.82.62,1.12a1.82,1.82,0,0,1,.33,1.1,1.26,1.26,0,0,1-1.31,1.2,1.57,1.57,0,0,1-1-.34,2.5,2.5,0,0,1-.7-.86,20.82,20.82,0,0,1-2,1.73,6.26,6.26,0,0,1-3.17,1.46c-.81,0-1.17-.25-1.59-1.12a5.85,5.85,0,0,0-.7-1.32,3.2,3.2,0,0,1-1-2.18,5.84,5.84,0,0,1,.61-2.27,13.55,13.55,0,0,1,2.47-3.25,14.88,14.88,0,0,1,2.4-1.87,14.77,14.77,0,0,1,1.82-1c.09-1.09.14-2.21.23-3.33a12,12,0,0,1-2.27.31,3.41,3.41,0,0,1-2-.59,5.2,5.2,0,0,1-1.71-2.13c-.08-.17,0-.28.12-.28a.47.47,0,0,1,.19.06A5.38,5.38,0,0,0,106,5a3.68,3.68,0,0,0,1.17.2,9.51,9.51,0,0,0,1.63-.2c.58-.11,1.37-.3,2.07-.47,0-.87,0-1.77,0-2.21,0-.62,0-.79-.28-.9a3.86,3.86,0,0,0-.84-.22c-.22-.06-.33-.12-.33-.2a.35.35,0,0,1,.14-.22,3.11,3.11,0,0,1,.7-.54,1.83,1.83,0,0,1,.89-.22,4.59,4.59,0,0,1,1.85.53c.67.34.93.73.93,1.07a1.27,1.27,0,0,1-.2.64,2,2,0,0,0-.28.59c-.06.28-.11.59-.17.89a13.12,13.12,0,0,0,2.16-.89c.25-.14.56-.37.75-.45a1.69,1.69,0,0,1,.59-.11,3.68,3.68,0,0,1,1.54.42,1.31,1.31,0,0,1,.79,1.12c0,.61-.2.89-1.63,1.45-1.2.45-3,1-4.53,1.38-.12,1-.2,2-.28,3.08a14.62,14.62,0,0,1,2.85-.54,4.17,4.17,0,0,0-.14-.56A2.62,2.62,0,0,0,115,7.9c-.08-.09-.11-.14-.11-.2s.17-.17.39-.08a3.8,3.8,0,0,1,1.24.81,3.27,3.27,0,0,1,.64.75A8.66,8.66,0,0,1,122,11a8,8,0,0,1,3,6.33,6.08,6.08,0,0,1-2.3,4.87c-2,1.65-5.82,2.85-9.91,3.19-.19,0-.28-.11-.28-.22a.24.24,0,0,1,.23-.23,14.25,14.25,0,0,0,6.32-3.36,7,7,0,0,0,2.19-5.29,7.28,7.28,0,0,0-2-5.35,3.2,3.2,0,0,0-1.82-.75,7.47,7.47,0,0,1-.17,1A17.65,17.65,0,0,1,113.72,18ZM109.49,13a14.85,14.85,0,0,0-1.82,1.91,12.31,12.31,0,0,0-1.57,2.66,4,4,0,0,0-.36,1.57c0,.89.36,1.28,1,1.28a3.77,3.77,0,0,0,1.71-.72,11.22,11.22,0,0,0,2.18-1.77,20.42,20.42,0,0,1-.28-3.75c0-.56,0-1.29.06-2A11.94,11.94,0,0,0,109.49,13Zm3.08-.11a12.73,12.73,0,0,0,.25,2.72,13.45,13.45,0,0,0,2.58-4.65,2.78,2.78,0,0,0,.19-.78,10.35,10.35,0,0,0-2.91.78C112.62,11.62,112.57,12.38,112.57,12.85Z"/><path class="cls-2" d="M141.74,3.3a1.91,1.91,0,0,1,1-.36,2.84,2.84,0,0,1,1.28.34,1.26,1.26,0,0,1,.84,1.06c0,.53-.33.76-.92,1.12A20.27,20.27,0,0,1,140.37,7a51.76,51.76,0,0,1-4.65,10,10.3,10.3,0,0,1-1.28,1.79,1.6,1.6,0,0,1-2.36-.08,2.52,2.52,0,0,1-.36-1.37,2.93,2.93,0,0,1,.62-1.85,8.6,8.6,0,0,1,1-1.07,10.34,10.34,0,0,0,1.07-1.17,24.7,24.7,0,0,0,3.38-5.43,10.21,10.21,0,0,1-2.52.44,3,3,0,0,1-2-.72,5.05,5.05,0,0,1-1.35-1.91c-.08-.25,0-.39.14-.39a.34.34,0,0,1,.2.08,4.46,4.46,0,0,0,.81.45,2.5,2.5,0,0,0,1,.17,11.53,11.53,0,0,0,2.3-.39c.72-.23,1.59-.51,2.38-.79.11-.53.19-1.06.25-1.42a10.18,10.18,0,0,0,.08-1.07.7.7,0,0,0-.45-.7,2.09,2.09,0,0,0-.78-.22c-.17,0-.25-.11-.25-.2a.43.43,0,0,1,.17-.31,2.44,2.44,0,0,1,1.37-.61,3,3,0,0,1,1.57.5,1.55,1.55,0,0,1,.89,1.26,9.61,9.61,0,0,1-.22,1.12c0,.17-.09.37-.11.53A4.73,4.73,0,0,0,141.74,3.3Zm4.76,20.16a8,8,0,0,1-3.89.9c-2.6,0-4.42-1.15-4.42-3a3,3,0,0,1,1.43-2.55,7.43,7.43,0,0,1,3.94-1,14.55,14.55,0,0,1,1.52.08c-.06-.22-.12-.47-.17-.7a14.34,14.34,0,0,1-.56-3.13,2.93,2.93,0,0,1,.39-1.6,5,5,0,0,1,1-1.23c.58-.53,1.26-1,2-1.65.34-.28.59-.54.59-.73s-.17-.37-.65-.53a7.15,7.15,0,0,0-2-.2,16.09,16.09,0,0,0-2.49.28c-.17,0-.23,0-.23-.14a.23.23,0,0,1,.14-.22A9.81,9.81,0,0,1,145.66,7a10.4,10.4,0,0,1,2.72-.33,7.87,7.87,0,0,1,3.53.75,2.72,2.72,0,0,1,1.73,2.21,1.17,1.17,0,0,1-1.31,1.29,6.24,6.24,0,0,1-1.26-.17,6.8,6.8,0,0,0-1-.08,4.68,4.68,0,0,0-1.37.2,9.52,9.52,0,0,0-2.44,1c-.53.37-.81.73-.81,1.15a5.6,5.6,0,0,0,.61,1.85c.51,1.09,1.29,2.35,1.77,3.47A17.47,17.47,0,0,1,152.16,20a4.18,4.18,0,0,1,.73.51,2.77,2.77,0,0,1,1.17,2c0,1-.39,1.52-1.26,1.52a2.17,2.17,0,0,1-1.48-.68,13.23,13.23,0,0,0-3.08-2.21A3.18,3.18,0,0,1,146.5,23.46Zm-5.18-1.17a6.28,6.28,0,0,0,3.06-.79,1.78,1.78,0,0,0,1-1.45,10.73,10.73,0,0,0-3.33-.48,5,5,0,0,0-2.21.48c-.5.31-.78.64-.78,1.06C139.06,21.76,139.62,22.29,141.32,22.29Z"/><path class="cls-2" d="M170.72,4.68a1.6,1.6,0,0,1,.9-.31,3,3,0,0,1,1.32.42,1.32,1.32,0,0,1,.75,1.06c0,.65-.45.9-1.12,1.26a27.66,27.66,0,0,1-3.67,1.54c-1,3.31-2.35,7.84-3.19,11.26-.19.84-.33,1.65-.5,2.46a4.47,4.47,0,0,1-.42,1.29,1.29,1.29,0,0,1-1.09.62,1.69,1.69,0,0,1-1.46-.76,3.64,3.64,0,0,1-.59-1.88,3.89,3.89,0,0,1,.37-1.79c.19-.36.47-.81.67-1.2s.45-1,.7-1.54c1-2.19,2-5.1,2.94-7.7a10.65,10.65,0,0,1-2.13.31,3.22,3.22,0,0,1-1.85-.56,4.84,4.84,0,0,1-1.79-2.08.47.47,0,0,1-.06-.19c0-.11.06-.17.14-.17a.53.53,0,0,1,.23.08,3.64,3.64,0,0,0,1.9.56,9,9,0,0,0,2-.3c.81-.23,1.79-.51,2.6-.82.25-.86.48-1.68.62-2.38.05-.42.14-1,.14-1.28,0-.48,0-.56-.42-.76a2.26,2.26,0,0,0-.87-.22c-.2,0-.28-.09-.28-.2a.45.45,0,0,1,.2-.31A2.58,2.58,0,0,1,168.4.48a4.48,4.48,0,0,1,1.85.61c.67.39,1,.73,1,1.29a1.62,1.62,0,0,1-.42,1,5.39,5.39,0,0,0-.53,1.12c-.06.14-.14.34-.23.59A6.19,6.19,0,0,0,170.72,4.68Zm9,15.45a6.48,6.48,0,0,0,1.06-.22,2.19,2.19,0,0,1,.79-.11,3.75,3.75,0,0,1,1.76.58,1.88,1.88,0,0,1,.84,1.49c0,.81-.47,1.2-1.57,1.4a20,20,0,0,1-3,.25,12.27,12.27,0,0,1-6.39-1.4,4,4,0,0,1-1.87-3.42,4.81,4.81,0,0,1,.5-2,6.77,6.77,0,0,1,.76-1.29.26.26,0,0,1,.19-.14c.09,0,.17.11.12.25a5.61,5.61,0,0,0-.45,2,2,2,0,0,0,1,1.82c.92.59,2,.92,4.34.92A14.62,14.62,0,0,0,179.74,20.13Zm-3.84-7.28a.29.29,0,0,1,.14-.19,20.1,20.1,0,0,0,2.08-1.74c.42-.39.58-.56.58-.84s-.11-.22-.28-.28a3.69,3.69,0,0,0-.95-.11,16.76,16.76,0,0,0-1.76.08,18.28,18.28,0,0,0-2.91.56c-.2.06-.34,0-.34-.11a.34.34,0,0,1,.17-.25,11.05,11.05,0,0,1,2.88-1.51,10.24,10.24,0,0,1,3.36-.62,7.84,7.84,0,0,1,3.33.64,2.06,2.06,0,0,1,1.4,1.71,1.14,1.14,0,0,1-.56,1.07,2.71,2.71,0,0,1-.95.22l-1.09,0a4.87,4.87,0,0,0-1.26.23c-.78.19-2,.7-3.56,1.28C176,13,175.9,13,175.9,12.85Z"/><path class="cls-2" d="M200.85,4.68a1.6,1.6,0,0,1,.9-.31,2.94,2.94,0,0,1,1.31.42,1.31,1.31,0,0,1,.76,1.06c0,.65-.45.9-1.12,1.26A27.66,27.66,0,0,1,199,8.65c-1,3.31-2.35,7.84-3.19,11.26-.19.84-.34,1.65-.5,2.46a4.81,4.81,0,0,1-.42,1.29,1.3,1.3,0,0,1-1.1.62,1.68,1.68,0,0,1-1.45-.76,3.64,3.64,0,0,1-.59-1.88,3.89,3.89,0,0,1,.37-1.79c.19-.36.47-.81.67-1.2s.44-1,.7-1.54c.95-2.19,2-5.1,2.94-7.7a10.65,10.65,0,0,1-2.13.31,3.17,3.17,0,0,1-1.85-.56,4.84,4.84,0,0,1-1.79-2.08.47.47,0,0,1-.06-.19c0-.11.06-.17.14-.17a.53.53,0,0,1,.23.08,3.64,3.64,0,0,0,1.9.56,9,9,0,0,0,2-.3c.81-.23,1.79-.51,2.6-.82.25-.86.48-1.68.62-2.38.05-.42.14-1,.14-1.28,0-.48,0-.56-.42-.76A2.26,2.26,0,0,0,197,1.6c-.2,0-.28-.09-.28-.2a.43.43,0,0,1,.19-.31,2.61,2.61,0,0,1,1.63-.61,4.53,4.53,0,0,1,1.85.61c.67.39,1,.73,1,1.29a1.62,1.62,0,0,1-.42,1,5.45,5.45,0,0,0-.54,1.12c-.05.14-.14.34-.22.59A7.3,7.3,0,0,0,200.85,4.68Zm9,15.45a6.71,6.71,0,0,0,1.06-.22,2.19,2.19,0,0,1,.79-.11,3.75,3.75,0,0,1,1.76.58,1.88,1.88,0,0,1,.84,1.49c0,.81-.48,1.2-1.57,1.4a20,20,0,0,1-3,.25,12.27,12.27,0,0,1-6.39-1.4,4,4,0,0,1-1.87-3.42,4.66,4.66,0,0,1,.5-2,6.77,6.77,0,0,1,.76-1.29.26.26,0,0,1,.19-.14c.09,0,.17.11.11.25a5.81,5.81,0,0,0-.44,2,2,2,0,0,0,1,1.82c.92.59,2,.92,4.34.92A14.62,14.62,0,0,0,209.87,20.13ZM206,12.85a.29.29,0,0,1,.14-.19,18.93,18.93,0,0,0,2.07-1.74c.42-.39.59-.56.59-.84s-.11-.22-.28-.28a3.69,3.69,0,0,0-1-.11,16.66,16.66,0,0,0-1.76.08,18.39,18.39,0,0,0-2.92.56c-.19.06-.33,0-.33-.11a.34.34,0,0,1,.17-.25,11.05,11.05,0,0,1,2.88-1.51A10.19,10.19,0,0,1,209,7.84a7.84,7.84,0,0,1,3.33.64,2.06,2.06,0,0,1,1.4,1.71,1.14,1.14,0,0,1-.56,1.07,2.71,2.71,0,0,1-.95.22l-1.09,0a4.8,4.8,0,0,0-1.26.23A37.69,37.69,0,0,0,206.31,13C206.15,13,206,13,206,12.85Zm5.77-9.18a1.89,1.89,0,0,1,1.06,1.57,1.19,1.19,0,0,1-1.09,1.26c-.39,0-.73-.17-1.06-.76a5.92,5.92,0,0,0-2.21-2.38c-.14-.06-.2-.14-.2-.22s.08-.17.28-.17A6.08,6.08,0,0,1,211.8,3.67Zm0-2.69a5.47,5.47,0,0,1,2.38.45A1.86,1.86,0,0,1,215.38,3a1.06,1.06,0,0,1-1,1.18c-.36,0-.64-.11-1.09-.76a5.63,5.63,0,0,0-2.32-2c-.14-.06-.2-.14-.2-.22S210.88,1,211,1A7.22,7.22,0,0,1,211.83,1Z"/><path class="cls-2" d="M228.57,11.93a.17.17,0,0,1,.14.22c-.53,2.07-1,4-1.26,5.27a20.32,20.32,0,0,0-.31,2.35,2.88,2.88,0,0,0,.28,1.09A2.66,2.66,0,0,1,227.7,22a1.41,1.41,0,0,1-1.54,1.46,3.3,3.3,0,0,1-2.49-1.57,10,10,0,0,1-1.79-6.22,25.56,25.56,0,0,1,1-5.93c.48-1.8.95-3.42,1.23-4.57a8.38,8.38,0,0,0,.34-1.73,2.62,2.62,0,0,0-.78-1.6.32.32,0,0,1-.12-.22.21.21,0,0,1,.28-.2,5,5,0,0,1,1,.22,3.91,3.91,0,0,1,1.31,1,4.71,4.71,0,0,1,1.46,2.85A2.15,2.15,0,0,1,227,6.86a6.39,6.39,0,0,0-.86,1.6,36.63,36.63,0,0,0-1.57,4,11.87,11.87,0,0,0-.67,3.36c0,1.46.47,2.27,1,2.27.37,0,.73-.36,1.24-1.26s1.31-2.69,2.29-4.76A.15.15,0,0,1,228.57,11.93ZM241.4,6.47a1.36,1.36,0,0,1,.92-.25,2.9,2.9,0,0,1,1.23.42,1.5,1.5,0,0,1,.81,1.23c0,.67-.47,1-1.23,1.37a25.22,25.22,0,0,1-3.22,1.09A56.16,56.16,0,0,1,240.5,16c0,2.6-.59,4.64-2.44,6.24a13.69,13.69,0,0,1-7.33,2.88.25.25,0,0,1-.28-.22.21.21,0,0,1,.19-.2A10.73,10.73,0,0,0,235.88,21c1.18-1.65,1.51-3.42,1.51-6.3,0-.84,0-2.07-.08-3.67a17,17,0,0,1-2.19.34,3.4,3.4,0,0,1-1.79-.31,5.62,5.62,0,0,1-1.15-.87c-.28-.22-.56-.47-.78-.64a1.26,1.26,0,0,0-.5-.23,5.78,5.78,0,0,0-.59,0c-.14,0-.2-.08-.2-.14a.24.24,0,0,1,.17-.22,2.12,2.12,0,0,1,.78-.17,4.49,4.49,0,0,1,.87.11,3.89,3.89,0,0,0,1.09.17,10,10,0,0,0,2-.28c.54-.11,1.38-.36,2.19-.61-.11-1.82-.28-3.59-.42-4.68-.06-.48-.06-.73-.51-.9a3.14,3.14,0,0,0-1.12-.19c-.16,0-.28-.06-.28-.17s.06-.14.14-.25a2.94,2.94,0,0,1,.79-.62,2.22,2.22,0,0,1,1.06-.31,5.24,5.24,0,0,1,2.07.62,1.33,1.33,0,0,1,.87,1.06,1.52,1.52,0,0,1-.19.7,1.38,1.38,0,0,0-.2.9c0,1.15.11,1.9.22,3A15.14,15.14,0,0,0,241.4,6.47Z"/><path class="cls-2" d="M253.58,9.33a10.69,10.69,0,0,1,7.5-3.1,9.09,9.09,0,0,1,5.75,1.91,10.3,10.3,0,0,1,3.72,8,6.53,6.53,0,0,1-2.69,5.68C266,23.13,263,24,258.64,24.17c-.16,0-.23-.07-.23-.14a.21.21,0,0,1,.18-.19,15.07,15.07,0,0,0,6.3-2.85,7.25,7.25,0,0,0,2.58-5.84A9,9,0,0,0,265.17,9,5.8,5.8,0,0,0,261,7.15c-.23,0-.46,0-.69,0a4.84,4.84,0,0,1,.92,1.09,3.5,3.5,0,0,1,.58,2.07,12.45,12.45,0,0,1-.26,2,19.58,19.58,0,0,1-3.33,7.82,5.35,5.35,0,0,1-3.79,2.3,1.92,1.92,0,0,1-2.14-1.63,7.38,7.38,0,0,0-.72-1.68A5.84,5.84,0,0,1,250.22,16,9.51,9.51,0,0,1,253.58,9.33Zm-.69,9.32a1.44,1.44,0,0,0,1.33.69,3.55,3.55,0,0,0,2.47-1.66,19.34,19.34,0,0,0,3.28-7A8.58,8.58,0,0,0,260.23,9a3.23,3.23,0,0,0-.19-1.1,3.28,3.28,0,0,0-.32-.62,8.34,8.34,0,0,0-4.58,3.08,10.74,10.74,0,0,0-2.66,6.57A3,3,0,0,0,252.89,18.65Z"/><path class="cls-3" d="M28.23,70.48a16,16,0,0,0-.46,3.8c0,3.8,2.34,5.91,6.08,7a38.47,38.47,0,0,0,9,.88A47.34,47.34,0,0,0,54,80.66a11.72,11.72,0,0,1,2.92-.35c2.69,0,4.33,1.87,4.33,3.45a2.8,2.8,0,0,1-1.87,2.81c-4.33,1.69-9.48,1.81-14.1,1.81-7.2,0-12-1.23-15.15-3.1a10.28,10.28,0,0,1-5.33-9,11.69,11.69,0,0,1,1.93-6.38Zm1.7-23.64c2.28,1.82,4.15,2.34,8.31,2.34a51.84,51.84,0,0,0,10.41-1,14.47,14.47,0,0,1,3.4-.47c2.69,0,4,1.34,4,3.33,0,1.76-.76,2.81-3.21,3.1-1.12.12-2.05.18-2.81.24a27.1,27.1,0,0,0-7.78,2.4,66.87,66.87,0,0,0-8.08,4.15l-.93-1.34c3-2.29,5.5-4,8-5.68a23,23,0,0,1-2.69.12,10.46,10.46,0,0,1-9.77-5.85Zm26-3.74c7.08,2.16,10.82,5,10.82,8.36A2.41,2.41,0,0,1,64.62,54c-.87,0-1.28-.23-2.28-1.81A22.24,22.24,0,0,0,55,44.5Zm4.91-4.33c7.78,1.46,11.47,3.74,11.47,7a2.35,2.35,0,0,1-2.11,2.57c-.64,0-.88-.17-1.87-1.4a25.1,25.1,0,0,0-8.25-6.73Z"/><path class="cls-4" d="M118.43,89.83a35.64,35.64,0,0,0,4.62.23,85.41,85.41,0,0,0,12.52-.94v1.47a5.64,5.64,0,0,0-2.51,2A6,6,0,0,0,132,96c-1.47.06-2.58.11-3.28.11a56.79,56.79,0,0,1-12.75-1.28c-4.51-1.29-7.9-4.39-10.77-9.83a25.13,25.13,0,0,1-2.86,5c-2.17,3-4.22,4.86-8.31,7.55l-.88-1a28.6,28.6,0,0,0,5.79-9.37,41.66,41.66,0,0,0,2.87-12.57c0-.24-.06-.65-.06-1.17,8.19,1.52,8.19,1.52,8.19,2.34s-.64,1.11-2.28,1.69c-.82,3.1-1.11,4.1-1.58,5.39a12.4,12.4,0,0,0,6.49,5.85V71h-10.7a15.62,15.62,0,0,0-3.4.35l-.29-2c-1.11.76-1.81,1.23-4.44,2.87v7.72c0,6.85,0,6.85,0,10.47v.47c0,2.57-.58,3.86-2.1,5s-3,1.47-6.14,1.7c-.18-3.74-.65-4.21-5.91-5.73l.06-1.47,7.13.24c.76,0,.94-.24.94-1V75.67C87,76,87,76,86,76.6l-1.52.82c-.06,1.7-.58,2.64-1.46,2.64-.65,0-.88-.59-3.16-7.84a40.71,40.71,0,0,0,7.84-1.64V58.7H84.27a13,13,0,0,0-3.22.35L80.7,56.3a15.72,15.72,0,0,0,3.57.47h3.45V50.86a52,52,0,0,0-.41-7c8.42.82,8.66.88,8.66,1.7,0,.64-.59,1.17-2.28,2.05v9.18h.93a34.43,34.43,0,0,1,3-3.92,35.49,35.49,0,0,1,4,4.45,2.38,2.38,0,0,1,.29.88c0,.35-.29.52-.76.52H93.69V68.94a68.66,68.66,0,0,0,6.55-2.87l.52,1.35c-.64.47-1.17.82-1.46,1a5.23,5.23,0,0,0-.47.35,17,17,0,0,0,3.16.24h22.82c.35-.35,1.35-1.47,3.1-3.28a13.09,13.09,0,0,1-3.33.35c-1.76,0-2-.12-2-1v-.7H108.14v.7a.92.92,0,0,1-.3.76c-.35.35-1.69.58-3.56.58s-2.17-.17-2.17-1.23c.12-4.09.23-6.55.23-8,0-7.9,0-11.17-.23-13.28a29.38,29.38,0,0,1,6.44,3H122c1.35-1.52,1.76-1.93,3.16-3.33a51.64,51.64,0,0,1,4.45,3c.58.52.82.82.82,1.4,0,.82-.12.94-1.88,1.93,0,9.77,0,9.77.12,14.51V65l.23-.23a44.66,44.66,0,0,1,5.74,4.85,1.61,1.61,0,0,1,.35.88c0,.29-.29.53-.7.53H118.43v7.72h5.39c1.69-1.93,2.22-2.57,3.91-4.45A67,67,0,0,1,133.47,79a3.26,3.26,0,0,1,.35,1.06c0,.35-.35.58-.76.58H118.43Zm4.16-35.16V48.93H108.14v5.74ZM108.14,62.5h14.45V56.6H108.14Z"/><path class="cls-5" d="M167.82,72.76a28.39,28.39,0,0,0-.23-3.63c1.81.18,3.15.29,4.09.35,3.57.3,4.68.59,4.68,1.29s-.64,1.23-2.28,2v1.75h13.28c1.29-1.28,2.75-2.63,4.27-4.09,2.63,1.93,3.45,2.57,6.09,4.8a1.07,1.07,0,0,1,.4.76.44.44,0,0,1-.4.46H175.6c1.58,1.76,4.1,3.28,7.66,4.68,4.39,1.76,9,2.64,15.62,3.16v1.41c-2.8.82-4,2.1-4.79,5.44-5.79-1.76-7.9-2.69-11.59-5.21a29.48,29.48,0,0,1-8.42-8.36V83.7c0,2,.06,3.74.17,7.55,0,.82-.17,1.17-.81,1.4a11.83,11.83,0,0,1-3.34.41c-2,0-2.51-.29-2.51-1.52.17-3.57.23-5,.23-6.44V80a40.79,40.79,0,0,1-11.94,8.14,48.11,48.11,0,0,1-11,3.8l-.53-1.35a51.77,51.77,0,0,0,13.11-8,34.72,34.72,0,0,0,6-6.09h-13a29.14,29.14,0,0,0-4.51.36l-.47-2.64a28.37,28.37,0,0,0,5,.35h17.43Zm16.67-17a24,24,0,0,1-5.38,6.91c9,1.81,11.41,3.21,11.41,6.55,0,1.75-.82,3-2,3a3,3,0,0,1-1.64-.7,65.35,65.35,0,0,0-11.64-6A40.64,40.64,0,0,1,163,70.36c-4.33,1-8.19,1.52-15.44,1.93l-.24-1.46a65.19,65.19,0,0,0,15.39-3.92,41.62,41.62,0,0,0,6.67-3.22c-2.57-.64-4-1-7.08-1.7l-1.46,1.82a2.29,2.29,0,0,1-2,.7,20.39,20.39,0,0,1-4-.59c-.47-.11-.64-.29-.64-.52a1.48,1.48,0,0,1,.52-.82,59,59,0,0,0,5.62-6.79H149.68a3.18,3.18,0,0,1-1.4.35c-1.7,0-3.1-1.87-3.1-4.15a2.45,2.45,0,0,1,1.4-2.46c2.87-1.81,3.63-3.16,4.33-7.37h1.46a24.41,24.41,0,0,1,.82,3.45h14.28V43.16c0-1-.06-1.88-.24-3.92,1.88.17,3.22.23,4.16.29,4.5.29,5.32.53,5.32,1.29s-.64,1.22-2.46,2.1v2.69h13.11c1.52-1.52,2-2,3.63-3.39,2.81,2,3.62,2.69,6.43,5a1.39,1.39,0,0,1,.53.94c0,.82-.7,1-3.8,1H194c-.35.12-1.29.47-2.92,1.11,2.45,1.88,4.27,3.22,5.38,4.1a1.57,1.57,0,0,1,.35.82.63.63,0,0,1-.59.58Zm2.69-1.93L190,50.64c-3.16,1.17-3.16,1.17-4.68,1.82l-1.05-1.11a22.39,22.39,0,0,0,3.57-3.81H153.37v.59a10.49,10.49,0,0,1-1.52,5.73h9.89a22.25,22.25,0,0,0,3.15-5.38c6.56.88,7.73,1.17,7.73,2s-1,1.23-2.93,1.46c-.7,1.17-.93,1.46-1.23,1.93Zm-20.12,1.93c-.88,1.11-.94,1.23-3.57,4.57,1.76.11,5.56.64,9.07,1.17a17,17,0,0,0,5-5.74Z"/><path class="cls-6" d="M210.81,57.61c5.09.58,8.31,1.52,10.65,3A5.63,5.63,0,0,1,224,65a3.14,3.14,0,0,1-2.93,3.39c-1.4,0-2-.59-3.33-2.52a25.41,25.41,0,0,0-7.84-6.9Zm44.64-3C248.49,67.73,238.19,76.8,225,85a11.31,11.31,0,0,0-2.87,2c-.58.65-.93,1.06-1.75,1.06-1.17,0-3.1-1.17-5.44-4-1.52-1.81-1.82-2.81-1.82-3.69s.18-2.1.82-2.1c.35,0,.76.47,1.64,1a5.45,5.45,0,0,0,3,1A12.35,12.35,0,0,0,223,78.84a71.37,71.37,0,0,0,11.53-6.78,94.23,94.23,0,0,0,19.36-18.43Zm-38.14-9.07A29,29,0,0,1,227,48.3c2.34,1.17,3.63,3.05,3.63,5a3.58,3.58,0,0,1-3.22,3.74c-1.17,0-1.82-.64-3.1-2.69a23.69,23.69,0,0,0-8-7.37Z"/><path class="cls-7" d="M267.93,68.06c2.22,0,7.13,0,14.86-.23,5.44-.18,14.27-.24,19.3-.24,2.4,0,4.45,1.06,4.45,2.29a2.42,2.42,0,0,1-1.93,2.57c-1.11.29-3.1.47-8.25.64-6.14.18-13.16.35-25,.59-2.34,0-3.16.29-3.75.7a2.06,2.06,0,0,1-1.28.41c-1.23,0-2.23-.94-3.81-2.93s-1.87-3.39-1.87-4.09.24-2.11.7-2.11a1.39,1.39,0,0,1,1.12.53C264.24,68,265.29,68.06,267.93,68.06Z"/><path class="cls-8" d="M325.28,86.5c0,2.34.17,4.73.17,7.08,0,2.16-1.11,3.39-3,3.39a2.79,2.79,0,0,1-2.58-1.58,6.69,6.69,0,0,1-1.05-3.75,13,13,0,0,1,.29-2.63c.12-.64.18-1.64.3-3.27.23-3.51.29-7.32.29-16,0-8.19,0-11.65-.12-15.57-.06-2.22-.35-3-2.22-4.38-.53-.36-.7-.53-.7-.82s.93-1.11,1.75-1.11a10.37,10.37,0,0,1,4.92,1.52c2.34,1.28,3.56,2.22,3.56,3.51a2.38,2.38,0,0,1-.64,1.58,4.56,4.56,0,0,0-.76,2.8c-.06,2.64-.06,5.39-.12,9,5.21.53,10,1.41,13.34,2.87,2.81,1.23,4.68,3.28,4.68,5.62a3.46,3.46,0,0,1-3.1,3.74c-1.17,0-2.16-.76-3.92-2.46A32.93,32.93,0,0,0,325.28,69Z"/></g></g></svg>