<?xml version="1.0" encoding="utf-8"?>
<!-- Generator: Adobe Illustrator 25.2.1, SVG Export Plug-In . SVG Version: 6.00 Build 0)  -->
<svg version="1.1" id="レイヤー_1" xmlns="http://www.w3.org/2000/svg" xmlns:xlink="http://www.w3.org/1999/xlink" x="0px"
	 y="0px" viewBox="0 0 380 40.2" style="enable-background:new 0 0 380 40.2;" xml:space="preserve">
<style type="text/css">
	.st0{fill:#FFFFFF;}
</style>
<g>
	<path class="st0" d="M66.3,32.3c-8.7,0-15-4.4-15-12.4s6.3-12.5,15-12.5c1.6,0,3.3,0.2,4.4,0.4c1.6,0.3,2.1,0.4,2.2-0.1L73,7.3h0.9
		V14H73l-0.5-2c-0.5-1.8-3.3-3-6.4-3c-6.6,0-9,5.5-9,10.4c0,5.8,3.2,11.3,10.1,11.3c2.9,0,5.4-1,6.3-2.9l0.9-1.8l0.9,0.2l-1.2,4.9
		C72.4,31.8,69.4,32.3,66.3,32.3"/>
	<path class="st0" d="M83.5,31.8v-0.6l1.5-0.4c1.6-0.4,1.9-0.6,1.9-3.6V12.7c0-2.9-0.3-3.2-1.9-3.6l-1.5-0.4V8.1h12.2v0.6l-1.5,0.4
		c-1.6,0.4-1.9,0.7-1.9,3.6v14.6c0,2.9,0.3,3.2,1.9,3.6l1.5,0.4v0.6H83.5"/>
	<path class="st0" d="M104.3,31.8v-0.6l1.5-0.4c1.6-0.4,1.9-0.6,1.9-3.6V12.7c0-2.9-0.3-3.2-1.9-3.6l-1.5-0.4V8.1h19.6v4.8H123
		l-0.5-1.6c-0.4-1.3-1.3-1.6-5.8-1.6h-3.6v8.8h3.6c3.7,0,4.3-0.1,4.7-1.3l0.4-1.3h0.7V23h-0.7l-0.5-1.5c-0.4-1.2-0.9-1.3-4.6-1.3
		h-3.6v6.5c0,3.3,0.5,3.6,2.2,3.6h2.4c4.2,0,5.3-0.5,6.1-2l0.9-1.7l0.8,0.2l-1.2,5.1h-20"/>
	<path class="st0" d="M133.4,31.8v-0.6l1.5-0.4c1.6-0.4,1.9-0.6,1.9-3.6V12.7c0-2.9-0.3-3.2-1.9-3.6l-1.5-0.4V8.1h13v0.6l-2.2,0.4
		c-1.7,0.3-2,0.6-2,3.5v14c0,3.3,0.5,3.6,2.2,3.6h2c4.2,0,5.4-0.5,6.1-2l1-2.4l1,0.2l-1.3,5.8L133.4,31.8"/>
	<path class="st0" d="M161.5,31.8v-0.6l1.5-0.4c1.6-0.4,1.9-0.6,1.9-3.6V12.7c0-2.9-0.3-3.2-1.9-3.6l-1.5-0.4V8.1h12.2v0.6l-1.5,0.4
		c-1.6,0.4-1.9,0.7-1.9,3.6v14.6c0,2.9,0.3,3.2,1.9,3.6l1.5,0.4v0.6h-12.2"/>
	<path class="st0" d="M196.6,31.8v-0.6l1.7-0.4c1.5-0.3,1.8-0.8,0.7-3.6l-1.5-3.6h-9.8l-1.1,2.6c-1.5,3.4-1.3,4.2,0.4,4.6l1.6,0.4
		v0.6h-8.8v-0.6l0.9-0.3c1.3-0.4,1.6-0.9,3-4l7.7-16.5c0.5-1.2,0.5-1.4,0-2.4l0.1-0.2h4.9l8.4,19.5c1.2,2.8,1.6,3.2,2.8,3.6l0.9,0.3
		v0.6H196.6 M194.2,15.2c-0.6-1.4-1.1-2.8-1.2-3.4h-0.1c-0.2,0.7-0.8,2.2-1.5,3.6l-2.9,6.6h8.4L194.2,15.2z"/>
	<path class="st0" d="M20.1,0C9,0,0,9,0,20.1s9,20.1,20.1,20.1s20.1-9,20.1-20.1S31.2,0,20.1,0 M31.3,32.7c-2.7,0.3-5.5,0.1-8-0.7
		c1.2-0.9,2.4-2,3.2-3.3c2.8,0.3,5.7,0.1,8.5-0.7C34,29.8,32.8,31.4,31.3,32.7z M22.1,36.8L22.1,36.8c-0.3,0-0.6,0.1-0.8,0.1h-0.2
		c-0.2,0-0.4,0-0.6,0h-0.3c-2.4,0-4.7-0.5-6.8-1.5h-0.1L13,35.2c0.2,0,1.5,0,3.3-0.2c1.3-0.3,2.7-0.7,3.9-1.3c1.3,0.5,2.6,1,3.9,1.3
		c1.9,0.3,3.3,0.3,3.3,0.3c-0.1,0.1-0.3,0.1-0.4,0.2l0,0C25.4,36.2,23.8,36.6,22.1,36.8z M5.3,28c2.7,0.8,5.6,1,8.4,0.7
		c0.8,1.2,1.9,2.3,3.2,3.3c-2.6,0.8-5.3,1-8,0.7C7.5,31.4,6.2,29.8,5.3,28z M3.3,20.1c0-1.6,0.2-3.1,0.6-4.5
		c2.6-1.1,5.6-1.6,8.5-1.4c-0.6,2-0.5,4,0.3,6c-0.8,1.9-0.8,4-0.3,6c-2.9,0.2-5.9-0.3-8.5-1.4C3.5,23.2,3.3,21.7,3.3,20.1z M9,7.6
		c2.7-0.3,5.4-0.1,8,0.7c-1.4,1-2.4,2.1-3.2,3.3c-2.8-0.3-5.7-0.1-8.4,0.7C6.2,10.5,7.5,8.9,9,7.6z M13.1,4.8l0.1-0.1l0,0
		c0.4-0.2,0.8-0.4,1.3-0.5h0.1C14.8,4.1,15.1,4,15.3,4l0.3-0.1c0.2,0,0.4-0.1,0.5-0.1s0.3-0.1,0.4-0.1s0.3-0.1,0.4-0.1
		c0.2,0,0.3-0.1,0.5-0.1c0.1,0,0.2,0,0.4-0.1c0.2,0,0.4,0,0.5-0.1h0.3c0.2,0,0.4,0,0.6,0h0.2c0.2,0,0.4,0,0.6,0s0.3,0,0.5,0
		c0.1,0,0.3,0,0.4,0c0.2,0,0.4,0,0.6,0h0.3c0.2,0,0.4,0.1,0.7,0.1h0.2c0.2,0,0.5,0.1,0.7,0.1h0.1c0.2,0,0.5,0.1,0.7,0.2h0.1
		C24.6,3.9,24.8,4,25,4l0.3,0.1c0.1,0,0.3,0.1,0.4,0.1c0.4,0.1,0.8,0.3,1.2,0.5l0,0c0.1,0.1,0.3,0.1,0.4,0.2c0,0-1.4-0.1-3.3,0.2
		c-1.3,0.3-2.7,0.7-3.9,1.3c-1.3-0.5-2.6-1-3.9-1.3C14.4,4.9,13.1,5,12.9,5L13.1,4.8z M35,12.3c-2.8-0.8-5.7-1-8.5-0.7
		c-0.9-1.3-2-2.4-3.2-3.3c2.6-0.8,5.3-1,8-0.7C32.8,8.9,34,10.5,35,12.3z M25.4,16.8v0.1c-0.6-0.7-1.4-1.4-2.2-1.9
		c0.6-0.2,1.1-0.3,1.7-0.4C25.3,15.2,25.4,16,25.4,16.8z M25.4,23.5c0,0.8-0.2,1.5-0.4,2.3c-0.6-0.1-1.2-0.3-1.7-0.4
		C24,24.7,24.8,24.1,25.4,23.5L25.4,23.5z M20.6,30.5c-0.2,0.1-0.3,0.2-0.5,0.3c-0.2-0.1-0.3-0.2-0.5-0.2c-1.2-0.7-2.2-1.5-2.9-2.3
		c1.1-0.3,2.3-0.7,3.4-1.1c1.1,0.5,2.2,0.9,3.3,1.1C22.6,29.1,21.6,29.9,20.6,30.5z M14.8,23.4c0.6,0.7,1.3,1.3,2.1,1.9
		c-0.6,0.2-1.1,0.3-1.7,0.4C15,25,14.8,24.2,14.8,23.4z M15.2,14.5c0.6,0.1,1.1,0.3,1.7,0.4c-0.8,0.6-1.5,1.2-2.1,1.9
		C14.8,16,15,15.3,15.2,14.5z M19.6,9.7c0.1-0.1,0.3-0.2,0.5-0.2c0.2,0.1,0.3,0.2,0.5,0.3c1.1,0.6,2,1.4,2.9,2.3
		c-1.1,0.3-2.3,0.7-3.3,1.1c-1.1-0.5-2.2-0.9-3.4-1.1C17.5,11.2,18.5,10.4,19.6,9.7z M20.6,16.5c1.5,0.9,3,2.1,3.8,3.7
		c-0.9,1.5-2.3,2.8-3.8,3.7c-0.2,0.1-0.3,0.2-0.5,0.3c-0.2-0.1-0.3-0.2-0.5-0.2c-1.8-1-3.1-2.3-3.9-3.7c0.8-1.4,2.1-2.6,3.9-3.7
		c0.1-0.1,0.3-0.2,0.5-0.2C20.3,16.3,20.4,16.4,20.6,16.5z M27.7,26.1c0.3-0.8,0.4-1.7,0.4-2.6c0-1.2-0.2-2.3-0.7-3.4
		c0.4-1.1,0.7-2.2,0.7-3.4c0-0.9-0.1-1.8-0.4-2.6c2.9-0.2,5.9,0.3,8.6,1.4c0.4,1.4,0.6,3,0.6,4.5c0,1.6-0.2,3.1-0.6,4.5
		C33.7,25.8,30.7,26.2,27.7,26.1z"/>
	<g>
		<path class="st0" d="M235.8,19l-0.9,1.6c-1.5-0.9-3.9-1.9-5.7-2.5l0.9-1.6C232,17.1,234.4,18.2,235.8,19z M245.1,16.4l1.3,1.4
			c-3,4.9-9.1,9.5-15.1,11.3l-1-1.9C236.1,25.7,242.2,21.2,245.1,16.4z M238,14.2l-0.9,1.5c-1.5-0.9-3.8-2-5.6-2.7l0.9-1.6
			C234.4,12.3,236.6,13.4,238,14.2z"/>
		<path class="st0" d="M257.2,25.8V15.3h-6.1v-1.8h14.4v1.8h-6.3v10.6h7.9v1.9h-17.7v-1.9h7.8V25.8z"/>
		<path class="st0" d="M274.6,11.3v10.4h-2V11.3H274.6z M284.9,11v8.1c0,4.6-2.2,8-7.2,10.1l-1.3-1.7c4.7-1.8,6.5-4.6,6.5-8.5v-8
			H284.9z"/>
		<path class="st0" d="M307.5,12.1l1.5,1c-1.5,2.2-3.8,5.2-5.7,7.2l-1.6-1.1c1.6-1.5,3.6-3.9,4.5-5.4h-14.8V12h16.1V12.1z
			 M300.4,15.7c0,6.6-0.6,10.2-5.9,13.5l-1.5-1.4c5-2.9,5.4-5.8,5.4-12.1C298.4,15.7,300.4,15.7,300.4,15.7z"/>
		<path class="st0" d="M316.3,28.9v0.9h-1.8v-14h5.4v-3.3h-6.8v-1.7H333v1.7h-7.4v3.3h5.9v14h-1.8v-0.9H316.3z M329.8,27.3v-6.1
			c-0.2,2.4-0.5,2.7-2,2.7c-0.5,0-1.3,0-1.8,0c-1.7,0-2.1-0.5-2.1-2.9v-3.4h-2.4v0.5c0,2.8-0.9,5.3-3.4,7.3l-1.4-1
			c2.4-1.7,3.2-3.8,3.2-6.2v-0.5h-3.6v9.7h13.5V27.3z M324,15.9v-3.3h-2.4v3.3H324z M329.8,17.6h-4.1V21c0,1.1,0.1,1.2,0.6,1.2
			c0.4,0,1,0,1.4,0c0.5,0,0.5-0.1,0.5-1.4l1.6,0.3V17.6z"/>
		<path class="st0" d="M356.3,28.2l-1.4,1.6c-4.3-1.7-7.2-4.8-8.8-10c-1.1,4.2-3.5,7.7-8.6,10l-1.4-1.5c5.7-2.3,7.8-6.2,8.6-10.7
			h-8.5v-1.7h8.7c0.2-1.9,0.3-4,0.3-6h1.9c0,2.1-0.1,4.1-0.3,6h9.3v1.7h-8.7C348.8,23.4,351.7,26.7,356.3,28.2z"/>
		<path class="st0" d="M373.4,21v-2.5H360v-1.7h8.9V14h-6.6v-1.6h6.6V9.8h1.9v2.7h6.8v1.6h-6.8v2.8h9.1v1.7h-4.6V21h4.1v1.7h-4.1
			v5.1c0,1.2-0.4,1.9-1.5,2.1c-0.7,0.1-2.5,0.1-3.8,0l-0.3-1.8c1.1,0.1,2.6,0.1,3.1,0c0.5,0,0.7-0.3,0.7-0.7v-4.7h-12.8V21H373.4z
			 M365.1,23.1c1.8,1.4,3.2,2.6,4.1,3.9l-1.6,1.1c-0.9-1.3-2.2-2.6-3.9-4L365.1,23.1z"/>
	</g>
</g>
</svg>
