<?xml version="1.0" encoding="utf-8"?>
<!-- Generator: Adobe Illustrator 25.2.1, SVG Export Plug-In . SVG Version: 6.00 Build 0)  -->
<svg version="1.1" id="レイヤー_36" xmlns="http://www.w3.org/2000/svg" xmlns:xlink="http://www.w3.org/1999/xlink" x="0px"
	 y="0px" viewBox="0 0 119.3 10.4" style="enable-background:new 0 0 119.3 10.4;" xml:space="preserve">
<style type="text/css">
	.st0{fill:#DFE9E9;}
	.st1{fill:#DED8B9;}
</style>
<rect x="68.6" y="0.3" class="st0" width="20.2" height="9.8"/>
<g>
	<g>
		<path d="M96.6,3.3c0.3,0,0.3,0,0.4-0.1c0,0,0.2-0.3,0.3-0.3c0.1,0,0.8,0.5,0.8,0.7c0,0.1-0.1,0.2-0.2,0.2C97.7,4,97.7,4,97.6,4.2
			c-0.2,0.5-0.9,2.1-2.1,3.2c-0.3,0.3-1.2,0.9-1.3,0.9c0,0-0.1,0-0.1-0.1c0-0.1,0.1-0.1,0.1-0.1c0.2-0.1,0.7-0.6,1-1.1
			C96.7,5.3,97,3.7,97,3.7c0-0.2-0.2-0.2-0.3-0.2h-0.4c-0.3,0-1,0-1.3,0c0,0-0.2,0-0.2,0c0,0,0,0-0.1-0.1l-0.2-0.2c0,0,0,0,0-0.1
			c0,0,0,0,0,0c0.1,0,0.4,0,0.4,0c0.3,0,0.8,0,1.4,0H96.6z M99.5,0.8c0,0.1-0.2,0.3-0.3,0.4c-0.1,0.2-0.1,0.3-0.1,0.7
			c0,0.8,0,5.3,0,6.3c0,0.7,0,0.9-0.3,1.1c-0.2,0.2-0.5,0.2-0.6,0.2c-0.2,0-0.2,0-0.2-0.2c-0.1-0.3-0.3-0.4-0.5-0.5
			c-0.2-0.1-0.3-0.1-0.3-0.2s0.1,0,0.1,0c0.1,0,0.4,0.1,0.5,0.1c0.5,0,0.5-0.1,0.6-0.3c0-0.3,0-4.2,0-4.7c0-0.8,0-2.2,0-2.5
			c0-0.1-0.1-0.5-0.1-0.6c0,0,0-0.1,0-0.1C98.4,0.5,99.5,0.6,99.5,0.8z M102.4,7c0.2,0.1,0.7,0.4,0.8,0.5c0,0,0.1,0,0.1,0.1
			c0,0-0.1,0.1-0.1,0.1c0,0-0.2,0-0.2,0c0,0-0.3,0-0.5,0c-0.1,0-0.5,0.3-0.6,0.3c-0.2,0-1-1.1-1.4-1.9c-0.8-1.5-1.1-3-1.1-3.3
			c0,0,0-0.2,0-0.2c0,0,0.1,0.1,0.1,0.2c0,0.1,0.2,0.8,0.4,1.1c0,0.1,0.1,0.1,0.2,0.1c0.2,0,1.2-0.9,1.4-1.1
			c0.1-0.1,0.2-0.3,0.2-0.4c0,0,0,0,0,0s0.9,0.5,0.9,0.7c0,0.1-0.2,0.1-0.3,0.1c-0.2,0-0.2,0-0.9,0.4c-0.1,0.1-0.9,0.4-1,0.4
			c-0.1,0-0.1,0.1-0.1,0.2C100.2,4.5,101,6.1,102.4,7z"/>
		<path d="M105.7,8.8c-0.3,0-0.3,0.1-0.3,0.3c0,0.1-0.2,0.3-0.5,0.3c-0.2,0-0.3-0.1-0.3-0.3c0,0,0-0.4,0-0.4
			c0.1-1.4,0.1-2.6,0.1-5.7c0-0.5,0-1.3,0-1.5c0-0.1-0.1-0.5-0.1-0.6c0,0,0-0.1,0.1-0.1c0.1,0,0.3,0.1,0.6,0.2
			c0.4,0.2,0.4,0.2,0.6,0.2h5.3c0.5,0,0.5,0,0.6-0.1c0.1-0.1,0.2-0.2,0.3-0.2c0.2,0,0.7,0.5,0.7,0.6c0,0.1-0.1,0.2-0.1,0.2
			c-0.1,0.1-0.2,0.2-0.2,0.3c0,0.1,0,3.8,0,4.6c0,0.3,0.1,2,0.1,2.4c0,0.2,0,0.4-0.5,0.4c-0.3,0-0.3-0.1-0.3-0.3
			c0-0.2-0.1-0.2-0.3-0.2H105.7z M111.6,8.5c0.1,0,0.2,0,0.3-0.2c0-0.1,0.1-1.8,0.1-2.3c0-0.5,0-4.4-0.1-4.5
			c-0.1-0.1-0.2-0.1-0.3-0.1h-5.8c-0.3,0-0.3,0.1-0.3,0.5c0,0.7-0.1,5.1-0.1,5.9c0,0.5,0,0.6,0.3,0.6H111.6z M109.1,3.2
			c0.5,0,0.5,0,0.6-0.1c0.1-0.2,0.2-0.2,0.2-0.2c0,0,0.8,0.3,0.8,0.5c0,0.1-0.1,0.1-0.3,0.2c-0.1,0.1-0.1,0.1-0.1,0.7
			c0,0.3,0,1.8,0,2.1c0,0.3,0,0.7-0.5,0.7c-0.2,0-0.3-0.1-0.3-0.3c0-0.2-0.1-0.3-0.3-0.3h-1.2c-0.3,0-0.3,0.2-0.3,0.4
			c0,0.6-0.4,0.6-0.4,0.6c-0.1,0-0.3,0-0.3-0.3c0-0.1,0-0.3,0-0.4c0-0.6,0-1.9,0-2.6c0-0.3,0-0.4,0-0.8c0,0,0-0.3,0-0.3
			c0-0.1,0-0.1,0.1-0.1c0.1,0,0.4,0.1,0.5,0.2c0.2,0.1,0.3,0.1,0.5,0.1H109.1z M108.1,3.5c-0.4,0-0.4,0.1-0.4,0.8c0,0.5,0,1.6,0,1.7
			c0,0.2,0.2,0.2,0.3,0.2h1.2c0.3,0,0.3-0.1,0.3-0.4v-2c0-0.3-0.1-0.4-0.3-0.4H108.1z"/>
		<path d="M116.9,2.6c-0.8,0-1.6,1.4-1.6,2.5c0,0.3,0,0.5,0.1,0.7c0.1,0.2,0.1,0.3,0.1,0.4c0,0.3-0.3,0.4-0.4,0.4
			c-0.5,0-0.7-0.8-0.7-1.6c0-0.5,0.1-1,0.2-1.6c0.1-0.8,0.1-1,0.1-1.3c0-0.4-0.1-0.5-0.1-0.6c0,0-0.2-0.2-0.2-0.3
			c0,0,0.1-0.1,0.3-0.1c0.5,0,0.8,0.4,0.8,0.7c0,0.1-0.2,0.6-0.2,0.7c0,0.1-0.2,1-0.2,1.2c0,0,0,0.1,0.1,0.1c0.1,0,0.1-0.1,0.2-0.2
			c0.1-0.2,0.8-1.5,1.8-1.5c0.6,0,1.3,0.3,1.3,2.4c0,1.4-0.3,3-2.2,4.1c-0.4,0.2-0.7,0.3-0.7,0.3c0,0,0,0,0,0c0,0,0,0,0.2-0.2
			c1.6-1.2,1.9-2.4,1.9-4.4C117.8,3.3,117.6,2.6,116.9,2.6z"/>
	</g>
</g>
<rect y="0.3" class="st1" width="20.2" height="9.8"/>
<g>
	<g>
		<path d="M29.2,6.9c-0.1,0-0.8,0.3-1.8,0.8c-0.1,0-0.4,0.2-0.4,0.2c-0.2,0-0.6-0.9-0.6-0.9c0,0,0-0.1,0.1-0.1c0,0,0.3,0,0.3,0
			c0.2,0,0.5,0,0.6-0.2c0-0.1,0-2.9,0-3.3c0-0.3,0-0.7,0-1.1c0-0.1-0.1-0.4-0.1-0.4c0-0.1,0-0.1,0.1-0.1c0,0,0.4,0.1,0.4,0.1
			c0.5,0.1,0.5,0.1,0.5,0.2c0,0-0.2,0.2-0.2,0.2C28,2.7,28,3,28,6.1c0,0.5,0,0.6,0.2,0.6c0.1,0,0.6-0.1,0.7-0.2
			c0.3-0.1,0.4-0.1,0.4-0.2c0-0.1,0-1.6,0-2c0-1,0-2.4-0.1-3.3c0-0.1-0.1-0.3-0.1-0.4c0-0.1,0-0.1,0.1-0.1c0.1,0,0.9,0.1,0.9,0.3
			c0,0,0,0.1-0.1,0.2c0,0.1-0.1,0.2-0.1,0.5c0,1.1,0,6.2,0,7.4c0,0.3-0.1,0.6-0.5,0.6c-0.2,0-0.3-0.2-0.3-0.3
			C29.3,9.1,29.4,7.1,29.2,6.9C29.3,6.9,29.3,6.9,29.2,6.9z M30.5,1.4C30.5,1.3,30.5,1.3,30.5,1.4C30.5,1.3,30.5,1.3,30.5,1.4
			c0.1-0.1,0.4-0.1,0.4-0.1c0.5,0,0.9,0,1.4,0h1.1c0.2,0,0.3,0,0.4-0.2C34,1,34,1,34.1,1c0.1,0,0.8,0.5,0.8,0.5c0,0,0,0,0,0.1
			c0,0.1-0.1,0.1-0.3,0.2c-0.1,0-0.1,0.2-0.2,0.4c-0.3,1.6-0.5,2.5-1.1,3.6c-0.1,0.3-0.2,0.4-0.2,0.5c0,0.2,0.5,1.1,2.2,2
			c0.3,0.2,0.3,0.2,0.3,0.2c0,0-0.2,0.1-0.2,0.1c-0.1,0-0.4,0.1-0.7,0.3c0,0-0.2,0.2-0.2,0.2c-0.1,0-0.9-0.6-1.6-1.6
			c-0.2-0.3-0.2-0.4-0.3-0.4s-0.1,0-0.3,0.3c-0.7,0.8-1.9,1.7-2.1,1.7c0,0,0,0,0,0c0,0,0.4-0.4,0.4-0.4c0.9-1,1.6-2.1,1.6-2.3
			c0-0.1-0.3-1-0.4-1.2c-0.3-1-0.6-2.4-0.6-3.3c0-0.1,0-0.1-0.1-0.1c-0.1,0-0.4,0-0.4,0c0,0-0.1,0-0.1-0.1L30.5,1.4z M32.3,1.6
			c-0.2,0-0.6,0-0.6,0c0,0-0.1,0.1-0.1,0.1c0,0.1,0.1,1,0.4,1.8c0.1,0.4,0.6,1.9,0.8,1.9c0.3,0,1-3.1,1-3.6c0-0.2-0.1-0.2-0.3-0.2
			H32.3z"/>
		<path d="M37.8,6.4c0,0-0.2,0.2-0.2,0.2c0,0.2-0.2,0.6-0.2,0.7c-0.4,1.1-0.9,1.9-1,1.9c0,0,0,0,0,0c0,0,0.3-0.9,0.4-1.1
			C36.8,7.6,37,6.6,37,6.3c0,0,0-0.2,0-0.3c0-0.1,0-0.1,0.1-0.1c0.1,0,0.3,0.1,0.3,0.1C37.5,6.1,37.8,6.3,37.8,6.4z M37.8,1.8
			c0.1-0.3,0.3-1,0.3-1.2c0-0.1,0-0.2,0.1-0.2C38.3,0.4,39,0.9,39,1c0,0.1-0.1,0.1-0.2,0.1c-0.1,0-0.1,0.1-0.6,0.7
			c-0.1,0.1-0.4,0.5-0.4,0.6c0,0,0,0.1,0.1,0.1C37.9,2.7,38,2.9,38,3.1c0,0.1-0.1,0.3-0.3,0.3c-0.1,0-0.2,0-0.3-0.3
			c-0.2-0.3-0.6-0.7-1-1c-0.1,0-0.1-0.1-0.1-0.1c0,0,0,0,0,0c0.1,0,0.5,0.1,0.7,0.2c0,0,0.3,0.1,0.3,0.1C37.6,2.3,37.7,2,37.8,1.8z
			 M38.3,9.6C38,9.6,38,9.3,38,9.2c0-0.1,0-0.7,0-0.8c0-0.5,0-1.3,0-1.4V5.6c0-0.2-0.1-0.2-0.2-0.2s-0.5,0.1-0.6,0.1
			c-0.1,0-0.4,0.2-0.4,0.2c-0.2,0-0.3-0.8-0.3-0.8c0,0,0-0.1,0.1-0.1c0,0,0.2,0,0.2,0.1c0.1,0,0.2,0,0.3,0c0.2,0,0.2-0.1,0.6-0.6
			C38.2,3.5,38.8,2.5,39,2c0.1-0.2,0.1-0.2,0.2-0.2c0.2,0,0.2,0.1,0.6,0.4c0.1,0.1,0.1,0.1,0.1,0.2c0,0.1,0,0.1-0.2,0.2
			c-0.2,0-0.2,0.1-0.4,0.4c-0.4,0.6-0.5,0.7-1.5,1.7c-0.1,0.1-0.1,0.1-0.1,0.1c0,0.1,0.1,0.1,0.3,0.1c0.4,0,1,0,1.1,0
			c0.1,0,0.2,0,0.2-0.1c0-0.2-0.2-0.7-0.3-0.8c0,0-0.1-0.1-0.1-0.1c0,0,0,0,0,0C39,3.8,40,4.5,40,5.1c0,0.3-0.2,0.5-0.4,0.5
			c-0.2,0-0.2-0.2-0.3-0.4c0-0.1,0-0.2-0.1-0.2c-0.1,0-0.4,0.1-0.5,0.1c-0.1,0-0.1,0.1-0.1,0.5c0,2,0,2.2,0,3.3
			C38.7,9.3,38.6,9.6,38.3,9.6z M40.1,7.5c0,0.2-0.1,0.4-0.3,0.4c-0.2,0-0.2-0.1-0.4-0.8c-0.1-0.5-0.2-0.6-0.5-0.9
			c-0.1-0.1-0.1-0.1-0.1-0.1c0,0,0.3,0.1,0.5,0.2C39.8,6.7,40.1,7.2,40.1,7.5z M43.3,2.8c-0.2,0-0.3,0-0.3,0.1
			c0,0.1-0.1,0.6-0.1,0.7c0,0.1-0.1,0.5-0.1,0.6c0,0.1,0,0.1,0.4,0.4c0.4,0.3,1,0.8,1,1.3c0,0.4-0.2,0.5-0.3,0.5
			c-0.2,0-0.3-0.3-0.4-0.6c-0.2-0.5-0.5-1.2-0.8-1.2c-0.1,0-0.1,0.1-0.2,0.2C42.4,5.3,42,6,41.2,6.6C41.1,6.7,41,6.7,41,6.9
			c0,0.3,0,1.8,0,2.1c0,0.2,0,0.6-0.4,0.6c-0.4,0-0.4-0.4-0.4-0.7c0-0.2,0-1,0-1.1c0-0.7,0-2,0-2.5c0-1.4,0-1.8-0.1-2.3
			c0-0.1-0.1-0.4-0.1-0.5c0,0,0.1,0,0.1,0c0.1,0,0.1,0,0.5,0.2c0.1,0,0.2,0.1,0.4,0.1h0.8c0.3,0,0.3-0.1,0.3-0.5
			c0-0.5-0.1-1.1-0.1-1.3c0,0-0.1-0.2-0.1-0.2c0,0,0-0.1,0.1-0.1c0.1,0,0.7,0.1,0.7,0.1c0.2,0.1,0.3,0.1,0.3,0.2c0,0,0,0.1,0,0.1
			c0,0-0.1,0.1-0.1,0.1c0,0.1,0,1.1,0,1.3c0,0.2,0.1,0.3,0.3,0.3H44c0.1,0,0.2,0,0.3-0.1c0,0,0.2-0.2,0.3-0.2c0.1,0,0.8,0.5,0.8,0.6
			c0,0.1-0.1,0.1-0.2,0.2C45,3.2,45,3.2,45,3.5c0,0.3,0,1.9,0,2.3c0,0.3,0,1.9,0,2.3c0,0.4,0,0.8-0.2,1.1c-0.2,0.2-0.6,0.3-0.7,0.3
			c-0.2,0-0.2,0-0.3-0.2c-0.1-0.1-0.3-0.4-0.7-0.5c-0.1,0-0.3-0.1-0.3-0.1c0,0,0,0,0.1,0c0.1,0,0.8,0.1,0.9,0.1
			c0.5,0,0.6-0.1,0.6-0.5c0-1.4,0-3.6,0-5c0-0.2,0-0.3-0.3-0.3H43.3z M41.3,2.8C41,2.8,41,2.9,41,3.2c0,0.4,0,2.8,0,3.1
			c0,0.1,0,0.1,0.1,0.1c0.1,0,0.4-0.5,0.6-0.9c0.4-0.9,0.6-2.2,0.6-2.4c0-0.2-0.1-0.2-0.3-0.2H41.3z"/>
	</g>
</g>
</svg>
