<svg xmlns="http://www.w3.org/2000/svg" xmlns:xlink="http://www.w3.org/1999/xlink" viewBox="0 0 124.14 10.4"><defs><linearGradient id="linear-gradient" x1="-8266.2" y1="-5697.34" x2="-8266.2" y2="-5715.96" gradientTransform="matrix(0, -1, -1, 0, -5616.77, -8261.33)" gradientUnits="userSpaceOnUse"><stop offset="0" stop-color="#ed7850"/><stop offset="1" stop-color="#fff"/></linearGradient><linearGradient id="linear-gradient-2" x1="-6950.79" y1="-4366.23" x2="-6950.79" y2="-4340.04" gradientTransform="matrix(0, -1, -1, 0, -4339.03, -6945.93)" gradientUnits="userSpaceOnUse"><stop offset="0" stop-color="#fff"/><stop offset="0.1" stop-color="#f6fbfd"/><stop offset="0.27" stop-color="#def0f6"/><stop offset="0.47" stop-color="#b6dfeb"/><stop offset="0.72" stop-color="#7fc6dd"/><stop offset="0.99" stop-color="#39a7ca"/><stop offset="1" stop-color="#36a6c9"/></linearGradient></defs><g style="isolation:isolate"><g id="レイヤー_36" data-name="レイヤー 36"><polygon points="74.64 4.87 99.81 7.82 99.81 1.91 74.64 4.87" style="opacity:0.5;mix-blend-mode:multiply;fill:url(#linear-gradient)"/><path d="M27.2,4.41S19.89,7.7,14,4a11.66,11.66,0,0,0-13,.4S7.58,2.16,12.89,5.74C19.93,10.5,27.2,4.41,27.2,4.41Z" style="mix-blend-mode:multiply;fill:url(#linear-gradient-2)"/><path d="M33.37,7.41a2,2,0,0,0,1,.86,7.86,7.86,0,0,0,2.8.32,21.63,21.63,0,0,0,3.4-.28c.05,0,.05.09,0,.11-.27.14-.33.23-.36.57a.16.16,0,0,1-.15.17A15.2,15.2,0,0,1,38,9.27c-2.37,0-3.24-.2-3.81-.57a2.58,2.58,0,0,1-1-1.31A10.84,10.84,0,0,1,32,8.84c0,.33,0,.44-.14.44s-.15,0-.64-1a4.75,4.75,0,0,0,.54-.21,4.16,4.16,0,0,0,.89-.62V4.82H32a2.45,2.45,0,0,0-.68.07l-.1-.38a4,4,0,0,0,.78.06h.58c.32-.35.37-.39.43-.39s.12,0,.45.33c.15.12.19.18.19.24s0,.11-.28.28Zm-.76-5.29A3,3,0,0,0,31.86.84s0-.11.08-.09c1,.32,1.46.87,1.46,1.31a.46.46,0,0,1-.41.51C32.81,2.57,32.71,2.47,32.61,2.12ZM37,2.84l-.06-.11a2.9,2.9,0,0,0-1-1.11s0-.1.06-.09a2.78,2.78,0,0,1,1.38.72,5.87,5.87,0,0,0,1.17-1.17H35.13a3.57,3.57,0,0,0-.76.07l-.1-.38a5.77,5.77,0,0,0,.85.06h3.47C38.92.5,39,.47,39,.47s.12,0,.49.39c.16.15.2.21.2.27s-.12.18-.43.21a7.21,7.21,0,0,1-1.8,1.1.68.68,0,0,1,0,.14.45.45,0,0,1-.08.26H39c.28-.33.34-.37.4-.37s.12,0,.45.32c.15.13.19.18.19.25s-.06.14-.28.27V4.38c0,1.94,0,2.63,0,2.88a.66.66,0,0,1-.42.67,1,1,0,0,1-.45.1c-.09,0-.11,0-.15-.23s-.21-.34-.74-.46c0,0,0-.12,0-.12.39,0,.61,0,.87,0s.17,0,.17-.15V5.89H37.37c0,.84,0,1.52,0,1.78S37.26,8,37,8s-.27-.06-.27-.22,0-.72,0-1.78V5.89H35.11c0,1,0,1.48,0,1.85,0,.2-.14.3-.43.3s-.3-.07-.3-.24c0-.43,0-1.11,0-3,0-1.16,0-1.74,0-2.33l.82.4Zm-1.86.25V4.23H36.7V3.09ZM36.7,4.48H35.11V5.64H36.7Zm.67-.25h1.72V3.09H37.37Zm1.72,1.41V4.48H37.37V5.64Z"/><path d="M43.2,2.25a19,19,0,0,1-.29,4.37,5.8,5.8,0,0,1-1.55,2.9c0,.05-.17,0-.13-.1a7.21,7.21,0,0,0,1-3A21,21,0,0,0,42.46,3,20.21,20.21,0,0,0,42.39.56a4.53,4.53,0,0,1,.94.46h5c.34-.34.4-.38.46-.38s.14,0,.48.35c.16.14.2.2.2.26s0,.14-.31.31a35.24,35.24,0,0,0,.08,3.77,7.41,7.41,0,0,0,.58,2.45c.12.27.21.43.27.43S50.26,8,50.54,7c0-.06.15,0,.14,0a10.81,10.81,0,0,0-.16,1.4c0,.12,0,.19.17.42a.54.54,0,0,1,.05.24.34.34,0,0,1-.36.36.86.86,0,0,1-.57-.31,5.37,5.37,0,0,1-1.15-2.54,27.32,27.32,0,0,1-.28-5.36H43.2Zm2.22,4h-1V6.5c0,.21-.11.3-.41.3s-.26-.09-.26-.22,0-.67,0-1.64a11.24,11.24,0,0,0,0-1.38,5.34,5.34,0,0,1,.75.39h.89V2.85c-.5,0-1.06.09-1.74.11-.06,0-.08-.12,0-.13a11.24,11.24,0,0,0,2.82-.73,2,2,0,0,0,.69-.4c.55.43.66.56.66.66s-.18.13-.47.05a9.42,9.42,0,0,1-1.27.34V4H47c.25-.29.3-.32.36-.32s.13,0,.42.28c.13.11.17.17.17.23s-.05.12-.26.25v.46c0,.81,0,1.29,0,1.49s-.11.3-.4.3-.26-.06-.26-.24V6.21h-1V8c.44-.06.86-.14,1.3-.23A3.24,3.24,0,0,0,46.85,7s0-.1.08-.08c1,.51,1.56,1.22,1.56,1.75a.44.44,0,0,1-.39.47c-.2,0-.3-.15-.42-.52a4.2,4.2,0,0,0-.21-.6,17.93,17.93,0,0,1-3.69,1c-.08.28-.13.34-.22.34s-.2-.21-.4-1.06h.4q.91,0,1.86-.15Zm-1-2V6h1V4.2Zm2.63,0h-1V6h1Z"/><path d="M105.19,3h-.59a2.54,2.54,0,0,0-.58.06l-.1-.38a3.25,3.25,0,0,0,.67.07h.6V2.33a13.45,13.45,0,0,0-.06-1.91c1,.12,1.1.17,1.1.28s-.06.15-.33.27V2.76h.2c.27-.42.35-.47.42-.47s.12,0,.44.37c.12.11.16.19.16.25s0,.1-.13.1H105.9V5c.4-.13.78-.28,1.1-.42,0,0,.12.09.07.13a12,12,0,0,1-1.17.73c0,2.52,0,2.89,0,3.29a.82.82,0,0,1-.25.64.9.9,0,0,1-.61.21c-.08,0-.13-.08-.14-.18,0-.3-.16-.42-.88-.58-.05,0-.05-.13,0-.13l1,0c.13,0,.17,0,.17-.16V5.81l-.67.3c0,.27-.09.36-.2.36s-.15-.06-.43-1c.17,0,.41-.07.69-.13l.61-.16Zm4.86,2.76a4.37,4.37,0,0,0,1.17,1.38,5.19,5.19,0,0,0,2,.9s0,.1,0,.12c-.23.08-.34.24-.44.57,0,.06-.07.11-.12.11a.76.76,0,0,1-.39-.15,5.14,5.14,0,0,1-1.23-1,7,7,0,0,1-1.08-1.82c0,1.73.07,3.12.07,3.4s-.13.33-.43.33-.34-.09-.34-.29.05-1.41.08-2.79a6.62,6.62,0,0,1-3,2.34c-.07,0-.16-.1-.1-.14a7.86,7.86,0,0,0,2.76-2.93h-1.57a3.29,3.29,0,0,0-.6.06l-.1-.39a3,3,0,0,0,.7.08h1.88V5.4a9.79,9.79,0,0,0,0-1c.91.09,1,.14,1,.24s-.06.14-.28.23v.69h1.72c.39-.49.47-.54.53-.54s.15,0,.57.39c.18.17.23.24.23.3s0,.1-.13.1Zm-3-4a16.05,16.05,0,0,0,3.63-1,4.11,4.11,0,0,0,1-.51c.62.47.76.61.76.71s0,.11-.17.11a1.3,1.3,0,0,1-.33,0,15.68,15.68,0,0,1-4.85.84C107,2,107,1.82,107,1.81Zm.62,2.08a2.52,2.52,0,0,0-.49-1.37s0-.08.07-.06c.72.35,1.14.86,1.14,1.31,0,.3-.14.48-.42.48S107.7,4.13,107.66,3.89Zm1.83-.22a2.58,2.58,0,0,0-.44-1.42s0-.08.07-.06a1.71,1.71,0,0,1,1.11,1.36c0,.29-.14.48-.43.48S109.51,3.9,109.49,3.67Zm1.23.82a10.29,10.29,0,0,0,.89-1.75,6.22,6.22,0,0,0,.25-.84c.93.4,1,.43,1,.56s-.06.15-.38.18a9.15,9.15,0,0,1-1.62,1.94S110.69,4.54,110.72,4.49Z"/><path d="M117.62,4.7c0,2.66-1.2,4.25-3.61,4.82-.07,0-.13-.11-.07-.14a4.5,4.5,0,0,0,2.91-4.68h-2.07a3.55,3.55,0,0,0-.7.06l-.1-.38a4.53,4.53,0,0,0,.79.07H118V1.69a9.86,9.86,0,0,0,0-1.18c1,.1,1.13.18,1.13.28s-.08.16-.34.26v3.4h2.68c.51-.55.58-.6.64-.6s.14,0,.62.43c.21.18.26.26.26.32s0,.1-.13.1h-3.12V8.19c0,.37.15.47,1,.47s1-.05,1.18-.19A3.86,3.86,0,0,0,122.45,7s.12,0,.12,0c0,.37-.08,1-.08,1.16s0,.16.21.23a.27.27,0,0,1,.16.27c0,.21-.2.38-.52.48a7.08,7.08,0,0,1-1.79.14c-1.26,0-1.6-.26-1.6-1.05,0-.16,0-.45,0-1.28V4.7Zm-1.55-1.46a3.88,3.88,0,0,0-.87-1.73s0-.1.09-.08c1,.48,1.58,1.2,1.58,1.78a.46.46,0,0,1-.4.51C116.25,3.72,116.15,3.61,116.07,3.24Zm3.55.79a9.1,9.1,0,0,0,1.11-1.93,4.8,4.8,0,0,0,.27-.85c.82.35,1,.46,1,.58s0,.16-.4.2a9.65,9.65,0,0,1-1.88,2.09S119.58,4.08,119.62,4Z"/></g></g></svg>